<svg width="52" height="48" viewBox="0 0 52 48" fill="none" xmlns="http://www.w3.org/2000/svg">
<path fill-rule="evenodd" clip-rule="evenodd" d="M26 7.23012L46.7983 28.0284V42.6114C46.7983 43.9904 46.2504 45.3129 45.2753 46.2881C44.3002 47.2632 42.9777 47.811 41.5987 47.811H10.4013C9.0223 47.811 7.69978 47.2632 6.72467 46.2881C5.74956 45.3129 5.20175 43.9904 5.20175 42.6114V28.0284L26 7.23012ZM43.3319 4.48128V16.6136L36.3991 9.68084V4.48128C36.3991 4.02161 36.5817 3.58077 36.9068 3.25573C37.2318 2.9307 37.6726 2.74809 38.1323 2.74809H41.5987C42.0584 2.74809 42.4992 2.9307 42.8242 3.25573C43.1493 3.58077 43.3319 4.02161 43.3319 4.48128Z" fill="url(#paint0_linear)"/>
<path fill-rule="evenodd" clip-rule="evenodd" d="M23.5493 1.01491C24.1993 0.365063 25.0808 0 26 0C26.9192 0 27.8007 0.365063 28.4507 1.01491L51.4917 24.0524C51.8172 24.3779 52 24.8193 52 25.2795C52 25.7398 51.8172 26.1812 51.4917 26.5066C51.1663 26.8321 50.7249 27.0149 50.2646 27.0149C49.8044 27.0149 49.363 26.8321 49.0375 26.5066L26 3.46564L2.96247 26.5066C2.63703 26.8321 2.19563 27.0149 1.73538 27.0149C1.27513 27.0149 0.833726 26.8321 0.50828 26.5066C0.182834 26.1812 0 25.7398 0 25.2795C0 24.8193 0.182834 24.3779 0.50828 24.0524L23.5493 1.01491Z" fill="url(#paint1_linear)"/>
<defs>
<linearGradient id="paint0_linear" x1="26" y1="2.74809" x2="26" y2="47.811" gradientUnits="userSpaceOnUse">
<stop stop-color="#19B400"/>
<stop offset="1" stop-color="#107000"/>
</linearGradient>
<linearGradient id="paint1_linear" x1="26" y1="0" x2="26" y2="27.0149" gradientUnits="userSpaceOnUse">
<stop stop-color="#19B400"/>
<stop offset="1" stop-color="#107000"/>
</linearGradient>
</defs>
</svg>
