<svg width="14" height="14" viewBox="0 0 14 14" fill="none" xmlns="http://www.w3.org/2000/svg">
<path fill-rule="evenodd" clip-rule="evenodd" d="M1.75 11.8125V6.125H2.625V11.8125C2.625 11.9285 2.67109 12.0398 2.75314 12.1219C2.83519 12.2039 2.94647 12.25 3.0625 12.25H10.9375C11.0535 12.25 11.1648 12.2039 11.2469 12.1219C11.3289 12.0398 11.375 11.9285 11.375 11.8125V6.125H12.25V11.8125C12.25 12.1606 12.1117 12.4944 11.8656 12.7406C11.6194 12.9867 11.2856 13.125 10.9375 13.125H3.0625C2.7144 13.125 2.38056 12.9867 2.13442 12.7406C1.88828 12.4944 1.75 12.1606 1.75 11.8125ZM11.375 2.1875V5.25L9.625 3.5V2.1875C9.625 2.07147 9.67109 1.96019 9.75314 1.87814C9.83519 1.79609 9.94647 1.75 10.0625 1.75H10.9375C11.0535 1.75 11.1648 1.79609 11.2469 1.87814C11.3289 1.96019 11.375 2.07147 11.375 2.1875Z" fill="#19B400"/>
<path fill-rule="evenodd" clip-rule="evenodd" d="M6.38138 1.31249C6.54546 1.14846 6.76798 1.0563 7 1.0563C7.23202 1.0563 7.45454 1.14846 7.61863 1.31249L13.4348 7.12774C13.5169 7.20989 13.5631 7.32131 13.5631 7.43749C13.5631 7.55367 13.5169 7.66509 13.4348 7.74724C13.3526 7.82939 13.2412 7.87555 13.125 7.87555C13.0088 7.87555 12.8974 7.82939 12.8153 7.74724L7 1.93112L1.18475 7.74724C1.1026 7.82939 0.991182 7.87555 0.875003 7.87555C0.758824 7.87555 0.647404 7.82939 0.565253 7.74724C0.483103 7.66509 0.436951 7.55367 0.436951 7.43749C0.436951 7.32131 0.483103 7.20989 0.565253 7.12774L6.38138 1.31249Z" fill="#19B400"/>
<path d="M7.41994 7.50915V6.5552C7.74317 6.63135 8.05914 6.77637 8.31766 7.00453L8.31874 7.00311C8.33805 7.01793 8.36149 7.02812 8.38815 7.02812C8.42325 7.02812 8.45335 7.01179 8.47413 6.98773L8.4756 6.98802L8.89343 6.42112L8.89245 6.42065C8.90961 6.40159 8.92098 6.37743 8.92098 6.35025C8.92098 6.31817 8.90598 6.29005 8.88304 6.27015C8.4955 5.92565 8.00071 5.71882 7.41994 5.65663V5.10879H7.41984C7.41984 5.04869 7.36926 5 7.30681 5H6.85799C6.79554 5 6.74496 5.04869 6.74496 5.10879V5.64276C5.77537 5.73948 5.20088 6.33403 5.20088 7.03218C5.20088 7.97226 6.00527 8.24184 6.74496 8.4147V9.48604C6.26997 9.40413 5.87959 9.1672 5.614 8.90196C5.61214 8.89998 5.61018 8.89828 5.60812 8.89649L5.60302 8.89168L5.60224 8.89272C5.58258 8.87649 5.55765 8.86738 5.53175 8.86696C5.51158 8.86713 5.49184 8.87256 5.47461 8.88266C5.45739 8.89276 5.44332 8.90716 5.43391 8.92433L5.43254 8.92414L5.02814 9.50198L5.02863 9.50293C5.01045 9.5223 5.00027 9.5474 5 9.5735C5 9.60813 5.01784 9.63757 5.04392 9.65748L5.04284 9.65899C5.43783 10.0392 5.99086 10.3156 6.74496 10.3779V10.8912C6.74496 10.9513 6.79554 11 6.85799 11H7.30681C7.36926 11 7.41984 10.9512 7.41984 10.8912H7.41994V10.3778C8.4757 10.274 9 9.67975 9 8.91234C9 7.96547 8.16688 7.68881 7.41994 7.50915ZM6.74486 7.35007C6.45045 7.26033 6.24928 7.15654 6.24928 6.95603C6.24928 6.72108 6.42889 6.5552 6.74486 6.51368V7.35007ZM7.41994 9.49991V8.57369C7.73601 8.67041 7.95865 8.78119 7.95865 9.00915C7.95865 9.23042 7.78621 9.43074 7.41994 9.49991Z" fill="#19B400"/>
</svg>
