<svg width="22" height="22" viewBox="0 0 22 22" fill="none" xmlns="http://www.w3.org/2000/svg">
<path d="M11 3.66658C12.5161 3.66658 13.75 4.90042 13.75 6.41658H15.5833C15.5833 3.88933 13.5272 1.83325 11 1.83325C8.47271 1.83325 6.41663 3.88933 6.41663 6.41658V8.24992H5.49996C4.48888 8.24992 3.66663 9.07217 3.66663 10.0833V18.3332C3.66663 19.3443 4.48888 20.1666 5.49996 20.1666H16.5C17.511 20.1666 18.3333 19.3443 18.3333 18.3332V10.0833C18.3333 9.07217 17.511 8.24992 16.5 8.24992H8.24996V6.41658C8.24996 4.90042 9.48379 3.66658 11 3.66658ZM16.5018 18.3332H11.9166V16.2451C12.462 15.927 12.8333 15.3422 12.8333 14.6666C12.8333 13.6555 12.011 12.8333 11 12.8333C9.98888 12.8333 9.16663 13.6555 9.16663 14.6666C9.16663 15.3412 9.53788 15.927 10.0833 16.2451V18.3332H5.49996V10.0833H16.5L16.5018 18.3332Z" fill="white"/>
</svg>
