<svg width="40" height="46" viewBox="0 0 40 46" fill="none"
  xmlns="http://www.w3.org/2000/svg">
  <path d="M0 0.750015H7C7.65333 0.750015 8.23667 1.01127 8.65667 1.43877L13.51 6.40252L15.3767 4.52627C16.3333 3.60002 17.5 3.12502 18.6667 3.12502H32.6667C33.8333 3.12502 35 3.60002 35.9567 4.52627L38.29 6.90127C39.2 7.87502 39.6667 9.06252 39.6667 10.25V41.125C39.6667 42.3848 39.175 43.593 38.2998 44.4838C37.4247 45.3746 36.2377 45.875 35 45.875H11.6667C10.429 45.875 9.242 45.3746 8.36683 44.4838C7.49166 43.593 7 42.3848 7 41.125V15C7 13.8125 7.46667 12.625 8.37667 11.6513L10.22 9.75127L6.04333 5.50002H0V0.750015ZM18.6667 7.87502V12.625H32.6667V7.87502H18.6667ZM19.6233 22.125L14.9567 17.375H11.6667V20.7238L16.3333 25.4738V33.0263L11.6667 37.7763V41.125H14.9567L19.6233 36.375H27.0433L31.71 41.125H35V37.7763L30.3333 33.0263V25.4738L35 20.7238V17.375H31.71L27.0433 22.125H19.6233ZM21 26.875H25.6667V31.625H21V26.875Z" fill="black" fill-opacity="0.05"/>
</svg>
