<svg width="41" height="46" viewBox="0 0 41 46" fill="none"
  xmlns="http://www.w3.org/2000/svg">
  <path d="M0.125 0.749969H7.25C7.915 0.749969 8.50875 1.01122 8.93625 1.43872L13.8763 6.40247L15.7763 4.52622C16.75 3.59997 17.9375 3.12497 19.125 3.12497H33.375C34.5625 3.12497 35.75 3.59997 36.7238 4.52622L39.0988 6.90122C40.025 7.87497 40.5 9.06247 40.5 10.25V41.125C40.5 42.3847 39.9996 43.5929 39.1088 44.4837C38.218 45.3745 37.0098 45.875 35.75 45.875H12C10.7402 45.875 9.53204 45.3745 8.64124 44.4837C7.75045 43.5929 7.25 42.3847 7.25 41.125V15C7.25 13.8125 7.725 12.625 8.65125 11.6512L10.5275 9.75122L6.27625 5.49997H0.125V0.749969ZM19.125 7.87497V12.625H33.375V7.87497H19.125ZM20.0987 22.125L15.3487 17.375H12V20.7237L16.75 25.4737V33.0262L12 37.7762V41.125H15.3487L20.0987 36.375H27.6513L32.4012 41.125H35.75V37.7762L31 33.0262V25.4737L35.75 20.7237V17.375H32.4012L27.6513 22.125H20.0987ZM21.5 26.875H26.25V31.625H21.5V26.875Z" fill="url(#paint0_linear)"/>
  <defs>
    <linearGradient id="paint0_linear" x1="20.3125" y1="0.749969" x2="20.3125" y2="45.875" gradientUnits="userSpaceOnUse">
      <stop stop-color="#BB2828"/>
      <stop offset="1" stop-color="#930000"/>
    </linearGradient>
  </defs>
</svg>
