<svg width="34" height="45" viewBox="0 0 34 45" fill="none"
  xmlns="http://www.w3.org/2000/svg">
  <g opacity="0.05">
    <path d="M19.8333 45C18.8889 45 17.9444 44.9121 17 44.7363C16.0556 44.9121 15.1111 45 14.1667 45C11.599 45 9.23047 44.3701 7.0612 43.1104C4.89193 41.8506 3.17274 40.144 1.90365 37.9907C0.634549 35.8374 0 33.4863 0 30.9375C0 28.8281 0.509115 26.2939 1.52734 23.335C2.54557 20.376 3.67448 17.6807 4.91406 15.249C6.15365 12.8174 7.59245 10.2686 9.23047 7.60254C10.8685 4.93652 12.0048 3.13477 12.6393 2.19727C13.2739 1.25977 13.783 0.527344 14.1667 0C14.9635 1.11328 15.908 2.51953 17 4.21875L19.8333 0C20.217 0.527344 20.7261 1.25977 21.3607 2.19727C21.9952 3.13477 23.1241 4.93652 24.7474 7.60254C26.3707 10.2686 27.8095 12.8174 29.0638 15.249C30.3181 17.6807 31.4544 20.376 32.4727 23.335C33.4909 26.2939 34 28.8281 34 30.9375C34 33.4863 33.3655 35.8374 32.0964 37.9907C30.8273 40.144 29.1081 41.8506 26.9388 43.1104C24.7695 44.3701 22.401 45 19.8333 45ZM14.1667 4.21875C13.8715 4.6875 13.4657 5.32471 12.9492 6.13037C12.4327 6.93604 11.5252 8.47412 10.2266 10.7446C8.92795 13.0151 7.77691 15.1685 6.77344 17.2046C5.76997 19.2407 4.86241 21.4673 4.05078 23.8843C3.23915 26.3013 2.83333 28.3008 2.83333 29.8828C2.83333 33.2813 3.9401 36.1816 6.15365 38.584C8.36719 40.9863 11.0382 42.1875 14.1667 42.1875C17.2951 42.1875 19.9661 40.9863 22.1797 38.584C24.3932 36.1816 25.5 33.2813 25.5 29.8828C25.5 28.3008 25.1089 26.3306 24.3268 23.9722C23.5447 21.6138 22.6003 19.3286 21.4935 17.1167C20.3867 14.9048 19.2726 12.8101 18.151 10.8325C17.0295 8.85498 16.0924 7.2583 15.3398 6.04248C14.5872 4.82666 14.1962 4.21875 14.1667 4.21875ZM18.4167 6.45996C25.0278 17.1533 28.3333 25.3125 28.3333 30.9375C28.3333 33.0176 27.9054 34.9731 27.0495 36.8042C26.1936 38.6353 24.9983 40.21 23.4635 41.5283C25.7361 40.708 27.5881 39.2285 29.0195 37.0898C30.451 34.9512 31.1667 32.5488 31.1667 29.8828C31.1667 28.3008 30.7756 26.3306 29.9935 23.9722C29.2114 21.6138 28.2669 19.3286 27.1602 17.1167C26.0534 14.9048 24.9466 12.8101 23.8398 10.8325C22.7331 8.85498 21.7812 7.25098 20.9844 6.02051L19.8333 4.21875C19.4497 4.80469 18.9774 5.55176 18.4167 6.45996Z" fill="black"/>
  </g>
</svg>
