<svg width="52" height="51" viewBox="0 0 52 51" fill="none"
  xmlns="http://www.w3.org/2000/svg">
  <g opacity="0.05">
    <path fill-rule="evenodd" clip-rule="evenodd" d="M28.8887 32.9721C28.5819 30.9491 27.7699 29.0361 26.5276 27.4103L29.2762 24.6653L26.8075 22.2002L24.041 24.9667C22.4111 23.7667 20.5108 22.9866 18.5079 22.6954V18.7662H15.0166V22.6738C12.9953 22.9453 11.0725 23.712 9.41891 24.9057L6.72055 22.2038L4.25185 24.6725L6.90714 27.3278C5.65126 28.9389 4.80444 30.8622 4.48867 32.9685H0.81073V36.4634H4.46355C4.75779 38.5841 5.59744 40.5325 6.84614 42.1651L4.24826 44.7594L6.71696 47.2245L9.33279 44.6087C11.0024 45.842 12.956 46.6343 15.013 46.9124V50.6728H18.5043V46.8908C20.5442 46.5917 22.477 45.7875 24.1271 44.5513L26.8039 47.2317L29.2726 44.763L26.5958 42.0826C27.8086 40.4715 28.6196 38.5554 28.9102 36.4706H32.7101V32.9756H28.8887V32.9721ZM16.721 41.1174C15.0246 41.1174 13.3978 40.4435 12.1983 39.244C10.9988 38.0445 10.3249 36.4177 10.3249 34.7213C10.3249 33.025 10.9988 31.3981 12.1983 30.1986C13.3978 28.9992 15.0246 28.3253 16.721 28.3253C17.5737 28.3051 18.4218 28.4556 19.2154 28.768C20.0091 29.0803 20.7323 29.5482 21.3425 30.1441C21.9527 30.7401 22.4376 31.452 22.7687 32.238C23.0997 33.0241 23.2703 33.8684 23.2703 34.7213C23.2703 35.5742 23.0997 36.4186 22.7687 37.2046C22.4376 37.9907 21.9527 38.7026 21.3425 39.2985C20.7323 39.8944 20.0091 40.3623 19.2154 40.6747C18.4218 40.9871 17.5737 41.1376 16.721 41.1174Z" fill="black"/>
    <path fill-rule="evenodd" clip-rule="evenodd" d="M47.3466 12.6806L51.2577 11.6723L50.3535 8.15943L46.4387 9.17131C46.0178 8.28545 45.4595 7.47165 44.7846 6.76002C44.1046 6.08458 43.3208 5.52248 42.463 5.09508L43.543 1.22337L40.0517 0.250961L38.9788 4.09755C37.0062 3.92719 35.0322 4.40871 33.3596 5.46825L30.6326 2.68378L28.0454 5.22067L30.7581 7.98361C29.6185 9.63981 29.0618 11.6279 29.1757 13.6351L25.444 14.5967L26.3482 18.1024L30.0728 17.1408C30.4926 18.0127 31.0273 18.8452 31.7413 19.5736C32.4578 20.2884 33.29 20.8768 34.2029 21.3139L33.1659 25.0421L36.65 26.0145L37.7014 22.254C39.6462 22.3724 41.6197 21.8952 43.3098 20.7649L46.0763 23.5853L48.6599 21.0484L45.8754 18.2101C46.9473 16.5729 47.4632 14.634 47.3466 12.6806ZM38.315 18.4828C37.6122 18.483 36.9162 18.3448 36.2668 18.0761C35.6174 17.8073 35.0272 17.4133 34.5301 16.9165C34.033 16.4197 33.6386 15.8299 33.3694 15.1807C33.1002 14.5314 32.9616 13.8355 32.9613 13.1327C32.9611 12.4299 33.0993 11.7339 33.368 11.0845C33.6368 10.4351 34.0308 9.845 34.5276 9.34787C35.0244 8.85074 35.6142 8.45632 36.2635 8.18715C36.9127 7.91798 37.6086 7.77931 38.3114 7.77908C39.7308 7.7786 41.0922 8.342 42.0962 9.34533C43.1002 10.3487 43.6646 11.7097 43.665 13.1291C43.6655 14.5485 43.1021 15.91 42.0988 16.914C41.0954 17.918 39.7344 18.4823 38.315 18.4828Z" fill="black"/>
  </g>
</svg>
