<svg width="96" height="96" viewBox="0 0 96 96" fill="none" xmlns="http://www.w3.org/2000/svg">
	<path d="M70.3119 0H25.6881C11.501 0 0 11.501 0 25.6881V70.3119C0 84.499 11.501 96 25.6881 96H70.3119C84.499 96 96 84.499 96 70.3119V25.6881C96 11.501 84.499 0 70.3119 0Z" fill="url(#paint0_linear)" />
	<g clip-path="url(#clip0)">
		<path d="M66.9403 26.5429C64.8964 26.5047 62.8877 27.0731 61.172 28.1751C59.4563 29.2772 58.1119 30.8626 57.3114 32.7278C56.5109 34.593 56.2908 36.6529 56.6795 38.6431C57.0681 40.6332 58.0477 42.4627 59.4925 43.8968C60.9373 45.3309 62.7814 46.304 64.7879 46.6912C66.7945 47.0785 68.872 46.8623 70.7537 46.0702C72.6354 45.2782 74.2355 43.9465 75.3485 42.2462C76.4615 40.5459 77.0366 38.5545 77 36.5278C76.9525 33.896 75.8776 31.385 74.0016 29.5228C72.1255 27.6607 69.5943 26.5925 66.9403 26.5429ZM73.3964 36.8342C73.397 36.9514 73.3742 37.0675 73.3293 37.1759C73.2843 37.2843 73.2182 37.3828 73.1346 37.4656C73.051 37.5485 72.9517 37.6141 72.8424 37.6586C72.7331 37.7032 72.616 37.7258 72.4978 37.7252H70.368C69.6783 37.7252 69.0169 37.9969 68.5292 38.4805C68.0415 38.9641 67.7675 39.62 67.7675 40.3039V42.4159C67.7675 42.6527 67.673 42.8798 67.5046 43.0476C67.3363 43.2155 67.1077 43.3104 66.869 43.3116H66.7074C66.4678 43.3116 66.238 43.2173 66.0686 43.0493C65.8992 42.8813 65.8041 42.6535 65.8041 42.4159V40.3133C65.8041 39.631 65.5314 38.9766 65.0458 38.4932C64.5601 38.0099 63.9011 37.7371 63.2131 37.7346H60.9882C60.8702 37.7346 60.7533 37.7116 60.6443 37.6668C60.5353 37.622 60.4363 37.5564 60.3528 37.4736C60.2694 37.3909 60.2032 37.2927 60.158 37.1846C60.1129 37.0765 60.0896 36.9606 60.0896 36.8436V36.6833C60.0896 36.447 60.1843 36.2204 60.3528 36.0533C60.5213 35.8862 60.7499 35.7923 60.9882 35.7923H63.2131C63.555 35.7923 63.8935 35.7255 64.2094 35.5956C64.5252 35.4657 64.8121 35.2753 65.0536 35.0354C65.2951 34.7954 65.4866 34.5106 65.617 34.1972C65.7474 33.8838 65.8142 33.5479 65.8136 33.2089V31.0167C65.8136 30.7792 65.9088 30.5514 66.0781 30.3834C66.2475 30.2154 66.4773 30.121 66.7169 30.121H66.8785C67.1172 30.1223 67.3458 30.2172 67.5141 30.385C67.6825 30.5529 67.777 30.78 67.777 31.0167V33.2089C67.7764 33.5479 67.8432 33.8838 67.9736 34.1972C68.104 34.5106 68.2955 34.7954 68.537 35.0354C68.7786 35.2753 69.0654 35.4657 69.3813 35.5956C69.6971 35.7255 70.0356 35.7923 70.3775 35.7923H72.5074C72.6255 35.7917 72.7427 35.8143 72.852 35.8589C72.9613 35.9034 73.0606 35.969 73.1441 36.0519C73.2277 36.1348 73.2938 36.2332 73.3388 36.3416C73.3837 36.45 73.4065 36.5661 73.4059 36.6833L73.3964 36.8342Z" fill="white" />
		<path d="M35.3351 42.8873H45.4233C49.7531 42.8873 53.9059 44.592 56.9689 47.6267C60.0319 50.6614 61.7546 54.7779 61.7584 59.0715V71.3287C61.7584 72.8291 61.1573 74.268 60.0874 75.3289C59.0175 76.3898 57.5665 76.9859 56.0534 76.9859H24.7049C23.1919 76.9859 21.7408 76.3898 20.6709 75.3289C19.6011 74.268 19 72.8291 19 71.3287V59.0715C19.0038 54.7779 20.7265 50.6614 23.7895 47.6267C26.8525 44.592 31.0052 42.8873 35.3351 42.8873Z" fill="white" />
		<path d="M40.3649 44.5798C47.4882 44.5798 53.2628 38.8535 53.2628 31.7899C53.2628 24.7262 47.4882 19 40.3649 19C33.2416 19 27.467 24.7262 27.467 31.7899C27.467 38.8535 33.2416 44.5798 40.3649 44.5798Z" fill="white" />
	</g>
	<defs>
		<linearGradient id="paint0_linear" x1="0" y1="48" x2="96" y2="48" gradientUnits="userSpaceOnUse">
			<stop stop-color="#BF127D" />
			<stop offset="1" stop-color="#DF6F67" />
		</linearGradient>
		<clipPath id="clip0">
			<rect width="58" height="58" fill="white" transform="translate(19 19)" />
		</clipPath>
	</defs>
</svg>
