<svg width="231" height="111" viewBox="0 0 231 111" fill="none"
	xmlns="http://www.w3.org/2000/svg">
	<path d="M231 30.1751C230.475 49.4192 223.432 67.9098 211.032 82.6006C198.631 97.2915 181.613 107.306 162.781 110.995C166.924 108.768 170.387 105.455 172.801 101.409C175.215 97.3638 176.489 92.7368 176.489 88.0215C176.489 87.6911 176.489 87.3607 176.489 87.0354C175.974 73.5302 164.598 62.9831 151.127 62.9831H31.8553C14.4946 62.9831 0.0718556 49.0442 -0.000180791 31.6309C-0.0184768 27.4837 0.779876 23.3737 2.34904 19.5368C3.9182 15.7 6.22727 12.2119 9.14367 9.27289C12.0601 6.33385 15.5264 4.00172 19.3435 2.41042C23.1607 0.819109 27.2535 -4.06245e-05 31.3871 1.51107e-09L199.643 1.51107e-09C207.74 0.000889269 215.523 3.14098 221.367 8.76419C227.21 14.3874 230.661 22.0586 231 30.1751Z" fill="black" fill-opacity="0.5" />
</svg>
