<svg width="59" height="59" viewBox="0 0 59 59" fill="none" xmlns="http://www.w3.org/2000/svg">
	<g clip-path="url(#clip0)">
		<path d="M30.0613 8.85725e-05C24.1805 -0.110812 18.4007 1.53884 13.4643 4.73718C8.52795 7.93552 4.66039 12.5365 2.35834 17.9492C0.0562887 23.362 -0.575132 29.3393 0.545169 35.1136C1.66547 40.8878 4.48634 46.1953 8.64549 50.3545C12.8046 54.5137 18.1122 57.3345 23.8864 58.4548C29.6607 59.5751 35.638 58.9437 41.0507 56.6417C46.4635 54.3396 51.0645 50.472 54.2628 45.5357C57.4611 40.5993 59.1108 34.8195 58.9999 28.9386C58.856 21.3087 55.7609 14.0314 50.3648 8.6352C44.9686 3.23904 37.6913 0.143973 30.0613 8.85725e-05ZM48.6416 29.8522C48.6403 30.5383 48.3672 31.1959 47.8821 31.6811C47.3969 32.1662 46.7393 32.4393 46.0532 32.4406H35.3904C34.6092 32.4406 33.8601 32.7509 33.3078 33.3032C32.7554 33.8556 32.4451 34.6047 32.4451 35.3858V46.0534C32.4439 46.7395 32.1708 47.3971 31.6856 47.8823C31.2005 48.3674 30.5428 48.6405 29.8567 48.6418H29.3809C28.6945 48.6418 28.0361 48.3691 27.5507 47.8837C27.0653 47.3982 26.7926 46.7399 26.7926 46.0534V35.3906C26.7926 34.6094 26.4823 33.8603 25.9299 33.308C25.3776 32.7556 24.6284 32.4453 23.8473 32.4453H12.9466C12.2605 32.4441 11.6029 32.171 11.1177 31.6858C10.6326 31.2007 10.3595 30.543 10.3582 29.8569V29.3811C10.3582 28.6947 10.6309 28.0363 11.1163 27.5509C11.6017 27.0655 12.2601 26.7928 12.9466 26.7928H23.8568C24.638 26.7928 25.3871 26.4825 25.9394 25.9301C26.4918 25.3778 26.8021 24.6286 26.8021 23.8475V12.9468C26.8021 12.2603 27.0748 11.6019 27.5602 11.1165C28.0456 10.6311 28.704 10.3584 29.3905 10.3584H29.8663C30.5524 10.3597 31.21 10.6328 31.6951 11.1179C32.1803 11.6031 32.4534 12.2607 32.4547 12.9468V23.857C32.4547 24.6382 32.765 25.3873 33.3173 25.9396C33.8696 26.492 34.6188 26.8023 35.3999 26.8023H46.0532C46.7397 26.8023 47.398 27.075 47.8835 27.5604C48.3689 28.0458 48.6416 28.7042 48.6416 29.3907V29.8522Z" fill="url(#paint0_linear)" />
	</g>
	<defs>
		<linearGradient id="paint0_linear" x1="-0.00010179" y1="29.5001" x2="58.9999" y2="29.5001" gradientUnits="userSpaceOnUse">
			<stop stop-color="#BF127D" />
			<stop offset="1" stop-color="#DF6F67" />
		</linearGradient>
		<clipPath id="clip0">
			<rect width="59" height="59" fill="white" />
		</clipPath>
	</defs>
</svg>
