<svg width="46" height="22" viewBox="0 0 46 22" fill="none" xmlns="http://www.w3.org/2000/svg">
<path d="M43.5878 7.09863L37.1698 6.07838L44.5 0.5C44.5 -1.19209e-07 44.5 -1.19209e-07 44.5 0.5C44.5 0 43.5878 0 43.5878 0C42.5807 0 35.214 4.95918 34.5 5.64174L34.8402 5.69758L34.0962 5.57544L31.3456 1.63096C30.6317 0.610712 29.4443 0 28.1592 0H13.9932C12.7081 0 11.5132 0.610712 10.8067 1.63096L8.03364 5.61136L2.17937 7.02678C0.901803 7.33573 0 8.42783 0 9.69236V14.2978C0 15.3756 0.443381 16.3958 1.23999 17.1574C2.0366 17.919 3.10372 18.3357 4.23101 18.3357H6.8087C7.25208 20.4265 9.191 22 11.5057 22C13.8203 22 15.7517 20.4265 16.2026 18.3357H28.8506C29.294 20.4265 31.2329 22 33.5476 22C35.8622 22 37.7936 20.4265 38.2445 18.3357H42.5432C43.2721 18.3357 43.9335 17.9478 44.2566 17.3227L45.8047 14.3553C45.8348 14.2907 45.8649 14.226 45.8799 14.1542L45.9776 13.7518C45.9926 13.6799 46 13.6081 46 13.5363V9.80732C45.9923 8.46375 44.9856 7.32136 43.5878 7.09863ZM11.4981 20.1679C9.91245 20.1679 8.62734 18.9321 8.62734 17.4233C8.62734 15.9144 9.91245 14.6715 11.4981 14.6715C13.0838 14.6715 14.3689 15.9073 14.3689 17.4161C14.3689 18.9249 13.0838 20.1679 11.4981 20.1679ZM33.5325 20.1679C31.9468 20.1679 30.6617 18.9321 30.6617 17.4233C30.6617 15.9144 31.9543 14.6786 33.5325 14.6786C35.1182 14.6786 36.4033 15.9144 36.4033 17.4233C36.4033 18.9321 35.1182 20.1679 33.5325 20.1679ZM44.0763 13.4357L42.5281 16.5036H38.2295C37.7861 14.4128 35.8472 12.8393 33.5325 12.8393C31.2178 12.8393 29.2865 14.4128 28.8355 16.5036H16.1951C15.7517 14.4128 13.8128 12.8393 11.4981 12.8393C9.18347 12.8393 7.25205 14.4128 6.80114 16.5036H4.23101C3.61476 16.5036 3.02858 16.2737 2.5927 15.857C2.15682 15.4402 1.91631 14.887 1.91631 14.2907V9.68517C1.91631 9.26127 2.21695 8.90203 2.63778 8.79425L8.85281 7.30699C9.08578 7.24951 9.28868 7.113 9.41641 6.92619L12.3924 2.65121C12.7456 2.14108 13.3469 1.83214 13.9857 1.83214H28.1592C28.798 1.83214 29.3992 2.1339 29.7524 2.65121L32.7284 6.92619C32.8787 7.13455 33.1042 7.27825 33.3672 7.32136L43.2646 8.90203C43.7306 8.97387 44.0612 9.35467 44.0612 9.80732V13.4357H44.0763Z" fill="white"/>
</svg>
