<svg width="129" height="105" viewBox="0 0 129 105" fill="none" xmlns="http://www.w3.org/2000/svg">
<path fill-rule="evenodd" clip-rule="evenodd" d="M0 56L5 54C11 53 22 50 32 50C43 50 54 53 65 55C75 57 86 58 97 58C108 58 118 57 124 56H129V75H124C118 75 108 75 97 75C86 75 75 75 65 75C54 75 43 75 32 75C22 75 11 75 5 75H0V56Z" fill="url(#paint0_linear)"/>
<path d="M69.3333 69C67.8889 69 66.4444 68.8652 65 68.5957C63.5556 68.8652 62.1111 69 60.6667 69C56.7396 69 53.1172 68.0342 49.7995 66.1025C46.4818 64.1709 43.8524 61.5542 41.9115 58.2524C39.9705 54.9507 39 51.3457 39 47.4375C39 44.2031 39.7786 40.3174 41.3359 35.7803C42.8932 31.2432 44.6198 27.1104 46.5156 23.3818C48.4115 19.6533 50.612 15.7451 53.1172 11.6572C55.6224 7.56934 57.3602 4.80664 58.3307 3.36914C59.3012 1.93164 60.0799 0.808594 60.6667 0C61.8854 1.70703 63.3299 3.86328 65 6.46875L69.3333 0C69.9201 0.808594 70.6988 1.93164 71.6693 3.36914C72.6398 4.80664 74.3663 7.56934 76.849 11.6572C79.3316 15.7451 81.5321 19.6533 83.4505 23.3818C85.3689 27.1104 87.1068 31.2432 88.6641 35.7803C90.2214 40.3174 91 44.2031 91 47.4375C91 51.3457 90.0295 54.9507 88.0885 58.2524C86.1476 61.5542 83.5182 64.1709 80.2005 66.1025C76.8828 68.0342 73.2604 69 69.3333 69ZM60.6667 6.46875C60.2153 7.1875 59.5946 8.16455 58.8047 9.3999C58.0148 10.6353 56.6267 12.9937 54.6406 16.4751C52.6545 19.9565 50.8941 23.2583 49.3594 26.3804C47.8247 29.5024 46.4366 32.9165 45.1953 36.6226C43.954 40.3286 43.3333 43.3945 43.3333 45.8203C43.3333 51.0312 45.026 55.4785 48.4115 59.1621C51.7969 62.8457 55.8819 64.6875 60.6667 64.6875C65.4514 64.6875 69.5365 62.8457 72.9219 59.1621C76.3073 55.4785 78 51.0312 78 45.8203C78 43.3945 77.4019 40.3735 76.2057 36.7573C75.0095 33.1411 73.5651 29.6372 71.8724 26.2456C70.1797 22.854 68.4757 19.6421 66.7604 16.6099C65.0451 13.5776 63.612 11.1294 62.4609 9.26514C61.3099 7.40088 60.7118 6.46875 60.6667 6.46875ZM67.1667 9.90527C77.2778 26.3018 82.3333 38.8125 82.3333 47.4375C82.3333 50.627 81.6788 53.6255 80.3698 56.4331C79.0608 59.2407 77.2326 61.6553 74.8854 63.6768C78.3611 62.4189 81.1936 60.1504 83.3828 56.8711C85.5721 53.5918 86.6667 49.9082 86.6667 45.8203C86.6667 43.3945 86.0686 40.3735 84.8724 36.7573C83.6762 33.1411 82.2318 29.6372 80.5391 26.2456C78.8464 22.854 77.1536 19.6421 75.4609 16.6099C73.7682 13.5776 72.3125 11.1182 71.0938 9.23145L69.3333 6.46875C68.7465 7.36719 68.0243 8.5127 67.1667 9.90527Z" fill="black" fill-opacity="0.05"/>
<path fill-rule="evenodd" clip-rule="evenodd" d="M0 69L5.375 64.5C10.75 60 21.5 51 32.25 54C43 57 53.75 72 64.5 72C75.25 72 86 57 96.75 49.5C107.5 42 118.25 42 123.625 42H129V105H123.625C118.25 105 107.5 105 96.75 105C86 105 75.25 105 64.5 105C53.75 105 43 105 32.25 105C21.5 105 10.75 105 5.375 105H0V69Z" fill="url(#paint1_linear)"/>
<defs>
<linearGradient id="paint0_linear" x1="64.5" y1="50" x2="65" y2="81.5" gradientUnits="userSpaceOnUse">
<stop stop-color="#AF1C1C"/>
<stop offset="1" stop-color="#990606"/>
</linearGradient>
<linearGradient id="paint1_linear" x1="64.5" y1="42" x2="65" y2="96" gradientUnits="userSpaceOnUse">
<stop stop-color="#AA1717"/>
<stop offset="1" stop-color="#AF1C1C" stop-opacity="0"/>
</linearGradient>
</defs>
</svg>
