<svg width="52" height="69" viewBox="0 0 52 69" fill="none"
  xmlns="http://www.w3.org/2000/svg">
  <g opacity="0.05">
    <g clip-path="url(#clip0)">
      <path fill-rule="evenodd" clip-rule="evenodd" d="M35.8625 9.21677C36.1745 9.39762 36.4159 9.67893 36.5473 10.0147C36.6788 10.3505 36.6924 10.721 36.5861 11.0655L30.8454 29.7188H41.4375C41.7487 29.7186 42.0532 29.8097 42.3134 29.9806C42.5735 30.1516 42.7779 30.395 42.9013 30.6807C43.0247 30.9665 43.0617 31.2822 43.0077 31.5887C42.9538 31.8953 42.8112 32.1793 42.5977 32.4058L17.0977 59.4996C16.851 59.762 16.5227 59.933 16.1662 59.9849C15.8098 60.0368 15.4464 59.9664 15.1351 59.7852C14.8238 59.6041 14.583 59.3228 14.4521 58.9873C14.3211 58.6518 14.3076 58.2819 14.4138 57.9377L20.1545 39.2813H9.56246C9.25119 39.2814 8.94669 39.1904 8.68656 39.0194C8.42643 38.8485 8.22205 38.6051 8.09865 38.3193C7.97526 38.0335 7.93825 37.7179 7.9922 37.4113C8.04614 37.1047 8.18868 36.8207 8.40221 36.5942L33.9022 9.50046C34.1486 9.23844 34.4765 9.06749 34.8324 9.01541C35.1883 8.96333 35.5513 9.03317 35.8625 9.21358V9.21677ZM13.2504 36.0938H22.3125C22.5619 36.0937 22.8078 36.1522 23.0305 36.2645C23.2532 36.3769 23.4464 36.5399 23.5946 36.7405C23.7428 36.9411 23.8419 37.1737 23.8838 37.4195C23.9258 37.6654 23.9094 37.9177 23.8361 38.1561L19.4756 52.3181L37.7463 32.9063H28.6875C28.438 32.9063 28.1921 32.8478 27.9694 32.7355C27.7467 32.6232 27.5535 32.4602 27.4053 32.2596C27.2571 32.0589 27.158 31.8264 27.1161 31.5805C27.0742 31.3346 27.0905 31.0824 27.1638 30.844L31.5243 16.6819L13.2504 36.0938Z" fill="black"/>
    </g>
  </g>
  <defs>
    <clipPath id="clip0">
      <rect width="51" height="51" fill="white" transform="translate(0 9)"/>
    </clipPath>
  </defs>
</svg>
