<svg width="129" height="97" viewBox="0 0 129 97" fill="none" xmlns="http://www.w3.org/2000/svg">
<path fill-rule="evenodd" clip-rule="evenodd" d="M0 48L5 46C11 45 22 42 32 42C43 42 54 45 65 47C75 49 86 50 97 50C108 50 118 49 124 48H129V67H124C118 67 108 67 97 67C86 67 75 67 65 67C54 67 43 67 32 67C22 67 11 67 5 67H0V48Z" fill="url(#paint0_linear)"/>
<path fill-rule="evenodd" clip-rule="evenodd" d="M74.8625 1.21677C75.1745 1.39762 75.4159 1.67893 75.5473 2.01472C75.6788 2.35052 75.6924 2.72095 75.5861 3.06552L69.8454 21.7188H80.4375C80.7487 21.7186 81.0532 21.8097 81.3134 21.9806C81.5735 22.1516 81.7779 22.395 81.9013 22.6807C82.0247 22.9665 82.0617 23.2822 82.0077 23.5887C81.9538 23.8953 81.8112 24.1793 81.5977 24.4058L56.0977 51.4996C55.851 51.762 55.5227 51.933 55.1662 51.9849C54.8098 52.0368 54.4464 51.9664 54.1351 51.7852C53.8238 51.6041 53.583 51.3228 53.4521 50.9873C53.3211 50.6518 53.3076 50.2819 53.4138 49.9377L59.1545 31.2813H48.5625C48.2512 31.2814 47.9467 31.1904 47.6866 31.0194C47.4264 30.8485 47.222 30.6051 47.0987 30.3193C46.9753 30.0335 46.9383 29.7179 46.9922 29.4113C47.0461 29.1047 47.1887 28.8207 47.4022 28.5942L72.9022 1.50046C73.1486 1.23844 73.4765 1.06749 73.8324 1.01541C74.1883 0.963327 74.5513 1.03317 74.8625 1.21358V1.21677ZM52.2504 28.0938H61.3125C61.5619 28.0937 61.8078 28.1522 62.0305 28.2645C62.2532 28.3769 62.4464 28.5399 62.5946 28.7405C62.7428 28.9411 62.8419 29.1737 62.8838 29.4195C62.9258 29.6654 62.9094 29.9177 62.8361 30.1561L58.4756 44.3181L76.7463 24.9063H67.6875C67.438 24.9063 67.1921 24.8478 66.9694 24.7355C66.7467 24.6232 66.5535 24.4602 66.4053 24.2596C66.2571 24.0589 66.158 23.8264 66.1161 23.5805C66.0742 23.3346 66.0905 23.0824 66.1638 22.844L70.5243 8.6819L52.2504 28.0938Z" fill="black" fill-opacity="0.05"/>
<path fill-rule="evenodd" clip-rule="evenodd" d="M0 61L5.375 56.5C10.75 52 21.5 43 32.25 46C43 49 53.75 64 64.5 64C75.25 64 86 49 96.75 41.5C107.5 34 118.25 34 123.625 34H129V97H123.625C118.25 97 107.5 97 96.75 97C86 97 75.25 97 64.5 97C53.75 97 43 97 32.25 97C21.5 97 10.75 97 5.375 97H0V61Z" fill="url(#paint1_linear)"/>
<defs>
<linearGradient id="paint0_linear" x1="64.5" y1="42" x2="65" y2="73.5" gradientUnits="userSpaceOnUse">
<stop stop-color="#AF1C1C"/>
<stop offset="1" stop-color="#990606"/>
</linearGradient>
<linearGradient id="paint1_linear" x1="64.5" y1="34" x2="65" y2="88" gradientUnits="userSpaceOnUse">
<stop stop-color="#AA1717"/>
<stop offset="1" stop-color="#AF1C1C" stop-opacity="0"/>
</linearGradient>
</defs>
</svg>
