<svg xmlns="http://www.w3.org/2000/svg" width="26.22" height="15.062" viewBox="0 0 26.22 15.062">
  <defs>
    <style>
      .cls-1 {
        fill: #005aff;
        fill-rule: evenodd;
      }
    </style>
  </defs>
  <path id="Фигура_9" data-name="Фигура 9" class="cls-1" d="M1019.44,954.305a7.542,7.542,0,1,0,.03,9.08h2.32l1.29-1.53a0.181,0.181,0,0,1,.26-0.014c0.34,0.322.91,0.857,1.36,1.287a0.691,0.691,0,0,0,1-.055c0.35-.414.78-0.924,1.02-1.213a0.181,0.181,0,0,1,.26-0.014c0.29,0.271.77,0.733,1.18,1.122a0.692,0.692,0,0,0,1.05-.121c0.67-1.017,1.54-2.344,2.43-3.688a3.131,3.131,0,0,0-2.61-4.854h-9.59Zm8.99,6.363c-0.17-.159-0.75-0.71-1.21-1.142a0.679,0.679,0,0,0-.99.055c-0.35.414-.79,0.924-1.03,1.213a0.181,0.181,0,0,1-.26.014c-0.34-.321-0.9-0.857-1.35-1.286a0.69,0.69,0,0,0-1,.054c-0.55.652-1.27,1.494-1.66,1.956h-2.46a5.75,5.75,0,0,1-1.58,1.853,5.674,5.674,0,1,1-.06-9.08,5.766,5.766,0,0,1,1.61,1.853h9.86a1.668,1.668,0,0,1,1.39,2.593Zm-14.99-1.592a1.665,1.665,0,1,1-1.67-1.667A1.671,1.671,0,0,1,1013.44,959.076Z" transform="translate(-1005.94 -951.344)"/>
</svg>
