<svg xmlns="http://www.w3.org/2000/svg" width="23.438" height="15.937" viewBox="0 0 23.438 15.937">
  <defs>
    <style>
      .cls-1 {
        fill: #1be300;
        fill-rule: evenodd;
      }
    </style>
  </defs>
  <path id="Фигура_7" data-name="Фигура 7" class="cls-1" d="M890.3,962.99a6.057,6.057,0,0,1-3.024-.816,5.958,5.958,0,0,1-3.025-5.217v-3.584a6.05,6.05,0,0,1,9.074-5.216l3.116,1.791a6.012,6.012,0,0,1,0,10.434l-3.116,1.792A6.06,6.06,0,0,1,890.3,962.99Zm0-13.036a3.427,3.427,0,0,0-1.714.463,3.376,3.376,0,0,0-1.714,2.956v3.584a3.428,3.428,0,0,0,5.142,2.957l3.117-1.792a3.408,3.408,0,0,0,0-5.914l-3.117-1.791A3.424,3.424,0,0,0,890.3,949.954Zm-7.695,10.42-5.4,2.8a0.724,0.724,0,0,1-.977-0.306h0a0.719,0.719,0,0,1,.307-0.972l5.4-2.8a0.726,0.726,0,0,1,.977.306h0A0.72,0.72,0,0,1,882.609,960.374Zm0-2.644-5.4,2.8a0.726,0.726,0,0,1-.977-0.306h0a0.719,0.719,0,0,1,.307-0.972l5.4-2.8a0.726,0.726,0,0,1,.977.306h0A0.719,0.719,0,0,1,882.609,957.73Zm0-2.643-5.4,2.8a0.726,0.726,0,0,1-.977-0.306h0a0.72,0.72,0,0,1,.307-0.973l5.4-2.8a0.726,0.726,0,0,1,.977.306h0A0.719,0.719,0,0,1,882.609,955.087Zm0-2.643-5.4,2.8a0.724,0.724,0,0,1-.977-0.306h0a0.719,0.719,0,0,1,.307-0.972l5.4-2.8a0.726,0.726,0,0,1,.977.306h0A0.72,0.72,0,0,1,882.609,952.444Zm-0.121-2.644-5.4,2.8a0.725,0.725,0,0,1-.976-0.306h0a0.718,0.718,0,0,1,.307-0.972l5.4-2.8a0.725,0.725,0,0,1,.976.306h0A0.718,0.718,0,0,1,882.488,949.8Z" transform="translate(-876.031 -947.344)"/>
</svg>
