<svg xmlns="http://www.w3.org/2000/svg" width="13.187" height="15.875" viewBox="0 0 13.187 15.875">
  <defs>
    <style>
      .cls-1 {
        fill: #1be300;
        fill-rule: evenodd;
      }
    </style>
  </defs>
  <path id="Фигура_12" data-name="Фигура 12" class="cls-1" d="M850.827,973.129a1.456,1.456,0,0,1-.775-0.227L840,966.594a1.571,1.571,0,0,1,0-2.64l10.049-6.308a1.457,1.457,0,0,1,.775-0.228,1.526,1.526,0,0,1,1.5,1.548v12.616a1.544,1.544,0,0,1-.457,1.112,1.5,1.5,0,0,1-1.043.435h0Zm0-15.624a1.441,1.441,0,0,1,1.416,1.461v12.616a1.44,1.44,0,0,1-1.416,1.46,1.367,1.367,0,0,1-.732-0.214l-10.048-6.309a1.483,1.483,0,0,1,0-2.491L850.1,957.72a1.359,1.359,0,0,1,.732-0.215m0-.174a1.523,1.523,0,0,0-.819.241L839.96,963.88a1.659,1.659,0,0,0,0,2.788l10.048,6.308a1.53,1.53,0,0,0,.819.24,1.608,1.608,0,0,0,1.584-1.634V958.966a1.609,1.609,0,0,0-1.584-1.635h0Z" transform="translate(-839.219 -957.344)"/>
</svg>
