<svg xmlns="http://www.w3.org/2000/svg" width="13.22" height="15.875" viewBox="0 0 13.22 15.875">
  <defs>
    <style>
      .cls-1 {
        fill: #1be300;
        fill-rule: evenodd;
      }
    </style>
  </defs>
  <path id="Фигура_12_копия" data-name="Фигура 12 копия" class="cls-1" d="M1043.52,957.417a1.456,1.456,0,0,1,.77.227l10.07,6.309a1.569,1.569,0,0,1,0,2.639l-10.07,6.308a1.448,1.448,0,0,1-.77.228,1.532,1.532,0,0,1-1.51-1.547V958.964a1.57,1.57,0,0,1,.46-1.112,1.5,1.5,0,0,1,1.05-.435h0Zm0,15.624a1.438,1.438,0,0,1-1.42-1.461V958.964a1.438,1.438,0,0,1,1.42-1.46,1.378,1.378,0,0,1,.73.215l10.06,6.308a1.481,1.481,0,0,1,0,2.491l-10.06,6.308a1.378,1.378,0,0,1-.73.215m0,0.174a1.564,1.564,0,0,0,.82-0.24l10.06-6.308a1.662,1.662,0,0,0,0-2.789l-10.06-6.308a1.564,1.564,0,0,0-.82-0.24,1.609,1.609,0,0,0-1.59,1.634V971.58a1.61,1.61,0,0,0,1.59,1.635h0Z" transform="translate(-1041.94 -957.344)"/>
</svg>
