<svg width="151" height="152" viewBox="0 0 151 152" fill="none"
	xmlns="http://www.w3.org/2000/svg">
	<path opacity="0.4" d="M75.5 152C117.197 152 151 117.974 151 76C151 34.0264 117.197 0 75.5 0C33.8025 0 0 34.0264 0 76C0 117.974 33.8025 152 75.5 152Z" fill="black" />
	<path d="M30.336 95.7882L53.6137 122.284H31.4791C30.4782 122.285 29.4908 122.053 28.5943 121.604C27.6979 121.156 26.9169 120.505 26.3127 119.702C25.7085 118.899 25.2975 117.965 25.1121 116.975C24.9266 115.985 24.9718 114.965 25.244 113.996L30.336 95.7882Z" fill="url(#paint0_linear)" />
	<path d="M100.273 103.105L101.3 122.284H62.6118L51.0096 109.079L100.273 103.105Z" fill="url(#paint1_linear)" />
	<path d="M118.526 122.284H108.042L106.973 102.298L120.861 100.612L124.737 113.928C125.021 114.9 125.076 115.925 124.898 116.922C124.719 117.919 124.313 118.861 123.71 119.672C123.107 120.483 122.325 121.141 121.425 121.595C120.525 122.048 119.532 122.285 118.526 122.284Z" fill="url(#paint2_linear)" />
	<path d="M118.942 94.0222L45.5876 102.914L33.9426 89.6595L32.5061 88.0289L33.9854 82.7308C34.369 81.3602 35.1869 80.1533 36.3146 79.2935C37.4423 78.4338 38.8181 77.9684 40.2327 77.9682H53.681C54.1517 78.7004 54.6407 79.4265 55.1542 80.1403C59.5357 86.2436 65.2461 91.2572 71.8483 94.7975L75.0026 96.4835L78.1568 94.7975C84.7624 91.2542 90.475 86.2363 94.8571 80.128C95.3644 79.4142 95.8535 78.6943 96.3242 77.962H109.393C110.8 77.9561 112.17 78.4109 113.297 79.2579C114.424 80.1049 115.247 81.2979 115.641 82.657L117.432 88.8103L118.942 94.0222Z" fill="url(#paint3_linear)" />
	<path d="M75.0025 29C72.0704 29 69.1669 29.5815 66.4581 30.7112C63.7492 31.8409 61.2879 33.4967 59.2149 35.5841C57.1418 37.6714 55.4975 40.1494 54.376 42.8766C53.2545 45.6037 52.6776 48.5265 52.6784 51.4781C52.6785 59.1602 54.7572 66.6971 58.6913 73.2798C62.6255 79.8624 68.2665 85.2421 75.0087 88.8411C81.7475 85.2386 87.3854 79.858 91.3181 73.276C95.2508 66.694 97.33 59.1588 97.3328 51.4781C97.3336 48.526 96.7565 45.6027 95.6346 42.8751C94.5127 40.1476 92.8679 37.6693 90.7942 35.5819C88.7205 33.4944 86.2585 31.8387 83.5489 30.7094C80.8393 29.5801 77.9352 28.9992 75.0025 29ZM75.0025 57.4837C73.8208 57.485 72.6653 57.1333 71.6822 56.4731C70.6992 55.813 69.9327 54.8742 69.48 53.7754C69.0272 52.6766 68.9084 51.4674 69.1386 50.3006C69.3689 49.1339 69.9378 48.0621 70.7734 47.221C71.609 46.3798 72.6737 45.8071 73.8328 45.5754C74.9919 45.3436 76.1932 45.4632 77.2847 45.919C78.3763 46.3747 79.3089 47.1462 79.9647 48.1358C80.6205 49.1254 80.9699 50.2886 80.9687 51.4781C80.9671 53.0704 80.338 54.597 79.2194 55.7229C78.1009 56.8489 76.5844 57.4821 75.0025 57.4837Z" fill="url(#paint4_linear)" />
	<defs>
		<linearGradient id="paint0_linear" x1="15.1456" y1="108.206" x2="103.791" y2="112.827" gradientUnits="userSpaceOnUse">
			<stop offset="0.01" stop-color="#EE0B89" />
			<stop offset="1" stop-color="#FD6F67" />
		</linearGradient>
		<linearGradient id="paint1_linear" x1="981.884" y1="3256.09" x2="8159.19" y2="4243.63" gradientUnits="userSpaceOnUse">
			<stop offset="0.01" stop-color="#EE0B89" />
			<stop offset="1" stop-color="#FD6F67" />
		</linearGradient>
		<linearGradient id="paint2_linear" x1="445.345" y1="3558.38" x2="3061.69" y2="3672.44" gradientUnits="userSpaceOnUse">
			<stop offset="0.01" stop-color="#EE0B89" />
			<stop offset="1" stop-color="#FD6F67" />
		</linearGradient>
		<linearGradient id="paint3_linear" x1="1794.93" y1="3288.01" x2="13962.3" y2="5497.05" gradientUnits="userSpaceOnUse">
			<stop offset="0.01" stop-color="#EE0B89" />
			<stop offset="1" stop-color="#FD6F67" />
		</linearGradient>
		<linearGradient id="paint4_linear" x1="1082.41" y1="4682.24" x2="7565.62" y2="4936.13" gradientUnits="userSpaceOnUse">
			<stop offset="0.01" stop-color="#EE0B89" />
			<stop offset="1" stop-color="#FD6F67" />
		</linearGradient>
	</defs>
</svg>
