<svg width="151" height="152" viewBox="0 0 151 152" fill="none"
  xmlns="http://www.w3.org/2000/svg">
  <path opacity="0.4" d="M75.5 152C117.197 152 151 117.974 151 76C151 34.0264 117.197 0 75.5 0C33.8025 0 0 34.0264 0 76C0 117.974 33.8025 152 75.5 152Z" fill="black" />
  <g clip-path="url(#clip0)">
    <path d="M92.5131 63.1017C92.5191 63.1607 92.5191 63.2202 92.5131 63.2792C92.5131 63.4567 92.5131 63.6342 92.5131 63.8116C92.5131 63.9891 92.5131 64.1666 92.5131 64.338C92.5131 64.5093 92.5131 64.6807 92.4702 64.846C92.4274 65.0112 92.4335 65.207 92.4029 65.3907C92.3723 65.5743 92.36 65.6477 92.3356 65.7823C92.3111 65.917 92.3356 65.9721 92.2927 66.0639L92.2193 66.3944C92.1336 66.7983 92.0357 67.1839 91.9255 67.5694C91.9307 67.5998 91.9307 67.6309 91.9255 67.6612C91.9116 67.741 91.889 67.819 91.8582 67.8938C91.7051 68.3834 91.5277 68.8608 91.3379 69.3259C91.2339 69.5524 91.1298 69.785 91.0197 70.0114C90.9095 70.2378 90.7993 70.452 90.683 70.6724C90.5667 70.8927 90.4749 71.0457 90.3648 71.2232C90.2546 71.4007 90.1077 71.6577 89.9731 71.8352L89.869 71.9882C89.7711 72.1412 89.6609 72.2881 89.5446 72.4411L89.312 72.7471C89.1101 73.0042 88.9081 73.2612 88.7 73.506C88.5964 73.6361 88.486 73.7607 88.3695 73.8794C88.2593 74.0079 88.1369 74.1242 88.0206 74.2404C87.886 74.3873 87.7391 74.522 87.5983 74.6566L87.3168 74.9137C87.1944 75.0238 87.0719 75.134 86.9434 75.238C86.8149 75.3421 86.6864 75.4522 86.5517 75.5563C86.3069 75.7521 86.0559 75.9419 85.7928 76.1193C85.7928 76.1193 85.756 76.1561 85.7377 76.1622C85.4806 76.3397 85.2113 76.5172 84.942 76.6824H84.9114L84.5258 76.915C84.3973 76.9823 84.2749 77.0557 84.1464 77.1169C84.0782 77.1597 84.0065 77.1965 83.9321 77.2271L83.8648 77.2577C83.669 77.3679 83.467 77.4658 83.2528 77.5515L83.063 77.6372H83.0079L82.7019 77.7657L82.3408 77.9064C82.1878 77.9676 82.0409 78.0227 81.8879 78.0717C81.437 78.2361 80.9773 78.3751 80.5108 78.4879L79.8559 78.6409L79.2806 78.7388L78.8583 78.8061H78.6747C78.4133 78.8484 78.1496 78.8749 77.8851 78.8857C77.677 78.8857 77.4689 78.9224 77.2731 78.9285C77.0833 78.9285 76.8875 78.9285 76.661 78.9285C76.0979 78.9285 75.541 78.9285 74.9962 78.8489L74.3475 78.7694H74.2373C73.9986 78.7265 73.7538 78.6898 73.5212 78.6409H73.4355C73.1785 78.5858 72.9275 78.5307 72.6766 78.4573C72.4256 78.3838 72.2359 78.341 72.0156 78.2675L71.8197 78.2125L71.3178 78.0411C71.0975 77.9676 70.8894 77.882 70.7058 77.7963C70.4001 77.7498 70.0976 77.6843 69.8 77.6004L69.243 77.3495L69.0227 77.2332C68.7656 77.0986 68.5147 76.9578 68.2698 76.8048C68.0005 76.6396 67.7374 76.4621 67.4742 76.2846C67.447 76.2641 67.4184 76.2457 67.3885 76.2295L67.0029 75.9419C66.905 75.8738 66.811 75.8002 66.7214 75.7215C66.7214 75.7215 66.6785 75.7215 66.6663 75.6787C66.4092 75.489 66.1766 75.2931 65.9379 75.0667C65.7054 74.8586 65.4789 74.6444 65.2647 74.4547L65.1912 74.3812L65.1178 74.2894L65.0015 74.1609C64.8528 74.0133 64.7118 73.858 64.5792 73.6958L64.4445 73.5489V73.5121C64.3158 73.3723 64.1952 73.2252 64.0834 73.0715C64.0467 73.0715 64.0345 73.0164 64.01 72.9919C63.8509 72.7961 63.704 72.5941 63.5632 72.3799C63.4224 72.1657 63.3245 72.0494 63.2143 71.8842L62.8899 71.3823C62.7553 71.162 62.6329 70.9417 62.5044 70.7091C62.3758 70.4765 62.2901 70.3174 62.1983 70.0971C62.1065 69.8768 62.0025 69.6931 61.9107 69.4851C61.8556 69.381 61.8189 69.2709 61.7699 69.1607C61.7209 69.0505 61.7699 69.1117 61.7699 69.0872C61.7429 69.0236 61.7204 68.9582 61.7026 68.8914C61.5924 68.6344 61.4945 68.3589 61.4088 68.0897C61.3537 67.9305 61.3047 67.7653 61.2558 67.6062C61.2068 67.447 61.164 67.2879 61.1272 67.1165C61.0905 66.9452 61.0477 66.7983 61.0048 66.6331C60.962 66.4678 60.9253 66.3087 60.8947 66.1434C60.8641 65.9782 60.8335 65.8007 60.809 65.6293L60.6804 65.1091C60.6192 64.797 60.6192 64.4481 60.6192 64.1054C60.6192 63.9279 60.6192 63.7566 60.6192 63.5852C60.6192 63.4138 60.6192 63.2669 60.6192 63.1017C60.6192 58.8636 62.3029 54.7991 65.2998 51.8023C68.2968 48.8055 72.3615 47.1219 76.5998 47.1219C80.8381 47.1219 84.9028 48.8055 87.8998 51.8023C90.8967 54.7991 92.5804 58.8636 92.5804 63.1017H92.5131Z" fill="url(#paint0_linear)" />
    <path d="M120.747 44.9859C120.743 47.5791 120.109 50.1324 118.899 52.4262C117.689 54.7199 115.94 56.6854 113.802 58.1534C111.665 59.6215 109.202 60.5481 106.627 60.8535C104.052 61.159 101.441 60.8342 99.0191 59.907C98.5566 56.6789 97.4064 53.5878 95.6462 50.8425C93.886 48.0973 91.5569 45.762 88.8163 43.9945C89.0732 39.8497 90.9336 35.9677 94.0034 33.1708C97.0732 30.3739 101.111 28.8819 105.262 29.0108C109.413 29.1397 113.351 30.8794 116.241 33.8613C119.132 36.8432 120.748 40.8332 120.747 44.9859Z" fill="url(#paint1_linear)" />
    <path d="M133 84.0083V100.147C126.076 102.643 118.841 104.17 111.499 104.682V102.124C111.509 96.8929 110.059 91.7626 107.313 87.3103C104.566 82.8579 100.632 79.26 95.9528 76.9211V74.9014L96.0813 74.6872C96.2221 74.4485 96.369 74.1976 96.5158 73.9222C96.6627 73.6468 96.8157 73.3102 96.9565 73.0654V73.0225V72.9797C97.0973 72.692 97.2258 72.4105 97.3543 72.1229L97.3972 72.0127L97.4462 71.9025C97.7155 71.2477 97.9236 70.6785 98.101 70.1032C98.1561 69.9502 98.2051 69.7911 98.2541 69.6381C98.303 69.4851 98.303 69.4728 98.3214 69.3933C98.456 68.9159 98.5784 68.4201 98.6947 67.8938C98.6947 67.802 98.7376 67.698 98.7559 67.6V67.5205L98.9089 66.8228V66.6575C98.9089 66.5759 98.9212 66.4902 98.9457 66.4005C98.9946 66.0945 99.0314 65.7885 99.062 65.4825C99.0926 65.1764 99.0987 65.0479 99.1109 64.8337C99.1232 64.6195 99.1109 64.3686 99.1538 64.1299C99.1966 63.8912 99.1538 63.7688 99.1538 63.5913C99.1538 63.4138 99.1538 63.2608 99.1538 63.1262C99.1538 62.9915 99.1538 62.7712 99.1538 62.5937H111.474C114.296 62.58 117.092 63.1238 119.703 64.1937C122.313 65.2637 124.687 66.8388 126.687 68.8286C128.687 70.8184 130.274 73.1837 131.358 75.7887C132.441 78.3937 132.999 81.187 133 84.0083Z" fill="url(#paint2_linear)" />
    <path d="M63.2082 44.7105C58.3637 48.22 55.098 53.4977 54.1193 59.399C51.0025 60.8891 47.4868 61.3294 44.0987 60.6541C40.7106 59.9788 37.6324 58.2242 35.3251 55.653C33.0178 53.0818 31.6055 49.8324 31.2998 46.3914C30.994 42.9504 31.8112 39.5029 33.629 36.5652C35.4468 33.6275 38.1673 31.3577 41.3833 30.0956C44.5992 28.8336 48.1375 28.6472 51.4682 29.5644C54.799 30.4816 57.743 32.453 59.8594 35.1834C61.9758 37.9139 63.1507 41.2564 63.2082 44.7105Z" fill="url(#paint3_linear)" />
    <path d="M58.1711 76.4315C53.2201 78.6573 49.0197 82.2692 46.0773 86.8307C43.135 91.3923 41.5767 96.7082 41.5907 102.136V104.584C33.8422 103.933 26.2311 102.149 19 99.2904L19 83.9899C19 78.3088 21.2569 72.8604 25.2743 68.8432C29.2916 64.8261 34.7403 62.5692 40.4217 62.5692H53.8255C53.8255 62.7467 53.8255 62.9242 53.8255 63.1017C53.8255 63.2792 53.8255 63.628 53.8255 64.0136V64.4114V64.5644C53.8561 65.0173 53.8928 65.4763 53.9479 65.917V65.9782V66.0455L53.9846 66.3209V66.5596C54.0214 66.8105 54.0642 67.0553 54.1071 67.3063V67.3675V67.4226C54.1499 67.6612 54.205 67.8999 54.2601 68.1386V68.2059C54.309 68.4018 54.3458 68.5732 54.3886 68.7384C54.4682 69.075 54.5538 69.3504 54.6151 69.5585V69.6319C54.6763 69.8339 54.7375 70.042 54.8109 70.244C54.9027 70.5439 55.0312 70.9172 55.1965 71.3211C55.1965 71.3578 55.2271 71.4007 55.2393 71.4435L55.2761 71.5476V71.6088C55.2761 71.6822 55.3373 71.7557 55.374 71.8291C55.4107 71.9025 55.478 72.08 55.5576 72.2514C55.6372 72.4227 55.7841 72.7594 55.9126 73.0225C56.0411 73.2857 56.2186 73.6346 56.4022 73.9712C56.5858 74.3078 56.7511 74.5832 56.9164 74.8647C57.0571 75.0912 57.2101 75.3298 57.3631 75.5563C57.5162 75.7827 57.6508 75.9908 57.8405 76.2479L58.1711 76.4315Z" fill="url(#paint4_linear)" />
    <path d="M104.766 102.124V118.263C86.4672 124.862 66.3891 124.557 48.2987 117.406V102.106C48.2983 97.5263 49.7656 93.0673 52.4852 89.3829C55.2049 85.6985 59.0338 82.9826 63.4102 81.6336C64.7199 81.2245 66.0668 80.9457 67.4313 80.8013C67.6761 80.7707 67.9148 80.7523 68.1658 80.734C68.6799 80.6972 69.2063 80.6789 69.7388 80.6789H83.3262C83.7302 80.6789 84.128 80.6789 84.5503 80.6789C84.9175 80.6789 85.2848 80.7278 85.6459 80.7707C87.0073 80.9259 88.3501 81.2149 89.6548 81.6336C94.0342 82.9835 97.8652 85.7022 100.585 89.3903C103.305 93.0784 104.771 97.5415 104.766 102.124Z" fill="url(#paint5_linear)" />
  </g>
  <defs>
    <linearGradient id="paint0_linear" x1="60.5519" y1="62.8936" x2="92.513" y2="63.3037" gradientUnits="userSpaceOnUse">
      <stop offset="0.01" stop-color="#EE0B89" />
      <stop offset="1" stop-color="#FD6F67" />
    </linearGradient>
    <linearGradient id="paint1_linear" x1="1247.89" y1="821.338" x2="4634.77" y2="864.402" gradientUnits="userSpaceOnUse">
      <stop offset="0.01" stop-color="#EE0B89" />
      <stop offset="1" stop-color="#FD6F67" />
    </linearGradient>
    <linearGradient id="paint2_linear" x1="2161.34" y1="3768.09" x2="5564.62" y2="3806.25" gradientUnits="userSpaceOnUse">
      <stop offset="0.01" stop-color="#EE0B89" />
      <stop offset="1" stop-color="#FD6F67" />
    </linearGradient>
    <linearGradient id="paint3_linear" x1="1188.59" y1="859.94" x2="4580.74" y2="903.1" gradientUnits="userSpaceOnUse">
      <stop offset="0.01" stop-color="#EE0B89" />
      <stop offset="1" stop-color="#FD6F67" />
    </linearGradient>
    <linearGradient id="paint4_linear" x1="1253.28" y1="3801.07" x2="4953.85" y2="3845.26" gradientUnits="userSpaceOnUse">
      <stop offset="0.01" stop-color="#EE0B89" />
      <stop offset="1" stop-color="#FD6F67" />
    </linearGradient>
    <linearGradient id="paint5_linear" x1="2751.96" y1="5089.37" x2="7979.63" y2="5178.26" gradientUnits="userSpaceOnUse">
      <stop offset="0.01" stop-color="#EE0B89" />
      <stop offset="1" stop-color="#FD6F67" />
    </linearGradient>
    <clipPath id="clip0">
      <rect width="114" height="94" fill="white" transform="translate(19 29)" />
    </clipPath>
  </defs>
</svg>
