<svg width="12" height="12" viewBox="0 0 12 12" fill="none" xmlns="http://www.w3.org/2000/svg">
<path d="M10.5 5.9872H10.488L9.54063 3.85547C9.45212 3.6567 9.30791 3.48783 9.12545 3.36928C8.94299 3.25074 8.73009 3.1876 8.5125 3.1875H3.4875C3.26993 3.18762 3.05705 3.25076 2.8746 3.36931C2.69216 3.48785 2.54797 3.65671 2.45946 3.85547L1.51198 5.9872H1.5C1.30116 5.98743 1.11052 6.06652 0.969917 6.20712C0.829313 6.34772 0.750223 6.53836 0.75 6.7372V9.3622C0.750223 9.56105 0.829313 9.75168 0.969917 9.89229C1.11052 10.0329 1.30116 10.112 1.5 10.1122V11.0625C1.50017 11.2116 1.55949 11.3546 1.66494 11.4601C1.7704 11.5655 1.91337 11.6248 2.0625 11.625H3.375C3.52413 11.6248 3.6671 11.5655 3.77256 11.4601C3.87801 11.3546 3.93733 11.2116 3.9375 11.0625V10.1122H8.0625V11.0625C8.06267 11.2116 8.12199 11.3546 8.22744 11.4601C8.3329 11.5655 8.47587 11.6248 8.625 11.625H9.9375C10.0866 11.6248 10.2296 11.5655 10.3351 11.4601C10.4405 11.3546 10.4998 11.2116 10.5 11.0625V10.1122C10.6988 10.112 10.8895 10.0329 11.0301 9.89229C11.1707 9.75168 11.2498 9.56105 11.25 9.3622V6.7372C11.2498 6.53836 11.1707 6.34772 11.0301 6.20712C10.8895 6.06652 10.6988 5.98743 10.5 5.9872ZM3.14473 4.16016C3.17423 4.09389 3.22231 4.03759 3.28314 3.99807C3.34398 3.95856 3.41496 3.93752 3.4875 3.9375H8.5125C8.58502 3.93754 8.65599 3.95859 8.7168 3.9981C8.77761 4.03762 8.82568 4.0939 8.85518 4.16016L9.6672 5.98718H2.33271L3.14473 4.16016ZM3.1875 10.875H2.25V10.1122H3.1875V10.875ZM9.75 10.875H8.8125V10.1122H9.75V10.875ZM10.5 9.3622H1.5V6.7372H10.5V9.3622Z" fill="#19B400"/>
<path d="M2.25 7.6875H4.125V8.4375H2.25V7.6875Z" fill="#19B400"/>
<path d="M7.875 7.6875H9.75V8.4375H7.875V7.6875Z" fill="#19B400"/>
<path d="M6 0.345886L0.375 2.60439V3.41259L6 1.15411L11.625 3.41259V2.60439L6 0.345886Z" fill="#19B400"/>
</svg>
