<svg width="19" height="19" viewBox="0 0 19 19" fill="none" xmlns="http://www.w3.org/2000/svg">
<path fill-rule="evenodd" clip-rule="evenodd" d="M9.5 17.8125C11.7046 17.8125 13.8189 16.9367 15.3778 15.3778C16.9367 13.8189 17.8125 11.7046 17.8125 9.5C17.8125 7.29539 16.9367 5.18107 15.3778 3.62217C13.8189 2.06328 11.7046 1.1875 9.5 1.1875C7.29539 1.1875 5.18107 2.06328 3.62217 3.62217C2.06328 5.18107 1.1875 7.29539 1.1875 9.5C1.1875 11.7046 2.06328 13.8189 3.62217 15.3778C5.18107 16.9367 7.29539 17.8125 9.5 17.8125ZM9.5 19C12.0196 19 14.4359 17.9991 16.2175 16.2175C17.9991 14.4359 19 12.0196 19 9.5C19 6.98044 17.9991 4.56408 16.2175 2.78249C14.4359 1.00089 12.0196 0 9.5 0C6.98044 0 4.56408 1.00089 2.78249 2.78249C1.00089 4.56408 0 6.98044 0 9.5C0 12.0196 1.00089 14.4359 2.78249 16.2175C4.56408 17.9991 6.98044 19 9.5 19Z" fill="#19B400"/>
<path d="M10.6043 7.82324L7.88494 8.16405L7.78757 8.61531L8.32194 8.71387C8.67107 8.79699 8.73994 8.92287 8.66394 9.27081L7.78757 13.3891C7.55719 14.4542 7.91226 14.9554 8.74707 14.9554C9.39426 14.9554 10.1459 14.6561 10.4868 14.2452L10.5913 13.7512C10.3538 13.9602 10.007 14.0434 9.77663 14.0434C9.45007 14.0434 9.33132 13.8142 9.41563 13.4104L10.6043 7.82324Z" fill="#19B400"/>
<path d="M9.5 6.53125C10.1558 6.53125 10.6875 5.99959 10.6875 5.34375C10.6875 4.68791 10.1558 4.15625 9.5 4.15625C8.84416 4.15625 8.3125 4.68791 8.3125 5.34375C8.3125 5.99959 8.84416 6.53125 9.5 6.53125Z" fill="#19B400"/>
</svg>
