<svg width="37" height="36" viewBox="0 0 37 36" fill="none" xmlns="http://www.w3.org/2000/svg">
<path d="M6.09896 31.3191C5.96702 31.1924 5.78112 31.1175 5.59521 31.1175C5.40931 31.1175 5.2234 31.1924 5.08547 31.3191C4.95353 31.4458 4.87558 31.6244 4.87558 31.8087C4.87558 31.993 4.95353 32.1657 5.08547 32.2924C5.2174 32.4191 5.40331 32.494 5.59521 32.494C5.78712 32.494 5.96702 32.4191 6.09896 32.2924C6.23089 32.1657 6.30886 31.9872 6.30886 31.8087C6.30886 31.6301 6.23089 31.4458 6.09896 31.3191ZM33.6552 12.5956C33.5233 12.4689 33.3373 12.394 33.1454 12.394C32.9595 12.394 32.7736 12.4689 32.6357 12.5956C32.5038 12.7223 32.4258 12.9009 32.4258 13.0851C32.4258 13.2694 32.5038 13.4422 32.6357 13.5689C32.7676 13.6956 32.9535 13.7705 33.1454 13.7705C33.3373 13.7705 33.5172 13.6956 33.6552 13.5689C33.7871 13.4422 33.8651 13.2637 33.8651 13.0851C33.8651 12.9066 33.7931 12.7223 33.6552 12.5956ZM36.4918 0.201576C36.3598 0.0748709 36.1739 0 35.982 0H18.3508C17.955 0 17.6312 0.311003 17.6312 0.691117V2.6608L10.8366 4.41163C10.4528 4.50954 10.2249 4.88965 10.3269 5.25249L13.8531 17.8711L10.8066 20.7969C10.4168 20.2555 9.76912 19.8984 9.0315 19.8984H2.15294C0.96553 19.8984 0 20.8199 0 21.9602V33.1794C0 34.3197 0.96553 35.247 2.15294 35.247H9.0315C10.039 35.247 10.8846 34.5789 11.1185 33.6804L11.97 34.3946C12.6297 34.9475 13.4693 35.247 14.3448 35.247H35.982C36.3778 35.247 36.7017 34.936 36.7017 34.5559V0.691117C36.7017 0.506819 36.6237 0.328281 36.4918 0.201576ZM9.75114 33.1794C9.75114 33.5595 9.42729 33.8705 9.0315 33.8705H2.15294C1.75713 33.8705 1.4333 33.5595 1.4333 33.1794V21.9602C1.4333 21.5801 1.75713 21.2691 2.15294 21.2691H4.87558V29.1997C4.87558 29.5798 5.19941 29.8908 5.59521 29.8908C5.99102 29.8908 6.31485 29.5798 6.31485 29.1997V21.2749H9.03749C9.4333 21.2749 9.75713 21.5859 9.75713 21.966L9.751 33.1794H9.75114ZM11.9041 5.55773L17.6372 4.08335V6.63472L17.1574 6.75567C16.9715 6.80174 16.8156 6.91693 16.7197 7.07819C16.6237 7.23369 16.5997 7.42375 16.6477 7.60229C16.9235 8.58713 16.3119 9.60653 15.2804 9.87145C15.0945 9.91753 14.9385 10.0327 14.8426 10.194C14.7467 10.3552 14.7226 10.5395 14.7706 10.7181L17.5712 20.6529H16.1319L15.3883 17.8654C15.3643 17.779 15.3224 17.6926 15.2684 17.6235L11.9041 5.55773ZM17.6312 9.79082V15.602L16.3238 10.9542C16.8756 10.6778 17.3194 10.2746 17.6312 9.79082ZM27.934 33.8705H14.3448C13.8171 33.8705 13.3074 33.6862 12.9115 33.3579L11.1844 31.9066V22.3864L14.3149 19.3801L14.8846 21.511C14.9685 21.8163 15.2504 22.0294 15.5802 22.0294H29.6732C30.2249 22.0294 30.6747 22.4613 30.6747 22.9912C30.6747 23.521 30.2249 23.953 29.6732 23.953H22.4468C22.051 23.953 21.7272 24.264 21.7272 24.6441C21.7272 25.0242 22.051 25.3352 22.4468 25.3352H31.9101C32.4618 25.3352 32.9115 25.7671 32.9115 26.297C32.9115 26.8269 32.4618 27.2588 31.9101 27.2588H22.4468C22.051 27.2588 21.7272 27.5698 21.7272 27.9499C21.7272 28.33 22.051 28.641 22.4468 28.641H30.3808C30.9325 28.641 31.3823 29.073 31.3823 29.6028C31.3823 30.1327 30.9325 30.5647 30.3808 30.5647H22.4468C22.051 30.5647 21.7272 30.8757 21.7272 31.2558C21.7272 31.6359 22.051 31.9469 22.4468 31.9469H27.934C28.4858 31.9469 28.9356 32.3788 28.9356 32.9087C28.9356 33.4385 28.4858 33.8705 27.934 33.8705ZM35.2684 33.8705H30.1529C30.2909 33.5768 30.3688 33.2485 30.3688 32.9087C30.3688 32.5689 30.2909 32.2406 30.1529 31.9469H30.3808C31.7242 31.9469 32.8156 30.8987 32.8156 29.6086C32.8156 29.2342 32.7197 28.8772 32.5577 28.5604C33.5892 28.2897 34.3508 27.3798 34.3508 26.3028C34.3508 25.7787 34.1709 25.3006 33.8711 24.909V16.1779C33.8711 15.7978 33.5472 15.4868 33.1515 15.4868C32.7556 15.4868 32.4318 15.7978 32.4318 16.1779V24.0106C32.2639 23.976 32.09 23.953 31.9101 23.953H31.8861C32.024 23.6592 32.102 23.331 32.102 22.9912C32.102 21.7011 31.0105 20.6529 29.6672 20.6529H28.5158C29.7391 20.1518 30.5967 18.9827 30.5967 17.6235C30.5967 15.8093 29.0555 14.3292 27.1664 14.3292C25.2774 14.3292 23.7361 15.8093 23.7361 17.6235C23.7361 18.9827 24.5937 20.1518 25.8171 20.6529H21.9011V7.56197C23.1844 7.29128 24.1919 6.32372 24.4738 5.09123H29.8651C30.147 6.32372 31.1544 7.29128 32.4378 7.56197V9.70444C32.4378 10.0845 32.7616 10.3956 33.1574 10.3956C33.5532 10.3956 33.8771 10.0845 33.8771 9.70444V6.95149C33.8771 6.57137 33.5532 6.26037 33.1574 6.26037C32.096 6.26037 31.2264 5.43103 31.2264 4.40587C31.2264 4.02576 30.9026 3.71475 30.5068 3.71475H23.8321C23.4363 3.71475 23.1124 4.02576 23.1124 4.40587C23.1124 5.42527 22.2489 6.26037 21.1814 6.26037C20.7856 6.26037 20.4618 6.57137 20.4618 6.95149V20.6529H19.0705V1.37647H35.2684V33.8705ZM27.1664 19.5413C26.063 19.5413 25.1694 18.6832 25.1694 17.6235C25.1694 16.5638 26.063 15.7056 27.1664 15.7056C28.2699 15.7056 29.1634 16.5638 29.1634 17.6235C29.1634 18.6832 28.2699 19.5413 27.1664 19.5413Z" fill="white"/>
</svg>
