<svg width="151" height="152" viewBox="0 0 151 152" fill="none" xmlns="http://www.w3.org/2000/svg">
	<path opacity="0.4" d="M75.5 152C117.197 152 151 117.974 151 76C151 34.0264 117.197 0 75.5 0C33.8025 0 0 34.0264 0 76C0 117.974 33.8025 152 75.5 152Z" fill="black" />
	<g clip-path="url(#clip0)">
		<path d="M118.774 80.0652H117.178V112.91C117.182 116.362 115.921 119.695 113.635 122.278C111.35 124.861 108.198 126.514 104.777 126.925H89.6938V96.5851C89.6938 95.0641 89.0907 93.6054 88.0171 92.5299C86.9435 91.4544 85.4873 90.8501 83.969 90.8501H69.9385C68.4213 90.8519 66.9669 91.4569 65.8947 92.5322C64.8226 93.6076 64.2203 95.0652 64.2203 96.5851V126.898H57.1883V126.999H47.9039C44.1703 126.999 40.5897 125.513 37.9497 122.869C35.3096 120.224 33.8265 116.637 33.8265 112.897V80.0652H32.2176C30.5485 80.0713 28.9172 79.5672 27.5414 78.6202C26.1657 77.6733 25.111 76.3286 24.5181 74.7655C23.9251 73.2025 23.8222 71.4954 24.2229 69.8722C24.6236 68.249 25.509 66.7869 26.7609 65.6809L70.039 27.0741C71.544 25.7276 73.4913 24.9833 75.5091 24.9833C77.527 24.9833 79.4742 25.7276 80.9792 27.0741L124.271 65.6809C125.525 66.7891 126.412 68.255 126.811 69.8821C127.211 71.5091 127.105 73.2197 126.507 74.7846C125.909 76.3494 124.848 77.6938 123.465 78.6376C122.083 79.5814 120.446 80.0795 118.774 80.0652Z" fill="url(#paint0_linear)" />
		<path d="M119.083 44.2127C119.123 44.8196 118.982 45.4247 118.677 45.9511C118.373 46.4774 117.92 46.9014 117.374 47.169C116.829 47.4367 116.217 47.5361 115.615 47.4545C115.014 47.3729 114.45 47.1141 113.995 46.7108L102.559 36.5035C102.1 36.0996 101.771 35.5673 101.616 34.975C101.461 34.3828 101.487 33.7576 101.689 33.1799C101.892 32.6023 102.262 32.0985 102.753 31.7334C103.244 31.3683 103.832 31.1586 104.443 31.1311L115.168 30.6141C115.97 30.5736 116.756 30.851 117.356 31.3863C117.956 31.9216 118.321 32.6719 118.373 33.4748L119.083 44.2127Z" fill="url(#paint1_linear)" />
	</g>
	<defs>
		<linearGradient id="paint0_linear" x1="-21.0354" y1="75.7002" x2="166.584" y2="76.3761" gradientUnits="userSpaceOnUse">
			<stop offset="0.01" stop-color="#EE0B89" />
			<stop offset="1" stop-color="#FD6F67" />
		</linearGradient>
		<linearGradient id="paint1_linear" x1="-1075.55" y1="371.257" x2="3843.06" y2="389.927" gradientUnits="userSpaceOnUse">
			<stop offset="0.01" stop-color="#EE0B89" />
			<stop offset="1" stop-color="#FD6F67" />
		</linearGradient>
		<clipPath id="clip0">
			<rect width="103" height="102" fill="white" transform="translate(24 25)" />
		</clipPath>
	</defs>
</svg>
