<svg width="30" height="30" viewBox="0 0 30 30" fill="none"
  xmlns="http://www.w3.org/2000/svg">
  <path d="M1 8V4.5C1 3.57174 1.36875 2.6815 2.02513 2.02513C2.6815 1.36875 3.57174 1 4.5 1H8" stroke="url(#paint0_linear)" stroke-width="2" stroke-linecap="round" stroke-linejoin="round" />
  <path d="M1 22V25.5C1 26.4283 1.36875 27.3185 2.02513 27.9749C2.6815 28.6313 3.57174 29 4.5 29H8" stroke="url(#paint1_linear)" stroke-width="2" stroke-linecap="round" stroke-linejoin="round" />
  <path d="M22 1H25.5C26.4283 1 27.3185 1.36875 27.9749 2.02513C28.6313 2.6815 29 3.57174 29 4.5V8" stroke="url(#paint2_linear)" stroke-width="2" stroke-linecap="round" stroke-linejoin="round" />
  <path d="M22 29H25.5C26.4283 29 27.3185 28.6313 27.9749 27.9749C28.6313 27.3185 29 26.4283 29 25.5V22" stroke="url(#paint3_linear)" stroke-width="2" stroke-linecap="round" stroke-linejoin="round" />
  <path d="M15.5 6.96875C14.8923 6.96875 14.2236 7.14594 13.654 7.31722C13.0955 7.48653 12.6853 7.66109 12.6696 7.66569H12.6499L10.7625 8.30225L10.7008 8.32194C10.6178 8.34539 10.5359 8.37276 10.4554 8.40397L10.25 8.46631V8.48731C9.70138 8.72291 8.84234 9.23281 8.34294 10.292C7.66372 11.7266 7.625 13.5103 7.625 13.5103V14.8438H10.25V24.0312H20.75V14.8438H23.375V13.4696C23.375 13.4696 23.3186 12.9137 23.2109 12.2391C23.1033 11.5651 22.9931 10.8216 22.6164 10.2297C22.161 9.50277 21.5156 8.91414 20.75 8.52734V8.46566L20.4836 8.38363C20.4448 8.36591 20.4527 8.37641 20.4219 8.36328L20.2985 8.32194L18.3507 7.66569H18.3298C18.3147 7.66109 17.9045 7.48653 17.3454 7.31788C16.7764 7.14594 16.1083 6.96875 15.5 6.96875ZM15.5 8.28125C15.7848 8.28125 16.4358 8.43219 16.9562 8.58903C17.0921 8.62972 17.0842 8.63234 17.2023 8.67106C17.161 8.73209 17.1301 8.79116 17.0789 8.85547C16.7718 9.23741 16.3407 9.59375 15.5 9.59375C14.6593 9.59375 14.2282 9.23741 13.9211 8.85547C13.8699 8.79116 13.839 8.73209 13.7977 8.67106C13.9158 8.63234 13.9079 8.62972 14.0438 8.58903C14.5642 8.43219 15.2152 8.28125 15.5 8.28125ZM12.5055 9.08122C12.6033 9.26825 12.7287 9.46841 12.8953 9.67578C13.2081 10.0645 13.6051 10.3773 14.0562 10.5904C14.5074 10.8035 15.0011 10.9115 15.5 10.9062C16.7508 10.9062 17.6197 10.2782 18.1047 9.67578C18.2713 9.46841 18.3967 9.26825 18.4938 9.08122L19.4375 9.40934V22.7188H11.5625V9.40934L12.5055 9.08122ZM10.25 9.96256V13.5312H8.9375C8.94012 13.4952 9.03988 11.9057 9.53206 10.8649C9.72959 10.4475 9.99144 10.1575 10.25 9.96322V9.96256ZM20.75 10.0656C20.9908 10.2677 21.2573 10.5315 21.5086 10.9266C21.6136 11.0933 21.819 11.8289 21.9188 12.4445C22.0139 13.0259 22.0573 13.4801 22.0625 13.5312H20.75V10.0656Z" fill="url(#paint4_linear)" />
  <defs>
    <linearGradient id="paint0_linear" x1="4.5" y1="1" x2="4.5" y2="8" gradientUnits="userSpaceOnUse">
      <stop stop-color="#EE0C89" />
      <stop offset="1" stop-color="#FD6F67" />
    </linearGradient>
    <linearGradient id="paint1_linear" x1="4.5" y1="22" x2="4.5" y2="29" gradientUnits="userSpaceOnUse">
      <stop stop-color="#EE0C89" />
      <stop offset="1" stop-color="#FD6F67" />
    </linearGradient>
    <linearGradient id="paint2_linear" x1="25.5" y1="1" x2="25.5" y2="8" gradientUnits="userSpaceOnUse">
      <stop stop-color="#EE0C89" />
      <stop offset="1" stop-color="#FD6F67" />
    </linearGradient>
    <linearGradient id="paint3_linear" x1="25.5" y1="22" x2="25.5" y2="29" gradientUnits="userSpaceOnUse">
      <stop stop-color="#EE0C89" />
      <stop offset="1" stop-color="#FD6F67" />
    </linearGradient>
    <linearGradient id="paint4_linear" x1="15.5" y1="6.96875" x2="15.5" y2="24.0312" gradientUnits="userSpaceOnUse">
      <stop stop-color="#EE0C89" />
      <stop offset="1" stop-color="#FD6F67" />
    </linearGradient>
  </defs>
</svg>
