<svg width="30" height="30" viewBox="0 0 30 30" fill="none" xmlns="http://www.w3.org/2000/svg">
	<path d="M1 8V4.5C1 3.57174 1.36875 2.6815 2.02513 2.02513C2.6815 1.36875 3.57174 1 4.5 1H8" stroke="url(#paint0_linear)" stroke-width="2" stroke-linecap="round" stroke-linejoin="round" />
	<path d="M1 22V25.5C1 26.4283 1.36875 27.3185 2.02513 27.9749C2.6815 28.6313 3.57174 29 4.5 29H8" stroke="url(#paint1_linear)" stroke-width="2" stroke-linecap="round" stroke-linejoin="round" />
	<path d="M22 1H25.5C26.4283 1 27.3185 1.36875 27.9749 2.02513C28.6313 2.6815 29 3.57174 29 4.5V8" stroke="url(#paint2_linear)" stroke-width="2" stroke-linecap="round" stroke-linejoin="round" />
	<path d="M22 29H25.5C26.4283 29 27.3185 28.6313 27.9749 27.9749C28.6313 27.3185 29 26.4283 29 25.5V22" stroke="url(#paint3_linear)" stroke-width="2" stroke-linecap="round" stroke-linejoin="round" />
	<path d="M15 10.5C15.9665 10.5 16.75 9.7165 16.75 8.75C16.75 7.7835 15.9665 7 15 7C14.0335 7 13.25 7.7835 13.25 8.75C13.25 9.7165 14.0335 10.5 15 10.5Z" fill="url(#paint4_linear)" />
	<path d="M21.5 11H8.5V12.625H13L12 22.7853L13.5938 23L14.2703 17H15.7397L16.4062 23L18 22.7819L17 12.625H21.5V11Z" fill="url(#paint5_linear)" />
	<defs>
		<linearGradient id="paint0_linear" x1="4.5" y1="1" x2="4.5" y2="8" gradientUnits="userSpaceOnUse">
			<stop stop-color="#EE0C89" />
			<stop offset="1" stop-color="#FD6F67" />
		</linearGradient>
		<linearGradient id="paint1_linear" x1="4.5" y1="22" x2="4.5" y2="29" gradientUnits="userSpaceOnUse">
			<stop stop-color="#EE0C89" />
			<stop offset="1" stop-color="#FD6F67" />
		</linearGradient>
		<linearGradient id="paint2_linear" x1="25.5" y1="1" x2="25.5" y2="8" gradientUnits="userSpaceOnUse">
			<stop stop-color="#EE0C89" />
			<stop offset="1" stop-color="#FD6F67" />
		</linearGradient>
		<linearGradient id="paint3_linear" x1="25.5" y1="22" x2="25.5" y2="29" gradientUnits="userSpaceOnUse">
			<stop stop-color="#EE0C89" />
			<stop offset="1" stop-color="#FD6F67" />
		</linearGradient>
		<linearGradient id="paint4_linear" x1="15" y1="7" x2="15" y2="10.5" gradientUnits="userSpaceOnUse">
			<stop stop-color="#EE0C89" />
			<stop offset="1" stop-color="#FD6F67" />
		</linearGradient>
		<linearGradient id="paint5_linear" x1="15" y1="0.500001" x2="15" y2="29.5" gradientUnits="userSpaceOnUse">
			<stop stop-color="#EE0C89" />
			<stop offset="1" stop-color="#FD6F67" />
		</linearGradient>
	</defs>
</svg>
