<svg xmlns="http://www.w3.org/2000/svg" xmlns:xlink="http://www.w3.org/1999/xlink" width="27.996" height="44.999" viewBox="0 0 23 36.969">
	<defs>
		<style>
			.active {
			fill-rule: evenodd;
			fill: url(#linear-gradient);
			}
			
			.nonActive {
			fill: rgba(255, 255, 255, 0.3);
			}
		</style>
		<linearGradient id="linear-gradient" x1="430.5" y1="984.969" x2="430.5" y2="948" gradientUnits="userSpaceOnUse">
			<stop offset="-1.485" stop-color="#cc1385" />
			<stop offset="2.485" stop-color="#df6f67" />
		</linearGradient>
	</defs>
	<path id="micro" class="active nonActive" d="M437.8,955.249v10.012q0,0.251-.018.5a7.312,7.312,0,0,1-14.566,0q-0.018-.247-0.018-0.5V955.15A7.3,7.3,0,0,1,437.8,955.249Zm2.679,10.51a1.5,1.5,0,0,1,1.5,1.764,11.261,11.261,0,0,1-.721,2.349,11.409,11.409,0,0,1-2.5,3.639,11.648,11.648,0,0,1-3.71,2.453,11.806,11.806,0,0,1-2.191.669,0.936,0.936,0,0,0-.753.916v3.281a0.946,0.946,0,0,0,.955.937h3.418a1.625,1.625,0,0,1,1.64,1.609h0a1.625,1.625,0,0,1-1.64,1.608H424.442a1.624,1.624,0,0,1-1.64-1.608h0a1.624,1.624,0,0,1,1.64-1.609h3.417a0.946,0.946,0,0,0,.956-0.937v-3.3a0.938,0.938,0,0,0-.749-0.915,11.743,11.743,0,0,1-5.827-3.106,11.409,11.409,0,0,1-2.5-3.639,11.2,11.2,0,0,1-.721-2.349,1.5,1.5,0,0,1,1.5-1.764H420.6a1.506,1.506,0,0,1,1.493,1.2,8.316,8.316,0,0,0,2.359,4.384,8.61,8.61,0,0,0,6.046,2.456,8.51,8.51,0,0,0,8.4-6.81,1.523,1.523,0,0,1,1.5-1.232h0.082Z" transform="translate(-419 -948)" />
</svg>
