<svg width="24" height="36" viewBox="0 0 24 36" fill="none" xmlns="http://www.w3.org/2000/svg">
<path d="M17.6672 23.8867L17.0735 18.2081H6.17691L5.58321 23.8867C5.51125 24.5375 5.82909 25.1711 6.39281 25.5339L6.54873 25.6318C9.62519 27.5957 13.6252 27.5957 16.7017 25.6318L16.8576 25.5339C17.4213 25.1711 17.7391 24.5375 17.6672 23.8867ZM16.1739 24.5548L16.018 24.6527C13.3553 26.3575 9.88306 26.3575 7.22039 24.6527L7.06447 24.5548C6.87856 24.4339 6.77062 24.2208 6.79461 24.0077L7.27437 19.3887H15.958L16.4378 24.0077C16.4678 24.2208 16.3658 24.4339 16.1739 24.5548ZM16.6717 6.13654L15.4843 5.50302C13.0855 4.21293 10.1589 4.21293 7.76012 5.50302L6.57272 6.13654C5.89506 6.49938 5.52924 7.23081 5.65518 7.968L6.2069 11.1644H17.0315L17.5892 7.968C17.7152 7.23081 17.3493 6.49938 16.6717 6.13654ZM16.3838 7.77795L16 9.99528H7.24438L6.86057 7.77795C6.8186 7.53029 6.93853 7.2884 7.16642 7.16746L8.35383 6.53393C10.3868 5.44543 12.8576 5.44543 14.8906 6.53393L16.078 7.16746C16.2999 7.2884 16.4258 7.53029 16.3838 7.77795ZM5.6012 27.9413L6.62069 27.2905L9.06747 30.8152L8.04798 31.466L5.6012 27.9413ZM14.1769 30.8267L16.6237 27.302L17.6432 27.9528L15.1964 31.4775L14.1769 30.8267ZM22.9805 20.0798C22.8126 19.9704 22.5967 19.9474 22.4108 20.0222L19.8741 20.9956L19.5802 17.6264L20.4558 7.57637C20.6957 4.94437 19.2264 2.44483 16.7616 1.27569L16.2759 1.04531C13.3433 -0.348438 9.90705 -0.348438 6.97452 1.04531L6.49476 1.27569C4.02999 2.44483 2.56072 4.94437 2.7946 7.57637L3.67017 17.6321L3.37631 21.0013L0.839581 20.028C0.527736 19.907 0.167915 20.051 0.0419794 20.3505C0.0119948 20.4196 0 20.4945 0 20.5694V22.1244C0 22.8443 0.455772 23.4951 1.15142 23.76L3.07047 24.4972L2.8126 27.4229C2.57272 30.1874 4.2099 32.7906 6.86657 33.8791L8.97152 34.743C10.6627 35.4341 12.5817 35.4341 14.2729 34.743L16.3778 33.8791C19.0405 32.7964 20.6777 30.1932 20.4378 27.4229L20.1799 24.4972L22.099 23.76C22.7946 23.4951 23.2564 22.8443 23.2504 22.1244V20.5694C23.2444 20.3736 23.1484 20.1893 22.9805 20.0798ZM3.05847 23.2244L1.6072 22.6658C1.37331 22.5794 1.22339 22.3605 1.22339 22.1186V21.4333L3.05847 22.1359V23.2244ZM19.2324 7.48422L18.3508 17.6321L19.2144 27.5209C19.4123 29.7843 18.069 31.9094 15.8921 32.7964L13.7871 33.6603C12.4018 34.2247 10.8366 34.2247 9.44528 33.6603L7.34033 32.7964C5.16342 31.9094 3.82609 29.7843 4.02399 27.5209L4.89356 17.6321L4.012 7.48422C3.82009 5.336 5.01949 3.29144 7.03449 2.3354L7.52024 2.10503C10.105 0.878294 13.1454 0.878294 15.7301 2.10503L16.2099 2.3354C18.2249 3.29144 19.4243 5.33024 19.2324 7.48422ZM22.021 22.1244C22.021 22.3663 21.8711 22.5794 21.6372 22.6715L20.1859 23.2302V22.1474L22.021 21.4448V22.1244Z" fill="white"/>
</svg>
