<svg width="12" height="14" viewBox="0 0 12 14" fill="none" xmlns="http://www.w3.org/2000/svg">
<path d="M11.2 7C11.2 7.18565 11.1263 7.3637 10.995 7.49497C10.8637 7.62625 10.6857 7.7 10.5 7.7H5.187L6.797 9.303C6.86261 9.36807 6.91469 9.44549 6.95022 9.5308C6.98576 9.6161 7.00406 9.70759 7.00406 9.8C7.00406 9.89241 6.98576 9.9839 6.95022 10.0692C6.91469 10.1545 6.86261 10.2319 6.797 10.297C6.73193 10.3626 6.65451 10.4147 6.5692 10.4502C6.4839 10.4858 6.39241 10.5041 6.3 10.5041C6.20759 10.5041 6.1161 10.4858 6.0308 10.4502C5.9455 10.4147 5.86807 10.3626 5.803 10.297L3.003 7.497C2.93927 7.43043 2.88932 7.35193 2.856 7.266C2.78599 7.09558 2.78599 6.90442 2.856 6.734C2.88932 6.64807 2.93927 6.56957 3.003 6.503L5.803 3.703C5.86827 3.63773 5.94575 3.58596 6.03103 3.55064C6.1163 3.51532 6.2077 3.49714 6.3 3.49714C6.3923 3.49714 6.4837 3.51532 6.56898 3.55064C6.65425 3.58596 6.73173 3.63773 6.797 3.703C6.86227 3.76827 6.91404 3.84575 6.94936 3.93103C6.98468 4.0163 7.00286 4.1077 7.00286 4.2C7.00286 4.2923 6.98468 4.3837 6.94936 4.46897C6.91404 4.55425 6.86227 4.63173 6.797 4.697L5.187 6.3H10.5C10.6857 6.3 10.8637 6.37375 10.995 6.50503C11.1263 6.6363 11.2 6.81435 11.2 7ZM2.1 0H9.1C9.65696 0 10.1911 0.221249 10.5849 0.615076C10.9788 1.0089 11.2 1.54305 11.2 2.1V4.2C11.2 4.38565 11.1263 4.5637 10.995 4.69497C10.8637 4.82625 10.6857 4.9 10.5 4.9C10.3143 4.9 10.1363 4.82625 10.005 4.69497C9.87375 4.5637 9.8 4.38565 9.8 4.2V2.1C9.8 1.91435 9.72625 1.7363 9.59498 1.60503C9.4637 1.47375 9.28565 1.4 9.1 1.4H2.1C1.91435 1.4 1.7363 1.47375 1.60503 1.60503C1.47375 1.7363 1.4 1.91435 1.4 2.1V11.9C1.4 12.0857 1.47375 12.2637 1.60503 12.395C1.7363 12.5263 1.91435 12.6 2.1 12.6H9.1C9.28565 12.6 9.4637 12.5263 9.59498 12.395C9.72625 12.2637 9.8 12.0857 9.8 11.9V9.8C9.8 9.61435 9.87375 9.4363 10.005 9.30503C10.1363 9.17375 10.3143 9.1 10.5 9.1C10.6857 9.1 10.8637 9.17375 10.995 9.30503C11.1263 9.4363 11.2 9.61435 11.2 9.8V11.9C11.2 12.457 10.9788 12.9911 10.5849 13.3849C10.1911 13.7788 9.65696 14 9.1 14H2.1C1.54305 14 1.0089 13.7788 0.615076 13.3849C0.22125 12.9911 9.53674e-07 12.457 9.53674e-07 11.9V2.1C9.53674e-07 1.54305 0.22125 1.0089 0.615076 0.615076C1.0089 0.221249 1.54305 0 2.1 0Z" fill="white"/>
</svg>
