<svg width="21" height="35" viewBox="0 0 21 35" fill="none" xmlns="http://www.w3.org/2000/svg">
	<path d="M11.13 14.9533C6.363 13.8365 4.83 12.6819 4.83 10.8837C4.83 8.82055 6.951 7.38201 10.5 7.38201C13.482 7.38201 14.973 8.40413 15.519 10.032C15.771 10.7891 16.464 11.3569 17.346 11.3569H17.976C19.362 11.3569 20.349 10.1266 19.866 8.95305C18.984 6.71952 16.926 4.86455 13.65 4.14528V2.83923C13.65 1.26819 12.243 0 10.5 0C8.757 0 7.35 1.26819 7.35 2.83923V4.08849C3.276 4.88348 0 7.26844 0 10.9216C0 15.294 4.011 17.4707 9.87 18.7389C15.12 19.8746 16.17 21.5403 16.17 23.3006C16.17 24.6067 15.141 26.6888 10.5 26.6888C7.035 26.6888 5.25 25.572 4.557 23.9821C4.242 23.2439 3.528 22.7139 2.667 22.7139H2.079C0.672 22.7139 -0.315 24.001 0.21 25.1745C1.407 27.8055 4.2 29.3577 7.35 29.9634V31.2316C7.35 32.8026 8.757 34.0708 10.5 34.0708C12.243 34.0708 13.65 32.8026 13.65 31.2316V30.0012C17.745 29.3009 21 27.162 21 23.2817C21 17.9061 15.897 16.0701 11.13 14.9533Z" fill="white" />
</svg>
