<svg width="26" height="18" viewBox="0 0 26 18" fill="none" xmlns="http://www.w3.org/2000/svg">
	<path d="M2.4893 10.4766C2.16346 10.4762 1.84638 10.582 1.586 10.7779C1.32562 10.9738 1.13611 11.2492 1.04613 11.5623C0.956143 11.8755 0.970578 12.2094 1.08725 12.5137C1.20392 12.8179 1.41649 13.0759 1.6928 13.2486L5.7248 17.2806C5.86416 17.4198 6.0296 17.5303 6.21165 17.6056C6.3937 17.6809 6.58881 17.7197 6.78583 17.7196C6.98285 17.7195 7.17793 17.6807 7.35993 17.6052C7.54193 17.5297 7.70728 17.4192 7.84655 17.2798C7.98582 17.1404 8.09627 16.975 8.1716 16.793C8.24694 16.6109 8.28567 16.4158 8.2856 16.2188C8.28553 16.0218 8.24666 15.8267 8.1712 15.6447C8.09574 15.4627 7.98517 15.2973 7.8458 15.1581L6.1643 13.4781H17.4893C17.8871 13.4781 18.2687 13.32 18.55 13.0387C18.8313 12.7574 18.9893 12.3759 18.9893 11.9781C18.9893 11.5802 18.8313 11.1987 18.55 10.9174C18.2687 10.6361 17.8871 10.4781 17.4893 10.4781H2.4893V10.4766Z" fill="white" />
	<path d="M23.5103 7.5243C23.8361 7.52463 24.1532 7.41885 24.4136 7.22296C24.6739 7.02706 24.8634 6.75172 24.9534 6.43855C25.0434 6.12538 25.029 5.79143 24.9123 5.4872C24.7956 5.18297 24.5831 4.925 24.3068 4.7523L20.2748 0.720304C19.9933 0.439042 19.6116 0.281109 19.2137 0.28125C18.8158 0.281391 18.4343 0.439593 18.153 0.721054C17.8717 1.00252 17.7138 1.38418 17.714 1.78208C17.7141 2.17999 17.8723 2.56154 18.1538 2.8428L19.8353 4.5228H8.51025C8.11243 4.5228 7.7309 4.68084 7.44959 4.96214C7.16829 5.24345 7.01025 5.62498 7.01025 6.0228C7.01025 6.42063 7.16829 6.80216 7.44959 7.08346C7.7309 7.36477 8.11243 7.5228 8.51025 7.5228H23.5103V7.5243Z" fill="white" />
</svg>
