<svg width="14" height="11" viewBox="0 0 14 11" fill="none" xmlns="http://www.w3.org/2000/svg">
	<path d="M0.875003 5.94141C0.685121 5.94122 0.500341 6.00286 0.348605 6.11702C0.19687 6.23117 0.0864327 6.39163 0.0339942 6.57413C-0.0184443 6.75663 -0.0100318 6.95124 0.0579594 7.12853C0.125951 7.30582 0.249823 7.45615 0.410843 7.55679L2.76049 9.90644C2.84171 9.9876 2.93811 10.052 3.0442 10.0959C3.15029 10.1398 3.26399 10.1623 3.37881 10.1623C3.49362 10.1623 3.6073 10.1396 3.71336 10.0956C3.81942 10.0517 3.91578 9.98722 3.99694 9.906C4.0781 9.82479 4.14247 9.72838 4.18637 9.62229C4.23027 9.5162 4.25284 9.4025 4.2528 9.28769C4.25276 9.17287 4.23011 9.05919 4.18613 8.95313C4.14215 8.84707 4.07772 8.75071 3.9965 8.66955L3.01661 7.69053H9.61626C9.84809 7.69053 10.0704 7.59844 10.2344 7.43451C10.3983 7.27058 10.4904 7.04824 10.4904 6.81641C10.4904 6.58457 10.3983 6.36224 10.2344 6.19831C10.0704 6.03438 9.84809 5.94228 9.61626 5.94228H0.875003V5.94141Z" fill="white" />
	<path d="M13.125 4.22089C13.3149 4.22108 13.4997 4.15944 13.6514 4.04528C13.8031 3.93113 13.9136 3.77067 13.966 3.58817C14.0184 3.40567 14.01 3.21106 13.942 3.03377C13.874 2.85648 13.7502 2.70614 13.5892 2.60551L11.2395 0.255859C11.0755 0.0919533 10.8531 -8.19104e-05 10.6212 5.47007e-08C10.3893 8.20198e-05 10.167 0.0922746 10.0031 0.256296C9.83915 0.420318 9.74712 0.642732 9.7472 0.874611C9.74728 1.10649 9.83947 1.32884 10.0035 1.49275L10.9834 2.47177H4.38374C4.15191 2.47177 3.92957 2.56386 3.76564 2.72779C3.60171 2.89172 3.50962 3.11406 3.50962 3.34589C3.50962 3.57772 3.60171 3.80006 3.76564 3.96399C3.92957 4.12792 4.15191 4.22002 4.38374 4.22002H13.125V4.22089Z" fill="white" />
</svg>
