<svg width="13" height="14" viewBox="0 0 13 14" fill="none" xmlns="http://www.w3.org/2000/svg">
	<path fill-rule="evenodd" clip-rule="evenodd" d="M10.1111 1.55556H2.33333C2.12705 1.55556 1.92922 1.6375 1.78336 1.78336C1.6375 1.92922 1.55556 2.12705 1.55556 2.33333V11.6667C1.55556 11.8729 1.6375 12.0708 1.78336 12.2166C1.92922 12.3625 2.12705 12.4444 2.33333 12.4444H10.1111C10.3174 12.4444 10.5152 12.3625 10.6611 12.2166C10.8069 12.0708 10.8889 11.8729 10.8889 11.6667V2.33333C10.8889 2.12705 10.8069 1.92922 10.6611 1.78336C10.5152 1.6375 10.3174 1.55556 10.1111 1.55556ZM2.33333 0C1.71449 0 1.121 0.245833 0.683418 0.683418C0.245833 1.121 0 1.71449 0 2.33333V11.6667C0 12.2855 0.245833 12.879 0.683418 13.3166C1.121 13.7542 1.71449 14 2.33333 14H10.1111C10.7299 14 11.3234 13.7542 11.761 13.3166C12.1986 12.879 12.4444 12.2855 12.4444 11.6667V2.33333C12.4444 1.71449 12.1986 1.121 11.761 0.683418C11.3234 0.245833 10.7299 0 10.1111 0H2.33333Z" fill="white" />
	<path d="M3.11111 3.11111H9.33333V4.66667H3.11111V3.11111Z" fill="white" />
	<path d="M3.11111 6.22222H9.33333V7.77778H3.11111V6.22222Z" fill="white" />
	<path d="M3.11111 9.33333H7V10.8889H3.11111V9.33333Z" fill="white" />
</svg>
