<svg width="48" height="48" viewBox="0 0 48 48" fill="none" xmlns="http://www.w3.org/2000/svg">
	<rect width="48" height="48" rx="24" fill="url(#paint0_linear)" />
	<path d="M32.664 15.4779L20 19.9999V26.9999L20.748 27.2669L19.621 29.5209C19.4926 29.7772 19.4209 30.058 19.4106 30.3445C19.4003 30.6309 19.4517 30.9162 19.5614 31.181C19.671 31.4458 19.8363 31.6839 20.046 31.8792C20.2558 32.0745 20.5051 32.2224 20.777 32.3129L24.861 33.6739C25.3179 33.8229 25.8129 33.8037 26.2568 33.6198C26.7007 33.4358 27.0643 33.0993 27.282 32.6709L28.585 30.0649L32.664 31.5219C32.8148 31.5758 32.9764 31.5925 33.1351 31.5709C33.2938 31.5493 33.4449 31.4899 33.5758 31.3976C33.7068 31.3054 33.8136 31.1831 33.8875 31.041C33.9613 30.8989 33.9999 30.7411 34 30.5809V16.4189C33.9999 16.2588 33.9613 16.101 33.8875 15.9589C33.8136 15.8168 33.7068 15.6945 33.5758 15.6022C33.4449 15.51 33.2938 15.4506 33.1351 15.429C32.9764 15.4073 32.8148 15.4241 32.664 15.4779ZM25.493 31.7769L21.41 30.4159L22.645 27.9449L26.687 29.3889L25.493 31.7769ZM16 26.9999H18V19.9999H16C14.897 19.9999 14 20.8969 14 21.9999V24.9999C14 26.1029 14.897 26.9999 16 26.9999Z" fill="white" />
	<defs>
		<linearGradient id="paint0_linear" x1="4.28721e-07" y1="15.9668" x2="48" y2="15.9668" gradientUnits="userSpaceOnUse">
			<stop stop-color="#AA106F" />
			<stop offset="1" stop-color="#DF6F67" />
		</linearGradient>
	</defs>
</svg>
