<svg width="48" height="48" viewBox="0 0 48 48" fill="none" xmlns="http://www.w3.org/2000/svg">
<rect width="48" height="48" rx="24" fill="url(#paint0_linear)"/>
<path d="M32.625 19.2656H29.1656C29.4844 18.7641 29.6719 18.1688 29.6719 17.5312C29.6719 15.7477 28.2211 14.2969 26.4375 14.2969C25.4672 14.2969 24.593 14.7281 24 15.4078C23.407 14.7281 22.5328 14.2969 21.5625 14.2969C19.7789 14.2969 18.3281 15.7477 18.3281 17.5312C18.3281 18.1688 18.5133 18.7641 18.8344 19.2656H15.375C14.9602 19.2656 14.625 19.6008 14.625 20.0156V24.7031C14.625 24.8062 14.7094 24.8906 14.8125 24.8906H15.75V32.9531C15.75 33.368 16.0852 33.7031 16.5 33.7031H31.5C31.9148 33.7031 32.25 33.368 32.25 32.9531V24.8906H33.1875C33.2906 24.8906 33.375 24.8062 33.375 24.7031V20.0156C33.375 19.6008 33.0398 19.2656 32.625 19.2656ZM24.7969 17.5312C24.7969 16.6266 25.5328 15.8906 26.4375 15.8906C27.3422 15.8906 28.0781 16.6266 28.0781 17.5312C28.0781 18.4359 27.3422 19.1719 26.4375 19.1719H24.7969V17.5312ZM21.5625 15.8906C22.4672 15.8906 23.2031 16.6266 23.2031 17.5312V19.1719H21.5625C20.6578 19.1719 19.9219 18.4359 19.9219 17.5312C19.9219 16.6266 20.6578 15.8906 21.5625 15.8906ZM16.2188 23.2969V20.8594H23.2031V23.2969H16.2188ZM17.3438 24.8906H23.2031V32.1094H17.3438V24.8906ZM30.6562 32.1094H24.7969V24.8906H30.6562V32.1094ZM31.7812 23.2969H24.7969V20.8594H31.7812V23.2969Z" fill="white"/>
<defs>
<linearGradient id="paint0_linear" x1="4.28721e-07" y1="15.9668" x2="48" y2="15.9668" gradientUnits="userSpaceOnUse">
<stop stop-color="#AA106F"/>
<stop offset="1" stop-color="#DF6F67"/>
</linearGradient>
</defs>
</svg>
