<svg width="48" height="48" viewBox="0 0 48 48" fill="none" xmlns="http://www.w3.org/2000/svg">
	<rect width="48" height="48" rx="24" fill="url(#paint0_linear)" />
	<path d="M18 13.5H25.5V15H18C17.6022 15 17.2206 15.158 16.9393 15.4393C16.658 15.7206 16.5 16.1022 16.5 16.5V31.5C16.5 31.8978 16.658 32.2794 16.9393 32.5607C17.2206 32.842 17.6022 33 18 33H30C30.3978 33 30.7794 32.842 31.0607 32.5607C31.342 32.2794 31.5 31.8978 31.5 31.5V21H33V31.5C33 32.2956 32.6839 33.0587 32.1213 33.6213C31.5587 34.1839 30.7956 34.5 30 34.5H18C17.2044 34.5 16.4413 34.1839 15.8787 33.6213C15.3161 33.0587 15 32.2956 15 31.5V16.5C15 15.7044 15.3161 14.9413 15.8787 14.3787C16.4413 13.8161 17.2044 13.5 18 13.5Z" fill="white" />
	<path d="M25.5 18.75V13.5L33 21H27.75C27.1533 21 26.581 20.7629 26.159 20.341C25.7371 19.919 25.5 19.3467 25.5 18.75Z" fill="white" />
	<path fill-rule="evenodd" clip-rule="evenodd" d="M19.5 29.25C19.5 29.0511 19.579 28.8603 19.7197 28.7197C19.8603 28.579 20.0511 28.5 20.25 28.5H23.25C23.4489 28.5 23.6397 28.579 23.7803 28.7197C23.921 28.8603 24 29.0511 24 29.25C24 29.4489 23.921 29.6397 23.7803 29.7803C23.6397 29.921 23.4489 30 23.25 30H20.25C20.0511 30 19.8603 29.921 19.7197 29.7803C19.579 29.6397 19.5 29.4489 19.5 29.25ZM19.5 26.25C19.5 26.0511 19.579 25.8603 19.7197 25.7197C19.8603 25.579 20.0511 25.5 20.25 25.5H27.75C27.9489 25.5 28.1397 25.579 28.2803 25.7197C28.421 25.8603 28.5 26.0511 28.5 26.25C28.5 26.4489 28.421 26.6397 28.2803 26.7803C28.1397 26.921 27.9489 27 27.75 27H20.25C20.0511 27 19.8603 26.921 19.7197 26.7803C19.579 26.6397 19.5 26.4489 19.5 26.25ZM19.5 23.25C19.5 23.0511 19.579 22.8603 19.7197 22.7197C19.8603 22.579 20.0511 22.5 20.25 22.5H27.75C27.9489 22.5 28.1397 22.579 28.2803 22.7197C28.421 22.8603 28.5 23.0511 28.5 23.25C28.5 23.4489 28.421 23.6397 28.2803 23.7803C28.1397 23.921 27.9489 24 27.75 24H20.25C20.0511 24 19.8603 23.921 19.7197 23.7803C19.579 23.6397 19.5 23.4489 19.5 23.25Z" fill="white" />
	<defs>
		<linearGradient id="paint0_linear" x1="4.28721e-07" y1="15.9668" x2="48" y2="15.9668" gradientUnits="userSpaceOnUse">
			<stop stop-color="#AA106F" />
			<stop offset="1" stop-color="#DF6F67" />
		</linearGradient>
	</defs>
</svg>
