<svg width="14" height="12" viewBox="0 0 14 12" fill="none" xmlns="http://www.w3.org/2000/svg">
<path d="M10.0653 10.0606C9.1015 11.0255 7.83303 11.6263 6.47595 11.7608C5.11888 11.8952 3.75716 11.555 2.62281 10.798C1.48845 10.0411 0.651632 8.91427 0.254927 7.60952C-0.141778 6.30478 -0.0738285 4.90285 0.447199 3.64258C0.968226 2.38232 1.9101 1.34169 3.11234 0.697999C4.31458 0.0543037 5.70282 -0.152635 7.04053 0.112439C8.37824 0.377513 9.58266 1.0982 10.4486 2.15171C11.3145 3.20523 11.7884 4.52639 11.7895 5.89011H10.3158C10.3167 4.86723 9.96287 3.87568 9.31464 3.08443C8.6664 2.29318 7.76385 1.75119 6.76078 1.55082C5.75771 1.35045 4.7162 1.50409 3.81372 1.98557C2.91125 2.46704 2.20364 3.24656 1.81149 4.19129C1.41934 5.13601 1.36691 6.18749 1.66313 7.16654C1.95936 8.14559 2.5859 8.99163 3.43601 9.5605C4.28611 10.1294 5.30717 10.3859 6.32519 10.2863C7.34322 10.1867 8.29521 9.73716 9.01895 9.01432L10.0653 10.0606ZM8.10526 5.89011H14L11.0526 8.83748L8.10526 5.89011Z" fill="url(#paint0_linear)"/>
<defs>
<linearGradient id="paint0_linear" x1="1.25044e-07" y1="3.92168" x2="14" y2="3.92168" gradientUnits="userSpaceOnUse">
<stop stop-color="#AA106F"/>
<stop offset="1" stop-color="#DF6F67"/>
</linearGradient>
</defs>
</svg>
