<svg width="14" height="12" viewBox="0 0 14 12" fill="none" xmlns="http://www.w3.org/2000/svg">
	<path d="M7 6.00008C6.65388 6.00008 6.31554 6.10272 6.02775 6.29501C5.73997 6.4873 5.51566 6.76061 5.38321 7.08039C5.25076 7.40016 5.2161 7.75202 5.28363 8.09149C5.35115 8.43096 5.51782 8.74278 5.76256 8.98752C6.00731 9.23226 6.31913 9.39893 6.65859 9.46646C6.99806 9.53398 7.34993 9.49932 7.6697 9.36687C7.98947 9.23442 8.26278 9.01011 8.45507 8.72233C8.64736 8.43454 8.75 8.0962 8.75 7.75008C8.75 7.28595 8.56563 6.84083 8.23744 6.51264C7.90925 6.18446 7.46413 6.00008 7 6.00008ZM7 8.33341C6.88463 8.33341 6.77185 8.2992 6.67592 8.2351C6.57999 8.17101 6.50522 8.0799 6.46107 7.97331C6.41692 7.86672 6.40537 7.74943 6.42788 7.63628C6.45038 7.52312 6.50594 7.41918 6.58752 7.3376C6.6691 7.25602 6.77304 7.20046 6.8862 7.17796C6.99935 7.15545 7.11664 7.167 7.22323 7.21115C7.32982 7.2553 7.42093 7.33007 7.48502 7.426C7.54912 7.52193 7.58333 7.63471 7.58333 7.75008C7.58333 7.90479 7.52188 8.05316 7.41248 8.16256C7.30308 8.27196 7.15471 8.33341 7 8.33341ZM6.58583 4.66425C6.64131 4.71735 6.70673 4.75898 6.77833 4.78675C6.84816 4.81761 6.92366 4.83355 7 4.83355C7.07634 4.83355 7.15184 4.81761 7.22167 4.78675C7.29327 4.75898 7.35869 4.71735 7.41417 4.66425L8.75 3.35175C8.86294 3.23881 8.92639 3.08563 8.92639 2.92591C8.92639 2.7662 8.86294 2.61302 8.75 2.50008C8.63706 2.38714 8.48389 2.3237 8.32417 2.3237C8.16445 2.3237 8.01127 2.38714 7.89833 2.50008L7.58333 2.84425V0.750081C7.58333 0.595372 7.52188 0.446999 7.41248 0.337602C7.30308 0.228206 7.15471 0.166748 7 0.166748C6.84529 0.166748 6.69692 0.228206 6.58752 0.337602C6.47813 0.446999 6.41667 0.595372 6.41667 0.750081V2.84425L6.10167 2.50008C5.98873 2.38714 5.83555 2.3237 5.67583 2.3237C5.51612 2.3237 5.36294 2.38714 5.25 2.50008C5.13706 2.61302 5.07361 2.7662 5.07361 2.92591C5.07361 3.08563 5.13706 3.23881 5.25 3.35175L6.58583 4.66425ZM11.0833 7.75008C11.0833 7.63471 11.0491 7.52193 10.985 7.426C10.9209 7.33007 10.8298 7.2553 10.7232 7.21115C10.6166 7.167 10.4994 7.15545 10.3862 7.17796C10.273 7.20046 10.1691 7.25602 10.0875 7.3376C10.0059 7.41918 9.95038 7.52312 9.92788 7.63628C9.90537 7.74943 9.91692 7.86672 9.96107 7.97331C10.0052 8.0799 10.08 8.17101 10.1759 8.2351C10.2718 8.2992 10.3846 8.33341 10.5 8.33341C10.6547 8.33341 10.8031 8.27196 10.9125 8.16256C11.0219 8.05316 11.0833 7.90479 11.0833 7.75008ZM11.6667 3.66675H9.91667C9.76196 3.66675 9.61358 3.72821 9.50419 3.8376C9.39479 3.947 9.33333 4.09537 9.33333 4.25008C9.33333 4.40479 9.39479 4.55316 9.50419 4.66256C9.61358 4.77196 9.76196 4.83341 9.91667 4.83341H11.6667C11.8214 4.83341 11.9698 4.89487 12.0791 5.00427C12.1885 5.11367 12.25 5.26204 12.25 5.41675V10.0834C12.25 10.2381 12.1885 10.3865 12.0791 10.4959C11.9698 10.6053 11.8214 10.6667 11.6667 10.6667H2.33333C2.17862 10.6667 2.03025 10.6053 1.92085 10.4959C1.81146 10.3865 1.75 10.2381 1.75 10.0834V5.41675C1.75 5.26204 1.81146 5.11367 1.92085 5.00427C2.03025 4.89487 2.17862 4.83341 2.33333 4.83341H4.08333C4.23804 4.83341 4.38642 4.77196 4.49581 4.66256C4.60521 4.55316 4.66667 4.40479 4.66667 4.25008C4.66667 4.09537 4.60521 3.947 4.49581 3.8376C4.38642 3.72821 4.23804 3.66675 4.08333 3.66675H2.33333C1.86921 3.66675 1.42409 3.85112 1.0959 4.17931C0.767708 4.5075 0.583334 4.95262 0.583334 5.41675V10.0834C0.583334 10.5475 0.767708 10.9927 1.0959 11.3209C1.42409 11.649 1.86921 11.8334 2.33333 11.8334H11.6667C12.1308 11.8334 12.5759 11.649 12.9041 11.3209C13.2323 10.9927 13.4167 10.5475 13.4167 10.0834V5.41675C13.4167 4.95262 13.2323 4.5075 12.9041 4.17931C12.5759 3.85112 12.1308 3.66675 11.6667 3.66675ZM2.91667 7.75008C2.91667 7.86545 2.95088 7.97824 3.01498 8.07416C3.07907 8.17009 3.17018 8.24486 3.27677 8.28901C3.38336 8.33316 3.50065 8.34471 3.6138 8.32221C3.72696 8.2997 3.8309 8.24414 3.91248 8.16256C3.99406 8.08098 4.04962 7.97704 4.07213 7.86388C4.09463 7.75073 4.08308 7.63344 4.03893 7.52685C3.99478 7.42026 3.92001 7.32915 3.82408 7.26506C3.72815 7.20096 3.61537 7.16675 3.5 7.16675C3.34529 7.16675 3.19692 7.22821 3.08752 7.3376C2.97813 7.447 2.91667 7.59537 2.91667 7.75008Z" fill="white" />
</svg>
