<svg width="14" height="14" viewBox="0 0 14 14" fill="none"
  xmlns="http://www.w3.org/2000/svg">
  <path d="M7 14C7.42635 14.0001 7.83808 13.8446 8.15789 13.5627C8.4777 13.2808 8.68358 12.8918 8.73687 12.4688C8.75175 12.3489 8.652 12.25 8.53125 12.25H5.46875C5.348 12.25 5.24825 12.3489 5.26312 12.4688C5.31642 12.8918 5.5223 13.2808 5.84211 13.5627C6.16192 13.8446 6.57365 14.0001 7 14Z" fill="white"/>
  <path fill-rule="evenodd" clip-rule="evenodd" d="M7 1.3125C6.18777 1.3125 5.40881 1.63516 4.83448 2.20949C4.26015 2.78382 3.9375 3.56277 3.9375 4.375V6.95363C3.9375 7.25637 3.84825 7.55125 3.68025 7.80237L2.19012 10.0389C2.1884 10.0415 2.18749 10.0445 2.1875 10.0476L2.18837 10.0529C2.18837 10.0546 2.19012 10.0564 2.19187 10.0581C2.19335 10.0597 2.19514 10.0608 2.19712 10.0616L2.20325 10.0625H11.7967L11.8029 10.0616C11.8049 10.0609 11.8067 10.0597 11.8081 10.0581C11.8097 10.0567 11.8109 10.0549 11.8116 10.0529L11.8125 10.0468C11.8126 10.0436 11.8116 10.0406 11.8099 10.038L10.3197 7.80325C10.1522 7.5519 10.0626 7.2566 10.0625 6.9545V4.375C10.0625 3.56277 9.73984 2.78382 9.16551 2.20949C8.59118 1.63516 7.81222 1.3125 7 1.3125ZM2.625 4.375C2.625 3.21468 3.08594 2.10188 3.90641 1.28141C4.72688 0.460936 5.83968 0 7 0C8.16032 0 9.27312 0.460936 10.0936 1.28141C10.9141 2.10188 11.375 3.21468 11.375 4.375V6.95363C11.375 6.99738 11.3881 7.03938 11.4117 7.07525L12.9019 9.31087C13.035 9.5109 13.1114 9.74328 13.1228 9.98327C13.1343 10.2233 13.0805 10.4619 12.9671 10.6737C12.8537 10.8855 12.6849 11.0626 12.4788 11.1861C12.2727 11.3096 12.037 11.3749 11.7967 11.375H2.20325C1.96284 11.375 1.72695 11.3097 1.52072 11.1862C1.31449 11.0626 1.14566 10.8854 1.03222 10.6735C0.91879 10.4615 0.865008 10.2228 0.876614 9.98263C0.88822 9.7425 0.964777 9.51003 1.09812 9.31L2.58825 7.07525C2.61226 7.03924 2.62505 6.99691 2.625 6.95363V4.375Z" fill="white"/>
</svg>
