<svg width="14" height="14" viewBox="0 0 14 14" fill="none" xmlns="http://www.w3.org/2000/svg">
<path d="M12.6287 7.46194C12.5165 7.33421 12.4546 7.17001 12.4546 7C12.4546 6.82999 12.5165 6.66579 12.6287 6.53806L13.5246 5.5302C13.6233 5.42008 13.6846 5.28153 13.6997 5.13441C13.7148 4.98729 13.6829 4.83917 13.6086 4.71131L12.2088 2.28964C12.1352 2.16192 12.0232 2.06069 11.8887 2.00036C11.7542 1.94003 11.6042 1.9237 11.4599 1.95369L10.144 2.21965C9.97661 2.25425 9.80231 2.22636 9.65402 2.14126C9.50574 2.05616 9.39374 1.91973 9.33915 1.75771L8.9122 0.476887C8.86525 0.337871 8.77579 0.217128 8.65648 0.131723C8.53716 0.0463189 8.39402 0.000573079 8.24729 0.000951841H5.44768C5.29505 -0.0070145 5.14401 0.0351956 5.01763 0.121135C4.89125 0.207075 4.79647 0.33202 4.74777 0.476887L4.35582 1.75771C4.30123 1.91973 4.18923 2.05616 4.04095 2.14126C3.89266 2.22636 3.71836 2.25425 3.55093 2.21965L2.20012 1.95369C2.06332 1.93436 1.92386 1.95594 1.79931 2.01573C1.67476 2.07551 1.57069 2.17082 1.50021 2.28964L0.100402 4.71131C0.0242244 4.83775 -0.0100275 4.98503 0.00254314 5.13211C0.0151138 5.27919 0.0738632 5.41852 0.170392 5.5302L1.05927 6.53806C1.17148 6.66579 1.23336 6.82999 1.23336 7C1.23336 7.17001 1.17148 7.33421 1.05927 7.46194L0.170392 8.4698C0.0738632 8.58148 0.0151138 8.72081 0.00254314 8.86789C-0.0100275 9.01497 0.0242244 9.16225 0.100402 9.28869L1.50021 11.7104C1.57377 11.8381 1.68577 11.9393 1.82024 11.9996C1.95472 12.06 2.10481 12.0763 2.24911 12.0463L3.56493 11.7803C3.73236 11.7458 3.90666 11.7736 4.05494 11.8587C4.20322 11.9438 4.31523 12.0803 4.36982 12.2423L4.79676 13.5231C4.84546 13.668 4.94024 13.7929 5.06662 13.8789C5.193 13.9648 5.34404 14.007 5.49667 13.999H8.29629C8.44302 13.9994 8.58616 13.9537 8.70547 13.8683C8.82479 13.7829 8.91424 13.6621 8.9612 13.5231L9.38814 12.2423C9.44273 12.0803 9.55474 11.9438 9.70302 11.8587C9.8513 11.7736 10.0256 11.7458 10.193 11.7803L11.5089 12.0463C11.6532 12.0763 11.8032 12.06 11.9377 11.9996C12.0722 11.9393 12.1842 11.8381 12.2578 11.7104L13.6576 9.28869C13.7319 9.16083 13.7638 9.01271 13.7487 8.86559C13.7336 8.71847 13.6723 8.57992 13.5736 8.4698L12.6287 7.46194ZM11.5858 8.39981L12.1458 9.02972L11.2499 10.5835L10.424 10.4155C9.91991 10.3125 9.39554 10.3981 8.95042 10.6562C8.50529 10.9142 8.17041 11.3267 8.00933 11.8153L7.74336 12.5992H5.95161L5.69964 11.8013C5.53856 11.3127 5.20368 10.9002 4.75855 10.6422C4.31343 10.3841 3.78906 10.2985 3.28497 10.4015L2.45908 10.5695L1.54921 9.02273L2.10913 8.39281C2.45345 8.00785 2.64381 7.50948 2.64381 6.993C2.64381 6.47652 2.45345 5.97815 2.10913 5.59319L1.54921 4.96328L2.44508 3.42349L3.27097 3.59146C3.77506 3.6945 4.29943 3.60888 4.74455 3.35084C5.18968 3.09279 5.52456 2.6803 5.68564 2.19165L5.95161 1.40076H7.74336L8.00933 2.19865C8.17041 2.6873 8.50529 3.09979 8.95042 3.35783C9.39554 3.61588 9.91991 3.7015 10.424 3.59846L11.2499 3.43049L12.1458 4.98427L11.5858 5.61419C11.2454 5.99827 11.0574 6.49375 11.0574 7.007C11.0574 7.52025 11.2454 8.01573 11.5858 8.39981ZM6.84749 4.20038C6.29377 4.20038 5.75249 4.36458 5.2921 4.6722C4.8317 4.97983 4.47287 5.41707 4.26097 5.92863C4.04908 6.4402 3.99364 7.00311 4.10166 7.54618C4.20968 8.08925 4.47632 8.5881 4.86786 8.97963C5.25939 9.37116 5.75823 9.6378 6.30131 9.74583C6.84438 9.85385 7.40729 9.79841 7.91885 9.58651C8.43042 9.37461 8.86766 9.01578 9.17528 8.55538C9.48291 8.09499 9.6471 7.55371 9.6471 7C9.6471 6.25749 9.35215 5.5454 8.82711 5.02037C8.30208 4.49534 7.58999 4.20038 6.84749 4.20038ZM6.84749 8.39981C6.57063 8.39981 6.29999 8.31771 6.06979 8.1639C5.83959 8.01009 5.66018 7.79147 5.55423 7.53568C5.44828 7.2799 5.42056 6.99845 5.47457 6.72691C5.52858 6.45537 5.6619 6.20595 5.85767 6.01019C6.05344 5.81442 6.30286 5.6811 6.5744 5.62709C6.84593 5.57308 7.12739 5.6008 7.38317 5.70674C7.63895 5.81269 7.85757 5.99211 8.01138 6.22231C8.1652 6.45251 8.24729 6.72314 8.24729 7C8.24729 7.37125 8.09981 7.7273 7.8373 7.98981C7.57478 8.25233 7.21874 8.39981 6.84749 8.39981Z" fill="white"/>
</svg>
