<svg width="13" height="14" viewBox="0 0 13 14" fill="none" xmlns="http://www.w3.org/2000/svg">
	<path d="M11.76 3.5H9.38V3.22C9.38 1.442 7.938 0 6.16 0C4.382 0 2.94 1.442 2.94 3.22V3.5H0.56C0.25025 3.5 0 3.75025 0 4.06V13.44C0 13.7498 0.25025 14 0.56 14H11.76C12.0697 14 12.32 13.7498 12.32 13.44V4.06C12.32 3.75025 12.0697 3.5 11.76 3.5ZM4.2 3.22C4.2 2.13675 5.07675 1.26 6.16 1.26C7.24325 1.26 8.12 2.13675 8.12 3.22V3.5H4.2V3.22ZM11.06 12.74H1.26V4.76H2.94V6.3C2.94 6.377 3.003 6.44 3.08 6.44H4.06C4.137 6.44 4.2 6.377 4.2 6.3V4.76H8.12V6.3C8.12 6.377 8.183 6.44 8.26 6.44H9.24C9.317 6.44 9.38 6.377 9.38 6.3V4.76H11.06V12.74Z" fill="white" />
</svg>
