<svg width="14" height="14" viewBox="0 0 14 14" fill="none" xmlns="http://www.w3.org/2000/svg">
	<path d="M2.84375 13.5625H1.96875C1.7947 13.5625 1.62778 13.4934 1.50471 13.3703C1.38164 13.2472 1.3125 13.0803 1.3125 12.9062V8.96875C1.3125 8.7947 1.38164 8.62778 1.50471 8.50471C1.62778 8.38164 1.7947 8.3125 1.96875 8.3125H2.84375C3.0178 8.3125 3.18472 8.38164 3.30779 8.50471C3.43086 8.62778 3.5 8.7947 3.5 8.96875V12.9062C3.5 13.0803 3.43086 13.2472 3.30779 13.3703C3.18472 13.4934 3.0178 13.5625 2.84375 13.5625Z" fill="white" />
	<path d="M8.96875 13.5625H8.09375C7.9197 13.5625 7.75278 13.4934 7.62971 13.3703C7.50664 13.2472 7.4375 13.0803 7.4375 12.9062V6.34375C7.4375 6.1697 7.50664 6.00278 7.62971 5.87971C7.75278 5.75664 7.9197 5.6875 8.09375 5.6875H8.96875C9.1428 5.6875 9.30972 5.75664 9.43279 5.87971C9.55586 6.00278 9.625 6.1697 9.625 6.34375V12.9062C9.625 13.0803 9.55586 13.2472 9.43279 13.3703C9.30972 13.4934 9.1428 13.5625 8.96875 13.5625Z" fill="white" />
	<path d="M12.0312 13.5625H11.1562C10.9822 13.5625 10.8153 13.4934 10.6922 13.3703C10.5691 13.2472 10.5 13.0803 10.5 12.9062V3.28125C10.5 3.1072 10.5691 2.94028 10.6922 2.81721C10.8153 2.69414 10.9822 2.625 11.1562 2.625H12.0312C12.2053 2.625 12.3722 2.69414 12.4953 2.81721C12.6184 2.94028 12.6875 3.1072 12.6875 3.28125V12.9062C12.6875 13.0803 12.6184 13.2472 12.4953 13.3703C12.3722 13.4934 12.2053 13.5625 12.0312 13.5625Z" fill="white" />
	<path d="M5.90625 13.5625H5.03125C4.8572 13.5625 4.69028 13.4934 4.56721 13.3703C4.44414 13.2472 4.375 13.0803 4.375 12.9062V1.09375C4.375 0.919702 4.44414 0.752782 4.56721 0.629711C4.69028 0.50664 4.8572 0.4375 5.03125 0.4375H5.90625C6.0803 0.4375 6.24722 0.50664 6.37029 0.629711C6.49336 0.752782 6.5625 0.919702 6.5625 1.09375V12.9062C6.5625 13.0803 6.49336 13.2472 6.37029 13.3703C6.24722 13.4934 6.0803 13.5625 5.90625 13.5625Z" fill="white" />
</svg>
