<svg width="48" height="48" viewBox="0 0 48 48" fill="none" xmlns="http://www.w3.org/2000/svg">
<rect width="48" height="48" rx="24" fill="url(#paint0_linear)"/>
<path d="M23.99 14C18.47 14 14 18.48 14 24C14 29.52 18.47 34 23.99 34C29.52 34 34 29.52 34 24C34 18.48 29.52 14 23.99 14ZM24 32C19.58 32 16 28.42 16 24C16 19.58 19.58 16 24 16C28.42 16 32 19.58 32 24C32 28.42 28.42 32 24 32ZM23.78 19H23.72C23.32 19 23 19.32 23 19.72V24.44C23 24.79 23.18 25.12 23.49 25.3L27.64 27.79C27.98 27.99 28.42 27.89 28.62 27.55C28.6702 27.469 28.7036 27.3788 28.7182 27.2846C28.7328 27.1905 28.7283 27.0943 28.705 27.002C28.6817 26.9096 28.64 26.8229 28.5824 26.7469C28.5249 26.671 28.4526 26.6074 28.37 26.56L24.5 24.26V19.72C24.5 19.32 24.18 19 23.78 19Z" fill="white"/>
<defs>
<linearGradient id="paint0_linear" x1="4.28721e-07" y1="15.9668" x2="48" y2="15.9668" gradientUnits="userSpaceOnUse">
<stop stop-color="#AA106F"/>
<stop offset="1" stop-color="#DF6F67"/>
</linearGradient>
</defs>
</svg>
