<svg width="24" height="31" viewBox="0 0 24 31" fill="none" xmlns="http://www.w3.org/2000/svg">
<path d="M22.4652 30.7409C22.2158 30.8706 21.9358 30.93 21.6552 30.9126C21.3746 30.8952 21.1041 30.8018 20.8726 30.6423L0.830965 16.7673C0.626173 16.6254 0.458817 16.436 0.343227 16.2153C0.227638 15.9946 0.167259 15.7491 0.167259 15.5C0.167259 15.2509 0.227638 15.0054 0.343227 14.7847C0.458817 14.564 0.626173 14.3746 0.830965 14.2328L20.8726 0.357759C21.1039 0.197723 21.3746 0.104008 21.6553 0.0867634C21.936 0.0695183 22.2161 0.1294 22.4653 0.259924C22.7144 0.390448 22.9231 0.58664 23.0687 0.827258C23.2144 1.06788 23.2914 1.34375 23.2915 1.62501V29.375C23.2916 29.6564 23.2146 29.9325 23.0689 30.1733C22.9232 30.414 22.7145 30.6103 22.4652 30.7409Z" fill="url(#paint0_linear)"/>
<defs>
<linearGradient id="paint0_linear" x1="0.999999" y1="15" x2="23" y2="15" gradientUnits="userSpaceOnUse">
<stop stop-color="#C01112"/>
<stop offset="1" stop-color="#930000"/>
</linearGradient>
</defs>
</svg>
