<svg width="24" height="31" viewBox="0 0 24 31" fill="none"
  xmlns="http://www.w3.org/2000/svg">
  <path d="M1.53483 30.7409C1.78422 30.8706 2.06422 30.93 2.34479 30.9126C2.62536 30.8952 2.8959 30.8018 3.12737 30.6423L23.169 16.7673C23.3738 16.6254 23.5412 16.436 23.6568 16.2153C23.7724 15.9946 23.8327 15.7491 23.8327 15.5C23.8327 15.2509 23.7724 15.0054 23.6568 14.7847C23.5412 14.564 23.3738 14.3746 23.169 14.2328L3.12737 0.357759C2.89608 0.197723 2.62542 0.104008 2.34469 0.0867634C2.06396 0.0695183 1.78386 0.1294 1.53472 0.259924C1.28558 0.390448 1.0769 0.58664 0.931262 0.827258C0.785627 1.06788 0.708591 1.34375 0.708496 1.62501V29.375C0.70845 29.6564 0.78543 29.9325 0.931093 30.1733C1.07676 30.414 1.28554 30.6103 1.53483 30.7409Z" fill="url(#paint0_linear)"/>
  <defs>
    <linearGradient id="paint0_linear" x1="23" y1="15" x2="1" y2="15" gradientUnits="userSpaceOnUse">
      <stop stop-color="#C01112"/>
      <stop offset="1" stop-color="#930000"/>
    </linearGradient>
  </defs>
</svg>
