<svg width="12" height="14" viewBox="0 0 12 14" fill="none"
  xmlns="http://www.w3.org/2000/svg">
  <path d="M7.45833 7.34409L7.98333 9.60742L6 8.41158L4.01667 9.60742L4.54167 7.34992L2.79167 5.83909L5.10167 5.64075L6 3.51159L6.89833 5.63492L9.20833 5.83325L7.45833 7.34409ZM6 1.86075L10.0833 3.67492V6.41658C10.0833 9.05325 8.345 11.4858 6 12.2091C3.655 11.4858 1.91667 9.05325 1.91667 6.41658V3.67492L6 1.86075ZM6 0.583252L0.75 2.91659V6.41658C0.75 9.65409 2.99 12.6816 6 13.4166C9.01 12.6816 11.25 9.65409 11.25 6.41658V2.91659L6 0.583252Z" fill="#C01112"/>
</svg>
