<svg width="14" height="14" viewBox="0 0 14 14" fill="none"
  xmlns="http://www.w3.org/2000/svg">
  <path fill-rule="evenodd" clip-rule="evenodd" d="M7 13.125C8.62445 13.125 10.1824 12.4797 11.331 11.331C12.4797 10.1824 13.125 8.62445 13.125 7C13.125 5.37555 12.4797 3.81763 11.331 2.66897C10.1824 1.52031 8.62445 0.875 7 0.875C5.37555 0.875 3.81763 1.52031 2.66897 2.66897C1.52031 3.81763 0.875 5.37555 0.875 7C0.875 8.62445 1.52031 10.1824 2.66897 11.331C3.81763 12.4797 5.37555 13.125 7 13.125ZM7 14C8.85652 14 10.637 13.2625 11.9497 11.9497C13.2625 10.637 14 8.85652 14 7C14 5.14348 13.2625 3.36301 11.9497 2.05025C10.637 0.737498 8.85652 0 7 0C5.14348 0 3.36301 0.737498 2.05025 2.05025C0.737498 3.36301 0 5.14348 0 7C0 8.85652 0.737498 10.637 2.05025 11.9497C3.36301 13.2625 5.14348 14 7 14Z" fill="#C01112"/>
  <path d="M7.81374 5.7645L5.80999 6.01562L5.73824 6.34812L6.13199 6.42075C6.38924 6.482 6.43999 6.57475 6.38399 6.83112L5.73824 9.86562C5.56849 10.6505 5.83011 11.0197 6.44524 11.0197C6.92211 11.0197 7.47599 10.7992 7.72711 10.4965L7.80411 10.1325C7.62911 10.2865 7.37361 10.3477 7.20386 10.3477C6.96324 10.3477 6.87574 10.1789 6.93786 9.88137L7.81374 5.7645Z" fill="#C01112"/>
  <path d="M7 4.8125C7.48325 4.8125 7.875 4.42075 7.875 3.9375C7.875 3.45425 7.48325 3.0625 7 3.0625C6.51675 3.0625 6.125 3.45425 6.125 3.9375C6.125 4.42075 6.51675 4.8125 7 4.8125Z" fill="#C01112"/>
</svg>
