<svg width="12" height="14" viewBox="0 0 12 14" fill="none" xmlns="http://www.w3.org/2000/svg">
<path d="M6.00033 0.333344C4.16233 0.333344 2.66699 1.82868 2.66699 3.66668V5.00001H2.00033C1.26499 5.00001 0.666992 5.59801 0.666992 6.33334V12.3333C0.666992 13.0687 1.26499 13.6667 2.00033 13.6667H10.0003C10.7357 13.6667 11.3337 13.0687 11.3337 12.3333V6.33334C11.3337 5.59801 10.7357 5.00001 10.0003 5.00001H9.33366V3.66668C9.33366 1.82868 7.83833 0.333344 6.00033 0.333344ZM4.00033 3.66668C4.00033 2.56401 4.89766 1.66668 6.00033 1.66668C7.10299 1.66668 8.00033 2.56401 8.00033 3.66668V5.00001H4.00033V3.66668ZM10.0017 12.3333H6.66699V10.8147C7.06366 10.5833 7.33366 10.158 7.33366 9.66668C7.33366 8.93134 6.73566 8.33334 6.00033 8.33334C5.26499 8.33334 4.66699 8.93134 4.66699 9.66668C4.66699 10.1573 4.93699 10.5833 5.33366 10.8147V12.3333H2.00033V6.33334H10.0003L10.0017 12.3333Z" fill="#C01112"/>
</svg>
