<svg width="46" height="22" viewBox="0 0 46 22" fill="none" xmlns="http://www.w3.org/2000/svg">
<path d="M43.5949 7.08889L34.1092 5.57909L31.3583 1.63203C30.6442 0.611111 29.4491 0 28.1713 0H13.9955C12.7102 0 11.5225 0.611111 10.8085 1.63203L8.47845 4.97516L6.31374 2.90458C5.59969 2.22157 4.61504 1.83333 3.60035 1.83333H0.962074C0.435924 1.83333 0 2.24314 0 2.75359C0 3.25686 0.428396 3.67386 0.962074 3.67386H3.60784C4.11143 3.67386 4.60751 3.86797 4.96077 4.21307L6.7572 5.93137L2.17973 7.01699C0.89445 7.32614 0 8.41895 0 9.68431V14.2928C0 15.3712 0.443482 16.3922 1.24019 17.1542C2.02943 17.902 3.11926 18.3333 4.2317 18.3333H6.80981C7.25326 20.4255 9.19252 22 11.5075 22C13.8226 22 15.7543 20.4255 16.2053 18.3333H28.8553C29.2987 20.4255 31.238 22 33.553 22C35.8681 22 37.7998 20.4255 38.2508 18.3333H42.5426C43.2717 18.3333 43.9331 17.9451 44.2563 17.3196L45.8047 14.3503C45.8348 14.2856 45.8648 14.2209 45.8798 14.149L45.9776 13.7392C45.9926 13.6745 46 13.6026 46 13.5307V9.79935C46 8.4549 44.9928 7.31177 43.5948 7.08889H43.5949ZM11.5 20.1667C9.91407 20.1667 8.62125 18.9301 8.62125 17.4131C8.62125 15.8961 9.91407 14.6595 11.5 14.6595C13.086 14.6595 14.3788 15.8961 14.3788 17.4131C14.3788 18.9301 13.086 20.1667 11.5 20.1667ZM33.5455 20.1667C31.9595 20.1667 30.6667 18.9301 30.6667 17.4131C30.6667 15.8961 31.9595 14.6595 33.5455 14.6595C35.1315 14.6595 36.4243 15.8961 36.4243 17.4131C36.4169 18.9301 35.1239 20.1667 33.5455 20.1667ZM44.0835 13.4301L42.5351 16.5H38.2432C37.7998 14.4078 35.8605 12.8333 33.5455 12.8333C31.2305 12.8333 29.2987 14.4078 28.8478 16.5H16.1978C15.7543 14.4078 13.815 12.8333 11.5 12.8333C9.18497 12.8333 7.25326 14.4078 6.80228 16.5H4.2317C3.62285 16.5 3.02908 16.2627 2.59312 15.8529C2.1572 15.4359 1.91666 14.8824 1.91666 14.2856V9.67712C1.91666 9.25294 2.21731 8.89347 2.64576 8.78562L8.86178 7.29739C9.09478 7.23987 9.29772 7.10327 9.42551 6.91634L12.402 2.63856C12.7553 2.12811 13.3566 1.81895 13.9955 1.81895H28.1713C28.8102 1.81895 29.4115 2.12092 29.7648 2.63856L32.7413 6.91634C32.8841 7.12484 33.1171 7.26863 33.3802 7.31177L43.2792 8.89346C43.7452 8.96536 44.0835 9.3464 44.0835 9.79935V13.4301Z" fill="white"/>
</svg>
