<svg width="46" height="29" viewBox="0 0 46 29" fill="none" xmlns="http://www.w3.org/2000/svg">
<path d="M46 7.48174C46 6.81335 45.797 6.13776 45.3386 5.57717L41.6931 1.12118C41.0843 0.380915 40.1523 0 39.2278 0C38.6791 0 38.1154 0.136554 37.6193 0.431224L34.064 2.54422C33.6882 2.77421 33.0493 2.92514 32.433 2.92514C31.952 2.92514 31.4859 2.83171 31.1778 2.68797L27.6977 1.07806C27.134 0.819327 26.5101 0.71152 25.8787 0.71152C24.9768 0.718708 24.0598 0.927132 23.3232 1.41585L22.9173 1.68896C22.5941 1.53085 22.098 1.30086 21.5343 1.02775C20.8578 0.71152 20.0686 0.582153 19.2644 0.582153C18.5428 0.582153 17.8212 0.689959 17.1823 0.948694L14.8147 1.91895C14.4314 2.07706 13.815 2.18487 13.2062 2.17768C12.5974 2.17768 11.981 2.07706 11.5977 1.91895L9.22254 0.948694C8.7866 0.769017 8.3281 0.697146 7.8696 0.697146C7.34346 0.697146 6.81731 0.797765 6.32875 0.984629C5.84019 1.17149 5.38922 1.45179 5.02843 1.83989L0.714037 6.46837C0.240506 6.97865 0 7.62549 0 8.25795C0 9.01259 0.338232 9.77442 0.992155 10.3063L5.02091 13.5908L3.11176 15.4953C2.58561 16.02 2.32254 16.7028 2.32254 17.3783C2.32254 18.097 2.62319 18.823 3.20947 19.3548L3.60032 19.707C3.96862 20.0376 4.40457 20.246 4.86307 20.361C4.63006 20.7635 4.5098 21.2091 4.5098 21.6547C4.5098 22.3734 4.81045 23.0993 5.39673 23.6311L5.78757 23.9833C6.34378 24.4864 7.05783 24.7379 7.76437 24.7379C8.1477 24.7379 8.52353 24.666 8.88431 24.5223C9.01209 25.011 9.26763 25.471 9.67351 25.8447L10.0644 26.1969C10.6206 26.7 11.3346 26.9515 12.0412 26.9515C12.5974 26.9515 13.1536 26.7934 13.6271 26.4916C13.7699 26.9228 14.0105 27.3324 14.3712 27.663L14.7621 28.0152C15.3108 28.5183 16.0323 28.7699 16.7389 28.7699C17.4905 28.7699 18.2497 28.4896 18.8134 27.929L20.5046 26.24L22.7971 28.2739C23.3457 28.7627 24.0523 29.007 24.7513 28.9998C25.518 28.9998 26.2846 28.7052 26.8484 28.1302L27.2167 27.7565C27.5323 27.4331 27.7428 27.045 27.8556 26.6425L28.7425 27.4259C29.2912 27.9146 29.9977 28.1518 30.6892 28.1518C31.4559 28.1518 32.2301 27.8571 32.7938 27.2821L33.1546 26.9084C33.5755 26.4772 33.8085 25.9453 33.8837 25.3991C34.1167 25.4566 34.3572 25.4926 34.5977 25.4926C35.3644 25.4926 36.1386 25.1979 36.7023 24.6229L37.0706 24.2492C37.5817 23.7245 37.8372 23.0561 37.8372 22.3949C37.8372 22.1865 37.8072 21.9853 37.7621 21.784C38.3935 21.705 39.0098 21.4319 39.4833 20.9503L39.8516 20.5766C40.3627 20.0519 40.6183 19.3835 40.6183 18.7223C40.6183 17.9964 40.3101 17.2562 39.7088 16.7243L39.0248 16.1206L45.2108 9.58037C45.7444 8.99103 46 8.2292 46 7.48174ZM5.5696 18.9667C5.23888 18.9667 4.9232 18.8517 4.66764 18.6289L4.27679 18.2767C4.0062 18.0324 3.87843 17.7089 3.87091 17.3783C3.87091 17.0693 3.99116 16.7603 4.23169 16.5231L8.1477 12.6133C8.40325 12.3618 8.7415 12.2324 9.09477 12.2324C9.41798 12.2324 9.74118 12.3474 9.99673 12.5702L10.3801 12.9224C10.3801 12.9224 10.7784 13.4901 10.7784 13.8207C10.7784 14.0723 10.6957 14.3095 10.5454 14.5251C10.5304 14.5394 6.32123 18.7367 6.32123 18.7367C6.10325 18.8876 5.84019 18.9667 5.5696 18.9667ZM8.69639 22.8621C8.44083 23.1136 8.1026 23.243 7.74934 23.243C7.41862 23.243 7.10293 23.128 6.84738 22.9052L6.45652 22.553C6.19345 22.3087 6.05816 21.9853 6.05816 21.6547C6.05816 21.3456 6.17842 21.0366 6.41142 20.7994C6.41142 20.7994 11.6278 15.6031 11.6729 15.5528C11.9209 15.3228 12.2441 15.2078 12.5748 15.2078C12.9055 15.2078 13.2212 15.3228 13.4768 15.5456L13.8676 15.8978C14.1382 16.1422 14.266 16.4656 14.266 16.7962C14.266 17.1052 14.1457 17.4143 13.9052 17.6515L8.69639 22.8621ZM12.9732 25.0757C12.7176 25.3272 12.3794 25.4566 12.0336 25.4566C11.7029 25.4566 11.3872 25.3416 11.1317 25.1188L10.7408 24.7667C10.4702 24.5223 10.3425 24.1989 10.3425 23.8683C10.3425 23.588 10.4402 23.3221 10.6281 23.0993L14.266 19.4698C14.514 19.2614 14.8147 19.1464 15.1379 19.1464C15.4686 19.1464 15.7843 19.2614 16.0399 19.4842L16.4307 19.8363C16.6938 20.0807 16.8291 20.4041 16.8291 20.7347C16.8291 21.0438 16.7088 21.3528 16.4683 21.59L12.9732 25.0757ZM19.8807 24.6948L17.6784 26.894C17.4229 27.1456 17.0846 27.2749 16.7314 27.2749C16.4007 27.2749 16.085 27.16 15.8294 26.9372L15.4386 26.585C15.1755 26.3406 15.0402 26.0172 15.0402 25.6866C15.0402 25.3776 15.1604 25.0685 15.401 24.8313L17.6033 22.6321C17.8588 22.3805 18.1971 22.2512 18.5503 22.2512C18.8735 22.2512 19.1967 22.3662 19.4523 22.589L19.8431 22.9411C20.1062 23.1855 20.2415 23.5089 20.2415 23.8395C20.234 24.1486 20.1212 24.4504 19.8807 24.6948ZM39.0399 18.7223C39.0399 19.0314 38.9271 19.326 38.6941 19.5632L38.3258 19.9369C38.0703 20.1957 37.7245 20.3322 37.3712 20.3322C37.048 20.3322 36.7323 20.2244 36.4843 20.0016L30.3284 14.5538L29.2611 15.6463L35.8529 21.4822C36.131 21.7265 36.2663 22.0571 36.2663 22.3949C36.2663 22.704 36.1536 22.9986 35.9206 23.2358L35.5598 23.6095C35.3043 23.8683 34.9585 24.0048 34.6052 24.0048C34.282 24.0048 33.9663 23.897 33.7183 23.6742L27.5549 18.2336L26.4876 19.326L31.952 24.1558C32.215 24.4001 32.3503 24.7163 32.3503 25.047C32.3503 25.356 32.2376 25.6507 32.0046 25.8878L31.6363 26.2616C31.3807 26.5203 31.035 26.6569 30.6817 26.6569C30.3585 26.6569 30.0428 26.5491 29.7948 26.3263L24.3379 21.5109L23.2781 22.6033L23.3006 22.6249L26.0291 25.0326C26.2696 25.2698 26.3974 25.5788 26.3974 25.8878C26.3974 26.1897 26.2846 26.4916 26.0516 26.7287L25.6833 27.1025C25.4278 27.3612 25.082 27.4978 24.7288 27.4978C24.4056 27.4978 24.0899 27.3899 23.8418 27.1671L21.4667 25.0613C21.6771 24.6732 21.7899 24.2492 21.7899 23.8323C21.7899 23.1136 21.4892 22.3949 20.9029 21.8559L20.5121 21.5037C19.9634 21.0006 19.2418 20.7491 18.5353 20.7563C18.4827 20.7563 18.4226 20.7706 18.3699 20.7706C18.3699 20.7563 18.3699 20.7419 18.3699 20.7347C18.3699 20.016 17.483 18.7583 17.483 18.7583L17.0922 18.4061C16.6788 18.0324 16.1752 17.7952 15.649 17.7018C15.7542 17.4071 15.8219 17.1052 15.8219 16.7962C15.8219 16.0775 15.5212 15.3516 14.935 14.8197L14.5441 14.4676C13.9879 13.9645 13.2739 13.7129 12.5673 13.7129C12.4846 13.7129 12.402 13.7273 12.3193 13.7345C12.2967 13.0445 12.0036 12.3546 11.4399 11.8443L11.049 11.4921C10.4928 10.989 9.77875 10.7375 9.07222 10.7375C8.32058 10.7375 7.56143 11.0178 6.99771 11.5784L6.07321 12.4983L2.00687 9.17789C1.71373 8.93353 1.56341 8.60293 1.56341 8.26514C1.56341 7.97765 1.66863 7.69736 1.8866 7.46737L6.20851 2.83889C6.38138 2.65203 6.63693 2.48673 6.93007 2.37173C7.23072 2.25674 7.56144 2.19206 7.87712 2.19206C8.15523 2.19206 8.41078 2.24237 8.61372 2.32143L10.9889 3.29168C11.6578 3.5576 12.432 3.6726 13.2137 3.6726C13.9954 3.6726 14.7696 3.5576 15.4386 3.29168L17.8062 2.32143C18.1745 2.1705 18.7232 2.07706 19.2719 2.07706C19.8807 2.07706 20.482 2.19206 20.8353 2.36455C21.0608 2.47235 21.2712 2.57297 21.4667 2.6664L19.0539 4.29068C18.2797 4.81534 17.8588 5.64185 17.8588 6.48274C17.8588 7.03615 18.0392 7.60392 18.415 8.07827L18.7307 8.48794C19.3395 9.25695 20.2791 9.65224 21.2261 9.65943C21.7598 9.65943 22.301 9.53006 22.7895 9.24976L24.2327 8.41606C24.5258 8.24357 24.9693 8.13577 25.4353 8.13577C25.9765 8.13577 26.5252 8.2867 26.8484 8.51668L30.8471 11.2621C31.734 11.873 33.1846 13.0014 33.9889 13.7129L38.619 17.8024C38.8971 18.0539 39.0399 18.3845 39.0399 18.7223ZM44.0232 8.58137L37.8523 15.1L35.0562 12.6277C34.1768 11.8515 32.7337 10.7231 31.7641 10.0547L27.7654 7.30926C27.0889 6.84928 26.2546 6.64804 25.4353 6.64804C24.7363 6.64804 24.0297 6.79897 23.4284 7.14395L21.9853 7.97765C21.7673 8.10702 21.5042 8.1717 21.2336 8.1717C20.7451 8.1717 20.264 7.95609 19.9935 7.60392L19.6778 7.19426C19.5049 6.97865 19.4297 6.73429 19.4297 6.48274C19.4297 6.10901 19.6101 5.74247 19.9634 5.5053L24.2402 2.63047C24.6085 2.37173 25.2699 2.19206 25.8938 2.19924C26.3297 2.19924 26.7431 2.2783 27.0288 2.41486L30.5088 4.02476C31.1026 4.29787 31.7716 4.40568 32.448 4.41286C33.3124 4.40568 34.1918 4.226 34.9059 3.80915L38.4611 1.69615C38.6866 1.55959 38.9572 1.48772 39.2428 1.48772C39.7238 1.48772 40.2049 1.69615 40.4755 2.03394L44.1209 6.48993C44.3314 6.74866 44.4516 7.10802 44.4516 7.48174C44.4366 7.89859 44.2863 8.31545 44.0232 8.58137Z" fill="white"/>
</svg>
