<svg width="37" height="28" viewBox="0 0 37 28" fill="none" xmlns="http://www.w3.org/2000/svg">
<path d="M34.3844 0H2.59847C1.16629 0 0 1.16245 0 2.58991V24.4415C0 25.8689 1.16629 27.0314 2.59847 27.0314H34.3844C35.8166 27.0314 36.9829 25.8689 36.9829 24.4415V2.58991C36.9829 1.16245 35.8166 0 34.3844 0ZM35.7501 24.4415C35.7501 25.1944 35.1398 25.8027 34.3844 25.8027H2.59847C1.8431 25.8027 1.23277 25.1944 1.23277 24.4415V2.58991C1.23277 1.83703 1.8431 1.2287 2.59847 1.2287H34.3844C35.1398 1.2287 35.7501 1.83703 35.7501 2.58991V24.4415ZM13.9532 17.3524L11.7112 16.208V15.9731C12.7144 15.425 13.4214 14.5276 13.8142 13.2928C14.4124 12.9796 14.7932 12.3593 14.7932 11.6726V11.0583C14.7932 10.4921 14.5273 9.9621 14.0861 9.61276C13.6994 7.28787 12.0738 6.11338 9.24572 6.11338C9.11278 6.11338 8.97983 6.11941 8.85293 6.12542C8.32115 6.16759 7.5416 6.12542 6.86479 5.67369C6.61098 5.50505 6.42367 5.34243 6.30281 5.18583C6.09735 4.92082 5.74685 4.83047 5.43866 4.95695C5.13047 5.08344 4.94918 5.39061 4.98544 5.72188C5.00961 5.95076 5.05191 6.22179 5.1063 6.5109C5.22716 7.10718 5.22716 7.10718 5.05795 7.46856C4.99752 7.60709 4.91896 7.76971 4.82832 7.99256C4.62285 8.49248 4.47783 9.03455 4.39323 9.61878C3.95814 9.96812 3.69224 10.4921 3.69224 11.0523V11.6666C3.69224 12.3532 4.07295 12.9736 4.6712 13.2868C5.06399 14.5215 5.77102 15.425 6.77415 15.9671V16.1959L4.45366 17.3403C3.60765 17.8041 3.07586 18.6835 3.07586 19.6471V20.4602C3.07586 20.9541 3.07586 22.1106 9.23967 22.1106C15.4035 22.1106 15.4035 20.9541 15.4035 20.4602V19.6953C15.4095 18.7015 14.8536 17.8041 13.9532 17.3524V17.3524ZM14.1768 20.3277C13.79 20.5626 12.2249 20.8879 9.24572 20.8879C6.26654 20.8879 4.70141 20.5626 4.31466 20.3277V19.6532C4.31466 19.1412 4.59264 18.6654 5.02773 18.4365L7.40261 17.268C7.77123 17.0874 8.01295 16.7019 8.01295 16.2923V15.1841L7.6383 15.0214C6.70164 14.6179 6.09734 13.853 5.77707 12.6785L5.68641 12.3532L5.3601 12.2509C5.10026 12.1726 4.91897 11.9316 4.91897 11.6666V11.0523C4.91897 10.8294 5.04587 10.6246 5.25133 10.5162L5.54138 10.3656L5.57764 10.0404C5.63807 9.46219 5.76497 8.93216 5.95834 8.46236C6.04294 8.2636 6.10942 8.11303 6.16381 7.99257C6.37531 7.54686 6.44783 7.31197 6.39344 6.84217C7.1186 7.25776 7.98878 7.43243 8.93148 7.36015C9.02817 7.35412 9.12485 7.34811 9.22758 7.34811C11.536 7.34811 12.66 8.17929 12.8836 10.0524L12.9198 10.3717L13.2039 10.5222C13.4093 10.6307 13.5362 10.8415 13.5362 11.0643V11.6787C13.5362 11.9437 13.3549 12.1786 13.0951 12.2629L12.7688 12.3653L12.6781 12.6905C12.3639 13.865 11.7535 14.63 10.8169 15.0335L10.4422 15.1961V16.3104C10.4422 16.7199 10.6719 17.0934 11.0344 17.2801L13.361 18.4666C13.8384 18.7076 14.1405 19.1834 14.1405 19.7194V20.3277L14.1768 20.3277ZM18.4914 9.21524H24.6552C24.9937 9.21524 25.2716 8.93818 25.2716 8.60089C25.2716 8.2636 24.9937 7.98654 24.6552 7.98654H18.4914C18.153 7.98654 17.875 8.2636 17.875 8.60089C17.875 8.93818 18.153 9.21524 18.4914 9.21524ZM27.1208 9.21524H27.7371C28.0756 9.21524 28.3535 8.93818 28.3535 8.60089C28.3535 8.2636 28.0756 7.98654 27.7371 7.98654H27.1208C26.7824 7.98654 26.5044 8.2636 26.5044 8.60089C26.5044 8.93818 26.7824 9.21524 27.1208 9.21524ZM19.1078 18.4305H18.4914C18.153 18.4305 17.875 18.7075 17.875 19.0448C17.875 19.3821 18.153 19.6592 18.4914 19.6592H19.1078C19.4462 19.6592 19.7242 19.3821 19.7242 19.0448C19.7242 18.7075 19.4462 18.4305 19.1078 18.4305ZM22.8061 18.4305H21.5733C21.2349 18.4305 20.957 18.7075 20.957 19.0448C20.957 19.3821 21.2349 19.6592 21.5733 19.6592H22.8061C23.1445 19.6592 23.4225 19.3821 23.4225 19.0448C23.4225 18.7075 23.1445 18.4305 22.8061 18.4305ZM25.888 18.4305H25.2716C24.9332 18.4305 24.6552 18.7075 24.6552 19.0448C24.6552 19.3821 24.9332 19.6592 25.2716 19.6592H25.888C26.2264 19.6592 26.5044 19.3821 26.5044 19.0448C26.5044 18.7075 26.2264 18.4305 25.888 18.4305ZM29.5863 18.4305H28.3535C28.0151 18.4305 27.7371 18.7075 27.7371 19.0448C27.7371 19.3821 28.0151 19.6592 28.3535 19.6592H29.5863C29.9247 19.6592 30.2027 19.3821 30.2027 19.0448C30.2027 18.7075 29.9247 18.4305 29.5863 18.4305ZM31.6167 18.6112C31.508 18.7256 31.4354 18.8882 31.4354 19.0448C31.4354 19.2014 31.5019 19.3641 31.6167 19.4785C31.7315 19.5869 31.8947 19.6592 32.0518 19.6592C32.215 19.6592 32.3721 19.5929 32.4869 19.4785C32.5957 19.3641 32.6682 19.2014 32.6682 19.0448C32.6682 18.8882 32.6017 18.7256 32.4869 18.6112C32.2573 18.3823 31.8403 18.3823 31.6167 18.6112ZM32.0518 11.6726H18.4914C18.153 11.6726 17.875 11.9497 17.875 12.287C17.875 12.6243 18.153 12.9013 18.4914 12.9013H32.0518C32.3902 12.9013 32.6682 12.6243 32.6682 12.287C32.6682 11.9497 32.3902 11.6726 32.0518 11.6726ZM32.0518 15.3587H18.4914C18.153 15.3587 17.875 15.6358 17.875 15.9731C17.875 16.3104 18.153 16.5874 18.4914 16.5874H32.0518C32.3902 16.5874 32.6682 16.3104 32.6682 15.9731C32.6682 15.6358 32.3902 15.3587 32.0518 15.3587Z" fill="white"/>
</svg>
