<svg width="14" height="14" viewBox="0 0 14 14" fill="none"
  xmlns="http://www.w3.org/2000/svg">
  <path d="M6.94324 3.48883C6.59712 3.48883 6.25878 3.59147 5.97099 3.78376C5.6832 3.97605 5.4589 4.24936 5.32645 4.56913C5.194 4.88891 5.15934 5.24077 5.22686 5.58024C5.29439 5.91971 5.46106 6.23153 5.7058 6.47627C5.95054 6.72101 6.26236 6.88768 6.60183 6.9552C6.9413 7.02273 7.29316 6.98807 7.61293 6.85562C7.9327 6.72317 8.20602 6.49886 8.39831 6.21108C8.5906 5.92329 8.69324 5.58495 8.69324 5.23883C8.69271 4.77486 8.50817 4.33005 8.18009 4.00198C7.85202 3.6739 7.4072 3.48936 6.94324 3.48883ZM6.94324 6.11383C6.77018 6.11383 6.60101 6.06251 6.45711 5.96637C6.31322 5.87022 6.20107 5.73356 6.13484 5.57368C6.06862 5.41379 6.05129 5.23786 6.08505 5.06813C6.11881 4.89839 6.20215 4.74248 6.32452 4.62011C6.44689 4.49774 6.6028 4.41441 6.77253 4.38064C6.94227 4.34688 7.1182 4.36421 7.27809 4.43044C7.43797 4.49666 7.57463 4.60881 7.67077 4.75271C7.76692 4.8966 7.81824 5.06577 7.81824 5.23883C7.81797 5.47081 7.7257 5.69322 7.56166 5.85725C7.39762 6.02129 7.17522 6.11356 6.94324 6.11383Z" fill="#19B400"/>
  <path d="M10.306 1.87347C9.47458 1.04223 8.36469 0.548444 7.19058 0.487406C6.01647 0.426367 4.86136 0.802407 3.9482 1.54295C3.03504 2.28349 2.42856 3.33604 2.24581 4.49744C2.06305 5.65885 2.31699 6.84678 2.9586 7.83197L6.26465 12.9073C6.33822 13.0203 6.43881 13.1131 6.55731 13.1773C6.67581 13.2415 6.80847 13.2752 6.94325 13.2752C7.07804 13.2752 7.21069 13.2415 7.32919 13.1773C7.44769 13.1131 7.54828 13.0203 7.62186 12.9073L10.928 7.83197C11.5234 6.91807 11.7865 5.82729 11.6732 4.74247C11.56 3.65765 11.0773 2.64473 10.306 1.87347ZM10.1949 7.35436L6.94327 12.346L3.69163 7.35436C2.69632 5.82642 2.90979 3.78166 4.19921 2.49218C4.55956 2.13182 4.98736 1.84596 5.45819 1.65094C5.92902 1.45591 6.43365 1.35553 6.94327 1.35553C7.45289 1.35553 7.95752 1.45591 8.42834 1.65094C8.89917 1.84596 9.32697 2.13182 9.68732 2.49218C10.9767 3.78166 11.1902 5.82642 10.1949 7.35436Z" fill="#19B400"/>
</svg>
