<svg xmlns="http://www.w3.org/2000/svg" xmlns:xlink="http://www.w3.org/1999/xlink" width="20.001" height="21.74" viewBox="0 0 23 25">
  <defs>
    <style>
      .cls-1 {
        fill: #fff;
        fill-rule: evenodd;
        filter: url(#filter);
      }
    </style>
    <filter id="filter" x="1007" y="921" width="23" height="25" filterUnits="userSpaceOnUse">
      <feOffset result="offset" in="SourceAlpha"/>
      <feGaussianBlur result="blur" stdDeviation="1.732"/>
      <feFlood result="flood" flood-opacity="0.4"/>
      <feComposite result="composite" operator="in" in2="blur"/>
      <feBlend result="blend" in="SourceGraphic"/>
    </filter>
  </defs>
  <path id="Фигура_8_копия" data-name="Фигура 8 копия" class="cls-1" d="M1025.12,926.651l-2.34-2.454a0.53,0.53,0,0,0-.77-0.008l-0.64.644a0.577,0.577,0,0,0-.01.8l1.42,1.5a2.8,2.8,0,0,0-1.73,3.037,2.759,2.759,0,0,0,2.29,2.334,2.62,2.62,0,0,0,1.67-.306v8.129a0.609,0.609,0,0,1-.6.616h-0.6a0.6,0.6,0,0,1-.6-0.616V935.4a2.634,2.634,0,0,0-2.6-2.671h-0.97v-6.778a2.909,2.909,0,0,0-2.87-2.953h-4.9a2.916,2.916,0,0,0-2.87,2.953v15.643a1.149,1.149,0,0,0,1.13,1.161h8.39a1.14,1.14,0,0,0,1.12-1.161V934.78h0.97a0.609,0.609,0,0,1,.6.617v4.929a2.633,2.633,0,0,0,2.6,2.67h0.6a2.633,2.633,0,0,0,2.6-2.67v-8.9A6.885,6.885,0,0,0,1025.12,926.651Zm-1.39,4.021a0.929,0.929,0,1,1,.9-0.929A0.913,0.913,0,0,1,1023.73,930.672Zm-6.08-.949a0.988,0.988,0,0,1-.97,1h-4.43a0.988,0.988,0,0,1-.97-1v-3.187a0.988,0.988,0,0,1,.97-1h4.43a0.988,0.988,0,0,1,.97,1v3.187Z" transform="translate(-1007 -921)"/>
</svg>
