<svg xmlns="http://www.w3.org/2000/svg" width="23.563" height="15.687" viewBox="0 0 23.563 15.687">
  <defs>
    <style>
      .cls-1 {
        fill: #0036ff;
        fill-rule: evenodd;
      }
    </style>
  </defs>
  <path id="Фигура_6" data-name="Фигура 6" class="cls-1" d="M890.3,937.64a6.053,6.053,0,0,1-6.023-6.057v-3.6a6.023,6.023,0,0,1,9.034-5.237l3.1,1.8a6.06,6.06,0,0,1,0,10.475l-3.1,1.8A5.984,5.984,0,0,1,890.3,937.64Zm0-13.088a3.432,3.432,0,0,0-3.414,3.433v3.6a3.414,3.414,0,0,0,5.121,2.968l3.1-1.8a3.435,3.435,0,0,0,0-5.937l-3.1-1.8A3.4,3.4,0,0,0,890.3,924.552Zm-8.291-.03h-5.406a0.723,0.723,0,0,1-.721-0.724h0a0.723,0.723,0,0,1,.721-0.724h5.406a0.722,0.722,0,0,1,.721.724h0A0.722,0.722,0,0,1,882.011,924.522Zm0,2.654h-5.406a0.723,0.723,0,0,1-.721-0.724h0a0.723,0.723,0,0,1,.721-0.724h5.406a0.722,0.722,0,0,1,.721.724h0A0.722,0.722,0,0,1,882.011,927.176Zm0,2.653h-5.406a0.723,0.723,0,0,1-.721-0.724h0a0.722,0.722,0,0,1,.721-0.723h5.406a0.722,0.722,0,0,1,.721.723h0A0.722,0.722,0,0,1,882.011,929.829Zm0,2.654h-5.406a0.723,0.723,0,0,1-.721-0.724h0a0.722,0.722,0,0,1,.721-0.723h5.406a0.722,0.722,0,0,1,.721.723h0A0.722,0.722,0,0,1,882.011,932.483Zm0,2.654h-5.406a0.723,0.723,0,0,1-.721-0.724h0a0.723,0.723,0,0,1,.721-0.724h5.406a0.722,0.722,0,0,1,.721.724h0A0.722,0.722,0,0,1,882.011,935.137Z" transform="translate(-875.875 -921.938)"/>
</svg>
