<svg xmlns="http://www.w3.org/2000/svg" width="43.875" height="143" viewBox="0 0 43.875 143">
  <defs>
    <style>
      .cls-1 {
        fill-rule: evenodd;
        opacity: 0.6;
      }
    </style>
  </defs>
  <path id="Фигура_2" data-name="Фигура 2" class="cls-1" d="M834.111,1045.03a4.617,4.617,0,0,1-3.959,6.97H812.918a6.937,6.937,0,0,1-6.23-3.87c-1.337-2.71-2.6-5.48-3.78-8.28a153.36,153.36,0,0,1,0-118.5q1.817-4.317,3.879-8.488A6.945,6.945,0,0,1,813.014,909h17.255a4.62,4.62,0,0,1,3.955,6.978A126.889,126.889,0,0,0,834.111,1045.03Z" transform="translate(-791 -909)"/>
</svg>
