<svg xmlns="http://www.w3.org/2000/svg" width="43.88" height="143" viewBox="0 0 43.88 143">
  <defs>
    <style>
      .cls-1 {
        fill-rule: evenodd;
        opacity: 0.6;
      }
    </style>
  </defs>
  <path id="Фигура_1" data-name="Фигура 1" class="cls-1" d="M1092.09,921.349q-1.815-4.317-3.88-8.488a6.936,6.936,0,0,0-6.22-3.861h-17.26a4.617,4.617,0,0,0-3.95,6.978,126.929,126.929,0,0,1,.11,129.052,4.618,4.618,0,0,0,3.96,6.97h17.23a6.934,6.934,0,0,0,6.23-3.87c1.34-2.71,2.6-5.48,3.78-8.28A153.336,153.336,0,0,0,1092.09,921.349Z" transform="translate(-1060.12 -909)"/>
</svg>
