<svg width="14" height="14" viewBox="0 0 14 14" fill="none"
  xmlns="http://www.w3.org/2000/svg">
  <path d="M11.0833 1.16675H5.24996C4.60654 1.16675 4.08329 1.69 4.08329 2.33341V5.59191L1.33754 8.33766C1.25598 8.41924 1.20045 8.52317 1.17795 8.63631C1.15545 8.74945 1.167 8.86672 1.21114 8.9733C1.25529 9.07987 1.33003 9.17097 1.42594 9.23507C1.52185 9.29916 1.6346 9.33339 1.74996 9.33341V12.2501C1.74996 12.4048 1.81142 12.5532 1.92081 12.6626C2.03021 12.772 2.17858 12.8334 2.33329 12.8334H11.6666C11.8213 12.8334 11.9697 12.772 12.0791 12.6626C12.1885 12.5532 12.25 12.4048 12.25 12.2501V2.33341C12.25 1.69 11.7267 1.16675 11.0833 1.16675ZM6.41662 11.6667H2.91662V8.40825L4.66662 6.65825L6.41662 8.40825V11.6667ZM11.0833 11.6667H7.58329V9.33341C7.69877 9.33367 7.81172 9.29961 7.90781 9.23556C8.0039 9.1715 8.07879 9.08035 8.12298 8.97366C8.16716 8.86697 8.17866 8.74955 8.156 8.63632C8.13334 8.52308 8.07755 8.41914 7.99571 8.33766L5.24996 5.59191V2.33341H11.0833V11.6667Z" fill="#C01112"/>
  <path d="M6.41659 3.5H7.58325V4.66667H6.41659V3.5ZM8.74992 3.5H9.91658V4.66667H8.74992V3.5ZM8.74992 5.85142H9.91658V7H8.74992V5.85142ZM8.74992 8.16667H9.91658V9.33333H8.74992V8.16667ZM4.08325 8.75H5.24992V9.91667H4.08325V8.75Z" fill="#C01112"/>
</svg>
