<svg width="26" height="19" viewBox="0 0 26 19" fill="none" xmlns="http://www.w3.org/2000/svg">
<g clip-path="url(#clip0)">
<g filter="url(#filter0_d)">
<path fill-rule="evenodd" clip-rule="evenodd" d="M10.6578 2.22375C12.131 2.23187 13.5409 2.83021 14.579 3.88783C15.617 4.94545 16.1987 6.37616 16.1966 7.86674L16.1966 11.2188C16.2032 12.2074 15.9503 13.18 15.4636 14.0373C14.977 14.8946 14.2741 15.6058 13.4268 16.0981C12.5876 16.5983 11.6314 16.8621 10.6575 16.8621C9.68349 16.8621 8.7273 16.5983 7.88812 16.0981L5.03463 14.4225C4.19199 13.9249 3.49293 13.2125 3.00709 12.3564C2.52125 11.5003 2.26556 10.5303 2.26556 9.54313C2.26556 8.55592 2.52125 7.58592 3.00709 6.72982C3.49293 5.87371 4.19199 5.1614 5.03463 4.66378L7.88812 2.98739C8.72849 2.48977 9.68416 2.2263 10.6578 2.22375ZM10.6578 14.4173C11.4926 14.4123 12.2915 14.073 12.8797 13.4736C13.4679 12.8742 13.7976 12.0635 13.7966 11.2188L13.7966 7.86674C13.8005 7.30649 13.6572 6.75523 13.3814 6.26939C13.1057 5.78354 12.7074 5.38053 12.2272 5.10151C11.7517 4.81803 11.2098 4.66851 10.6578 4.66851C10.1059 4.66851 9.56399 4.81803 9.08844 5.10151L6.23496 6.77714C5.75719 7.05906 5.36078 7.46275 5.08528 7.948C4.80979 8.43326 4.66484 8.9831 4.66484 9.54273C4.66484 10.1023 4.80979 10.6522 5.08528 11.1374C5.36078 11.6227 5.75719 12.0264 6.23496 12.3084L9.08844 13.984C9.56444 14.2664 10.106 14.416 10.6578 14.4173Z" fill="url(#paint0_linear)"/>
</g>
<g filter="url(#filter1_d)">
<path d="M18.9509 15.9466L23.256 13.4611C23.3315 13.4173 23.3975 13.3589 23.4502 13.2892C23.503 13.2195 23.5415 13.1399 23.5635 13.0549C23.5856 12.97 23.5907 12.8813 23.5787 12.794C23.5666 12.7067 23.5376 12.6224 23.4933 12.5461C23.4494 12.4694 23.3909 12.4021 23.3214 12.3479C23.2518 12.2937 23.1724 12.2537 23.0877 12.2302C23.0031 12.2068 22.9148 12.2003 22.828 12.2111C22.7412 12.222 22.6576 12.25 22.5819 12.2935L18.2768 14.779C18.2013 14.8228 18.1353 14.8812 18.0825 14.951C18.0297 15.0207 17.9912 15.1004 17.9692 15.1854C17.9471 15.2705 17.9421 15.3592 17.9542 15.4466C17.9664 15.5339 17.9955 15.6182 18.0399 15.6946C18.0839 15.7711 18.1423 15.8384 18.2119 15.8925C18.2815 15.9466 18.3608 15.9865 18.4454 16.0099C18.53 16.0333 18.6182 16.0397 18.705 16.0289C18.7917 16.018 18.8753 15.9901 18.9509 15.9466Z" fill="url(#paint1_linear)"/>
</g>
<g filter="url(#filter2_d)">
<path d="M18.9509 13.4744L23.256 10.9889C23.3314 10.9451 23.3974 10.8867 23.4502 10.817C23.503 10.7473 23.5415 10.6677 23.5635 10.5827C23.5856 10.4978 23.5907 10.4091 23.5786 10.3218C23.5666 10.2345 23.5376 10.1502 23.4933 10.0739C23.4493 9.99722 23.3909 9.92986 23.3213 9.87567C23.2517 9.82148 23.1723 9.78151 23.0877 9.75805C23.003 9.73458 22.9148 9.7281 22.828 9.73894C22.7412 9.74978 22.6576 9.77777 22.5818 9.82127L18.2768 12.3068C18.2013 12.3506 18.1352 12.409 18.0825 12.4788C18.0297 12.5485 17.9911 12.6282 17.9691 12.7132C17.9471 12.7983 17.9421 12.887 17.9542 12.9744C17.9663 13.0617 17.9955 13.146 18.0399 13.2224C18.0839 13.2989 18.1423 13.3662 18.2119 13.4203C18.2815 13.4744 18.3608 13.5143 18.4454 13.5377C18.53 13.5611 18.6182 13.5675 18.7049 13.5567C18.7917 13.5458 18.8753 13.5179 18.9509 13.4744Z" fill="url(#paint2_linear)"/>
</g>
<g filter="url(#filter3_d)">
<path d="M18.9511 11.0022L23.2562 8.51664C23.3317 8.47279 23.3982 8.41488 23.451 8.34507C23.5038 8.27526 23.5423 8.19551 23.5643 8.1104C23.5862 8.02529 23.5912 7.93651 23.579 7.84909C23.5668 7.76168 23.5376 7.67735 23.4931 7.60098C23.4492 7.52432 23.3907 7.45696 23.3211 7.40277C23.2515 7.34858 23.1722 7.30865 23.0875 7.28519C23.0029 7.26172 22.9146 7.2552 22.8278 7.26604C22.741 7.27688 22.6574 7.30487 22.5817 7.34837L18.2766 9.83389C18.2011 9.87771 18.1351 9.93614 18.0823 10.0059C18.0295 10.0756 17.991 10.1553 17.969 10.2404C17.947 10.3254 17.9419 10.4141 17.954 10.5015C17.9662 10.5888 17.9953 10.6731 18.0397 10.7495C18.0836 10.8261 18.1421 10.8935 18.2116 10.9477C18.2812 11.0019 18.3606 11.0419 18.4453 11.0653C18.5299 11.0888 18.6182 11.0953 18.705 11.0844C18.7918 11.0736 18.8754 11.0457 18.9511 11.0022Z" fill="url(#paint3_linear)"/>
</g>
<g filter="url(#filter4_d)">
<path d="M18.9509 8.52928L23.256 6.04376C23.3315 5.99994 23.3975 5.94145 23.4503 5.8717C23.5031 5.80196 23.5416 5.7223 23.5636 5.63726C23.5856 5.55223 23.5907 5.46347 23.5786 5.37611C23.5664 5.28875 23.5373 5.20447 23.4929 5.1281C23.4489 5.05154 23.3904 4.98429 23.3209 4.9302C23.2513 4.8761 23.1719 4.83623 23.0873 4.81283C23.0027 4.78942 22.9145 4.78297 22.8278 4.79383C22.7411 4.80469 22.6575 4.83264 22.5818 4.87611L18.2768 7.36163C18.2013 7.40542 18.1353 7.46383 18.0825 7.53352C18.0297 7.6032 17.9912 7.6828 17.9692 7.76776C17.9472 7.85273 17.942 7.94139 17.9541 8.0287C17.9661 8.11601 17.9952 8.20025 18.0395 8.27661C18.0834 8.35327 18.1419 8.42063 18.2114 8.47482C18.281 8.52901 18.3604 8.569 18.445 8.59246C18.5297 8.61593 18.618 8.62239 18.7048 8.61155C18.7916 8.60071 18.8752 8.57277 18.9509 8.52928Z" fill="url(#paint4_linear)"/>
</g>
<g filter="url(#filter5_d)">
<path d="M18.9509 6.05711L23.256 3.57159C23.3315 3.52777 23.3975 3.46928 23.4503 3.39954C23.5031 3.32979 23.5416 3.25013 23.5636 3.16509C23.5856 3.08006 23.5907 2.99131 23.5786 2.90394C23.5664 2.81658 23.5373 2.7323 23.4929 2.65593C23.4489 2.57937 23.3905 2.51216 23.3209 2.45807C23.2513 2.40397 23.1719 2.36406 23.0873 2.34066C23.0027 2.31726 22.9145 2.3108 22.8278 2.32166C22.7411 2.33252 22.6575 2.36048 22.5818 2.40394L18.2768 4.88946C18.2013 4.93325 18.1353 4.99167 18.0825 5.06135C18.0297 5.13103 17.9912 5.21063 17.9692 5.29559C17.9472 5.38056 17.9421 5.46926 17.9541 5.55657C17.9662 5.64389 17.9952 5.72808 18.0395 5.80444C18.0834 5.8811 18.1419 5.94846 18.2114 6.00265C18.281 6.05684 18.3604 6.09683 18.445 6.12029C18.5297 6.14376 18.618 6.15022 18.7048 6.13938C18.7916 6.12854 18.8752 6.1006 18.9509 6.05711Z" fill="url(#paint5_linear)"/>
</g>
</g>
<defs>
<filter id="filter0_d" x="-0.398918" y="-0.440727" width="19.2601" height="19.9673" filterUnits="userSpaceOnUse" color-interpolation-filters="sRGB">
<feFlood flood-opacity="0" result="BackgroundImageFix"/>
<feColorMatrix in="SourceAlpha" type="matrix" values="0 0 0 0 0 0 0 0 0 0 0 0 0 0 0 0 0 0 127 0"/>
<feOffset/>
<feGaussianBlur stdDeviation="1.33224"/>
<feColorMatrix type="matrix" values="0 0 0 0 0 0 0 0 0 0 0 0 0 0 0 0 0 0 0.4 0"/>
<feBlend mode="normal" in2="BackgroundImageFix" result="effect1_dropShadow"/>
<feBlend mode="normal" in="SourceGraphic" in2="effect1_dropShadow" result="shape"/>
</filter>
<filter id="filter1_d" x="15.0382" y="9.29746" width="11.4565" height="9.6451" filterUnits="userSpaceOnUse" color-interpolation-filters="sRGB">
<feFlood flood-opacity="0" result="BackgroundImageFix"/>
<feColorMatrix in="SourceAlpha" type="matrix" values="0 0 0 0 0 0 0 0 0 0 0 0 0 0 0 0 0 0 127 0"/>
<feOffset/>
<feGaussianBlur stdDeviation="1.33224"/>
<feColorMatrix type="matrix" values="0 0 0 0 0 0 0 0 0 0 0 0 0 0 0 0 0 0 0.4 0"/>
<feBlend mode="normal" in2="BackgroundImageFix" result="effect1_dropShadow"/>
<feBlend mode="normal" in="SourceGraphic" in2="effect1_dropShadow" result="shape"/>
</filter>
<filter id="filter2_d" x="15.0382" y="6.82526" width="11.4565" height="9.6451" filterUnits="userSpaceOnUse" color-interpolation-filters="sRGB">
<feFlood flood-opacity="0" result="BackgroundImageFix"/>
<feColorMatrix in="SourceAlpha" type="matrix" values="0 0 0 0 0 0 0 0 0 0 0 0 0 0 0 0 0 0 127 0"/>
<feOffset/>
<feGaussianBlur stdDeviation="1.33224"/>
<feColorMatrix type="matrix" values="0 0 0 0 0 0 0 0 0 0 0 0 0 0 0 0 0 0 0.4 0"/>
<feBlend mode="normal" in2="BackgroundImageFix" result="effect1_dropShadow"/>
<feBlend mode="normal" in="SourceGraphic" in2="effect1_dropShadow" result="shape"/>
</filter>
<filter id="filter3_d" x="15.038" y="4.35236" width="11.4569" height="9.64576" filterUnits="userSpaceOnUse" color-interpolation-filters="sRGB">
<feFlood flood-opacity="0" result="BackgroundImageFix"/>
<feColorMatrix in="SourceAlpha" type="matrix" values="0 0 0 0 0 0 0 0 0 0 0 0 0 0 0 0 0 0 127 0"/>
<feOffset/>
<feGaussianBlur stdDeviation="1.33224"/>
<feColorMatrix type="matrix" values="0 0 0 0 0 0 0 0 0 0 0 0 0 0 0 0 0 0 0.4 0"/>
<feBlend mode="normal" in2="BackgroundImageFix" result="effect1_dropShadow"/>
<feBlend mode="normal" in="SourceGraphic" in2="effect1_dropShadow" result="shape"/>
</filter>
<filter id="filter4_d" x="15.0381" y="1.8801" width="11.4565" height="9.64514" filterUnits="userSpaceOnUse" color-interpolation-filters="sRGB">
<feFlood flood-opacity="0" result="BackgroundImageFix"/>
<feColorMatrix in="SourceAlpha" type="matrix" values="0 0 0 0 0 0 0 0 0 0 0 0 0 0 0 0 0 0 127 0"/>
<feOffset/>
<feGaussianBlur stdDeviation="1.33224"/>
<feColorMatrix type="matrix" values="0 0 0 0 0 0 0 0 0 0 0 0 0 0 0 0 0 0 0.4 0"/>
<feBlend mode="normal" in2="BackgroundImageFix" result="effect1_dropShadow"/>
<feBlend mode="normal" in="SourceGraphic" in2="effect1_dropShadow" result="shape"/>
</filter>
<filter id="filter5_d" x="15.0381" y="-0.592064" width="11.4565" height="9.64514" filterUnits="userSpaceOnUse" color-interpolation-filters="sRGB">
<feFlood flood-opacity="0" result="BackgroundImageFix"/>
<feColorMatrix in="SourceAlpha" type="matrix" values="0 0 0 0 0 0 0 0 0 0 0 0 0 0 0 0 0 0 127 0"/>
<feOffset/>
<feGaussianBlur stdDeviation="1.33224"/>
<feColorMatrix type="matrix" values="0 0 0 0 0 0 0 0 0 0 0 0 0 0 0 0 0 0 0.4 0"/>
<feBlend mode="normal" in2="BackgroundImageFix" result="effect1_dropShadow"/>
<feBlend mode="normal" in="SourceGraphic" in2="effect1_dropShadow" result="shape"/>
</filter>
<linearGradient id="paint0_linear" x1="1.5" y1="10" x2="17.5" y2="10" gradientUnits="userSpaceOnUse">
<stop stop-color="#EE0C89"/>
<stop offset="1" stop-color="#FD6F67"/>
</linearGradient>
<linearGradient id="paint1_linear" x1="20.4294" y1="13.5362" x2="21.1035" y2="14.7038" gradientUnits="userSpaceOnUse">
<stop stop-color="#EE0C89"/>
<stop offset="1" stop-color="#FD6F67"/>
</linearGradient>
<linearGradient id="paint2_linear" x1="20.4293" y1="11.064" x2="21.1035" y2="12.2316" gradientUnits="userSpaceOnUse">
<stop stop-color="#EE0C89"/>
<stop offset="1" stop-color="#FD6F67"/>
</linearGradient>
<linearGradient id="paint3_linear" x1="20.4292" y1="8.59111" x2="21.1037" y2="9.75939" gradientUnits="userSpaceOnUse">
<stop stop-color="#EE0C89"/>
<stop offset="1" stop-color="#FD6F67"/>
</linearGradient>
<linearGradient id="paint4_linear" x1="20.4293" y1="6.11886" x2="21.1035" y2="7.28651" gradientUnits="userSpaceOnUse">
<stop stop-color="#EE0C89"/>
<stop offset="1" stop-color="#FD6F67"/>
</linearGradient>
<linearGradient id="paint5_linear" x1="20.4293" y1="3.64669" x2="21.1035" y2="4.81434" gradientUnits="userSpaceOnUse">
<stop stop-color="#EE0C89"/>
<stop offset="1" stop-color="#FD6F67"/>
</linearGradient>
<clipPath id="clip0">
<rect width="26" height="19" fill="white" transform="translate(26 19) rotate(-180)"/>
</clipPath>
</defs>
</svg>
