<svg width="28" height="20" viewBox="0 0 28 20" fill="none" xmlns="http://www.w3.org/2000/svg">
<g clip-path="url(#clip0)">
<g filter="url(#filter0_d)">
<path fill-rule="evenodd" clip-rule="evenodd" d="M11.4777 2.34079C13.0641 2.34934 14.5825 2.97917 15.7004 4.09245C16.8184 5.20574 17.4447 6.71176 17.4425 8.28078L17.4425 11.8092C17.4496 12.8499 17.1772 13.8737 16.6531 14.7761C16.1291 15.6785 15.3721 16.4271 14.4597 16.9454C13.5559 17.4719 12.5261 17.7495 11.4773 17.7495C10.4284 17.7495 9.39865 17.4719 8.49491 16.9454L5.42192 15.1816C4.51446 14.6578 3.76163 13.9079 3.23842 13.0067C2.7152 12.1056 2.43985 11.0846 2.43985 10.0454C2.43985 9.00624 2.7152 7.98518 3.23842 7.08402C3.76163 6.18286 4.51446 5.43305 5.42192 4.90925L8.49491 3.14463C9.39992 2.62082 10.4291 2.34348 11.4777 2.34079ZM11.4777 15.1762C12.3767 15.1709 13.237 14.8137 13.8705 14.1827C14.5039 13.5518 14.859 12.6984 14.8579 11.8092L14.8579 8.28078C14.862 7.69105 14.7077 7.11078 14.4108 6.59936C14.1138 6.08794 13.6849 5.66372 13.1678 5.37001C12.6556 5.07162 12.0721 4.91422 11.4777 4.91422C10.8833 4.91422 10.2997 5.07161 9.78756 5.37001L6.71458 7.13384C6.20006 7.43059 5.77316 7.85553 5.47647 8.36632C5.17978 8.87712 5.02368 9.4559 5.02368 10.045C5.02368 10.6341 5.17978 11.2128 5.47647 11.7236C5.77315 12.2344 6.20006 12.6594 6.71458 12.9562L9.78756 14.72C10.3002 15.0173 10.8834 15.1747 11.4777 15.1762Z" fill="white"/>
</g>
<g filter="url(#filter1_d)">
<path d="M20.4087 16.7859L25.0449 14.1696C25.1262 14.1235 25.1973 14.062 25.2541 13.9886C25.3109 13.9153 25.3524 13.8315 25.3761 13.7421C25.3999 13.6526 25.4054 13.5593 25.3924 13.4674C25.3794 13.3755 25.3482 13.2868 25.3005 13.2064C25.2532 13.1257 25.1903 13.0548 25.1153 12.9978C25.0404 12.9407 24.9549 12.8986 24.8637 12.8739C24.7725 12.8492 24.6775 12.8424 24.584 12.8538C24.4906 12.8652 24.4005 12.8947 24.3189 12.9405L19.6827 15.5568C19.6014 15.603 19.5303 15.6645 19.4735 15.7379C19.4166 15.8113 19.3751 15.8952 19.3514 15.9847C19.3277 16.0742 19.3223 16.1676 19.3353 16.2596C19.3484 16.3515 19.3798 16.4402 19.4276 16.5206C19.475 16.6012 19.5379 16.672 19.6128 16.729C19.6878 16.7859 19.7732 16.8279 19.8643 16.8525C19.9554 16.8771 20.0504 16.8839 20.1438 16.8725C20.2372 16.8611 20.3272 16.8316 20.4087 16.7859Z" fill="white"/>
</g>
<g filter="url(#filter2_d)">
<path d="M20.4087 14.1836L25.0449 11.5672C25.1262 11.5211 25.1973 11.4596 25.2541 11.3863C25.3109 11.3129 25.3524 11.2292 25.3761 11.1397C25.3998 11.0503 25.4054 10.957 25.3924 10.865C25.3794 10.7731 25.3482 10.6845 25.3005 10.6041C25.2532 10.5234 25.1902 10.4525 25.1153 10.3954C25.0403 10.3384 24.9548 10.2963 24.8637 10.2716C24.7725 10.2469 24.6775 10.2401 24.584 10.2515C24.4905 10.2629 24.4005 10.2924 24.3189 10.3382L19.6827 12.9545C19.6014 13.0006 19.5303 13.0621 19.4734 13.1355C19.4166 13.209 19.3751 13.2928 19.3514 13.3824C19.3277 13.4719 19.3222 13.5653 19.3353 13.6572C19.3484 13.7492 19.3797 13.8379 19.4276 13.9183C19.4749 13.9989 19.5379 14.0697 19.6128 14.1266C19.6877 14.1836 19.7732 14.2255 19.8643 14.2502C19.9554 14.2748 20.0504 14.2816 20.1438 14.2702C20.2372 14.2587 20.3272 14.2293 20.4087 14.1836Z" fill="white"/>
</g>
<g filter="url(#filter3_d)">
<path d="M20.4089 11.5812L25.0451 8.9649C25.1265 8.91874 25.1981 8.85779 25.2549 8.7843C25.3118 8.71082 25.3532 8.62686 25.3769 8.53727C25.4006 8.44768 25.4059 8.35424 25.3928 8.26222C25.3796 8.1702 25.3482 8.08144 25.3002 8.00104C25.2529 7.92035 25.19 7.84945 25.1151 7.7924C25.0401 7.73536 24.9546 7.69333 24.8635 7.66863C24.7723 7.64393 24.6773 7.63707 24.5838 7.64848C24.4903 7.65989 24.4002 7.68935 24.3187 7.73514L19.6825 10.3515C19.6012 10.3976 19.5301 10.4591 19.4732 10.5325C19.4164 10.6059 19.3749 10.6899 19.3512 10.7794C19.3275 10.8689 19.322 10.9622 19.3351 11.0542C19.3482 11.1462 19.3795 11.2349 19.4274 11.3153C19.4747 11.396 19.5376 11.4669 19.6125 11.5239C19.6875 11.5809 19.773 11.623 19.8641 11.6477C19.9553 11.6724 20.0503 11.6792 20.1438 11.6678C20.2373 11.6564 20.3274 11.627 20.4089 11.5812Z" fill="white"/>
</g>
<g filter="url(#filter4_d)">
<path d="M20.4087 8.9782L25.0449 6.36186C25.1262 6.31573 25.1973 6.25417 25.2542 6.18075C25.311 6.10733 25.3525 6.02348 25.3762 5.93397C25.3999 5.84445 25.4053 5.75103 25.3923 5.65907C25.3792 5.56711 25.3479 5.47839 25.3 5.398C25.2527 5.31742 25.1897 5.24663 25.1148 5.18969C25.0398 5.13274 24.9543 5.09077 24.8632 5.06614C24.7721 5.04151 24.6772 5.03471 24.5838 5.04614C24.4904 5.05757 24.4003 5.087 24.3189 5.13275L19.6827 7.74909C19.6014 7.79519 19.5303 7.85667 19.4735 7.93003C19.4166 8.00338 19.3752 8.08716 19.3514 8.1766C19.3277 8.26603 19.3222 8.35936 19.3352 8.45127C19.3481 8.54318 19.3794 8.63185 19.4271 8.71223C19.4744 8.79292 19.5374 8.86382 19.6123 8.92087C19.6873 8.97791 19.7727 9.02001 19.8639 9.0447C19.955 9.0694 20.0501 9.0762 20.1436 9.06479C20.237 9.05338 20.3271 9.02398 20.4087 8.9782Z" fill="white"/>
</g>
<g filter="url(#filter5_d)">
<path d="M20.4087 6.3759L25.0449 3.75957C25.1262 3.71343 25.1973 3.65187 25.2542 3.57845C25.311 3.50503 25.3525 3.42119 25.3762 3.33167C25.3999 3.24216 25.4053 3.14874 25.3923 3.05678C25.3792 2.96481 25.3479 2.8761 25.3 2.79571C25.2527 2.71512 25.1897 2.64438 25.1148 2.58743C25.0398 2.53049 24.9543 2.48848 24.8632 2.46384C24.7721 2.43921 24.6772 2.43242 24.5838 2.44385C24.4904 2.45528 24.4003 2.48471 24.3189 2.53046L19.6827 5.14679C19.6014 5.19289 19.5303 5.25438 19.4735 5.32773C19.4166 5.40108 19.3752 5.48486 19.3514 5.5743C19.3277 5.66374 19.3222 5.75711 19.3352 5.84902C19.3482 5.94093 19.3794 6.02955 19.4271 6.10994C19.4744 6.19063 19.5374 6.26153 19.6123 6.31857C19.6873 6.37561 19.7727 6.41771 19.8639 6.44241C19.955 6.46711 20.0501 6.47391 20.1436 6.4625C20.237 6.45109 20.3271 6.42168 20.4087 6.3759Z" fill="white"/>
</g>
</g>
<defs>
<filter id="filter0_d" x="-0.224632" y="-0.323692" width="20.3317" height="20.7377" filterUnits="userSpaceOnUse" color-interpolation-filters="sRGB">
<feFlood flood-opacity="0" result="BackgroundImageFix"/>
<feColorMatrix in="SourceAlpha" type="matrix" values="0 0 0 0 0 0 0 0 0 0 0 0 0 0 0 0 0 0 127 0"/>
<feOffset/>
<feGaussianBlur stdDeviation="1.33224"/>
<feColorMatrix type="matrix" values="0 0 0 0 0 0 0 0 0 0 0 0 0 0 0 0 0 0 0.4 0"/>
<feBlend mode="normal" in2="BackgroundImageFix" result="effect1_dropShadow"/>
<feBlend mode="normal" in="SourceGraphic" in2="effect1_dropShadow" result="shape"/>
</filter>
<filter id="filter1_d" x="16.6639" y="10.184" width="11.3998" height="9.35839" filterUnits="userSpaceOnUse" color-interpolation-filters="sRGB">
<feFlood flood-opacity="0" result="BackgroundImageFix"/>
<feColorMatrix in="SourceAlpha" type="matrix" values="0 0 0 0 0 0 0 0 0 0 0 0 0 0 0 0 0 0 127 0"/>
<feOffset/>
<feGaussianBlur stdDeviation="1.33224"/>
<feColorMatrix type="matrix" values="0 0 0 0 0 0 0 0 0 0 0 0 0 0 0 0 0 0 0.4 0"/>
<feBlend mode="normal" in2="BackgroundImageFix" result="effect1_dropShadow"/>
<feBlend mode="normal" in="SourceGraphic" in2="effect1_dropShadow" result="shape"/>
</filter>
<filter id="filter2_d" x="16.6639" y="7.58164" width="11.3998" height="9.35839" filterUnits="userSpaceOnUse" color-interpolation-filters="sRGB">
<feFlood flood-opacity="0" result="BackgroundImageFix"/>
<feColorMatrix in="SourceAlpha" type="matrix" values="0 0 0 0 0 0 0 0 0 0 0 0 0 0 0 0 0 0 127 0"/>
<feOffset/>
<feGaussianBlur stdDeviation="1.33224"/>
<feColorMatrix type="matrix" values="0 0 0 0 0 0 0 0 0 0 0 0 0 0 0 0 0 0 0.4 0"/>
<feBlend mode="normal" in2="BackgroundImageFix" result="effect1_dropShadow"/>
<feBlend mode="normal" in="SourceGraphic" in2="effect1_dropShadow" result="shape"/>
</filter>
<filter id="filter3_d" x="16.6637" y="4.97865" width="11.4006" height="9.35905" filterUnits="userSpaceOnUse" color-interpolation-filters="sRGB">
<feFlood flood-opacity="0" result="BackgroundImageFix"/>
<feColorMatrix in="SourceAlpha" type="matrix" values="0 0 0 0 0 0 0 0 0 0 0 0 0 0 0 0 0 0 127 0"/>
<feOffset/>
<feGaussianBlur stdDeviation="1.33224"/>
<feColorMatrix type="matrix" values="0 0 0 0 0 0 0 0 0 0 0 0 0 0 0 0 0 0 0.4 0"/>
<feBlend mode="normal" in2="BackgroundImageFix" result="effect1_dropShadow"/>
<feBlend mode="normal" in="SourceGraphic" in2="effect1_dropShadow" result="shape"/>
</filter>
<filter id="filter4_d" x="16.6638" y="2.37626" width="11.3999" height="9.35837" filterUnits="userSpaceOnUse" color-interpolation-filters="sRGB">
<feFlood flood-opacity="0" result="BackgroundImageFix"/>
<feColorMatrix in="SourceAlpha" type="matrix" values="0 0 0 0 0 0 0 0 0 0 0 0 0 0 0 0 0 0 127 0"/>
<feOffset/>
<feGaussianBlur stdDeviation="1.33224"/>
<feColorMatrix type="matrix" values="0 0 0 0 0 0 0 0 0 0 0 0 0 0 0 0 0 0 0.4 0"/>
<feBlend mode="normal" in2="BackgroundImageFix" result="effect1_dropShadow"/>
<feBlend mode="normal" in="SourceGraphic" in2="effect1_dropShadow" result="shape"/>
</filter>
<filter id="filter5_d" x="16.6639" y="-0.226036" width="11.3998" height="9.35837" filterUnits="userSpaceOnUse" color-interpolation-filters="sRGB">
<feFlood flood-opacity="0" result="BackgroundImageFix"/>
<feColorMatrix in="SourceAlpha" type="matrix" values="0 0 0 0 0 0 0 0 0 0 0 0 0 0 0 0 0 0 127 0"/>
<feOffset/>
<feGaussianBlur stdDeviation="1.33224"/>
<feColorMatrix type="matrix" values="0 0 0 0 0 0 0 0 0 0 0 0 0 0 0 0 0 0 0.4 0"/>
<feBlend mode="normal" in2="BackgroundImageFix" result="effect1_dropShadow"/>
<feBlend mode="normal" in="SourceGraphic" in2="effect1_dropShadow" result="shape"/>
</filter>
<clipPath id="clip0">
<rect width="28" height="20" fill="white" transform="translate(28 20) rotate(-180)"/>
</clipPath>
</defs>
</svg>
