<svg xmlns="http://www.w3.org/2000/svg" xmlns:xlink="http://www.w3.org/1999/xlink" width="27.691" height="19.999" viewBox="0 0 36 26">
	<defs>
		<style>
			.lights {
			fill: url(#turnedOn_gradient);
			fill-rule: evenodd;
			filter: url(#filter_lights);
			}
			
			
			.nonActive {
			fill: white;
			}
		</style>
		<filter id="filter_lights" x="873" y="919" width="36" height="26" filterUnits="userSpaceOnUse">
			<feOffset result="offset" in="SourceAlpha" />
			<feGaussianBlur result="blur" stdDeviation="1.732" />
			<feFlood result="flood" flood-opacity="0.4" />
			<feComposite result="composite" operator="in" in2="blur" />
			<feBlend result="blend" in="SourceGraphic" />
		</filter>
	</defs>
	<path id="lights" data-name="lights" class="lights nonActive" d="M894.243,941.957a7.711,7.711,0,0,1-7.669-7.722v-4.587a7.64,7.64,0,0,1,3.835-6.677,7.555,7.555,0,0,1,7.669,0l3.951,2.293a7.731,7.731,0,0,1,0,13.354l-3.951,2.294A7.632,7.632,0,0,1,894.243,941.957Zm0-16.686a4.372,4.372,0,0,0-4.346,4.377v4.587a4.329,4.329,0,0,0,2.173,3.784,4.281,4.281,0,0,0,4.346,0l3.951-2.293a4.381,4.381,0,0,0,0-7.569l-3.951-2.293A4.316,4.316,0,0,0,894.243,925.271Zm-10.555-.039h-6.883a0.92,0.92,0,0,1-.918-0.922h0a0.92,0.92,0,0,1,.918-0.923h6.883a0.92,0.92,0,0,1,.918.923h0A0.92,0.92,0,0,1,883.688,925.232Zm0,3.383h-6.883a0.92,0.92,0,0,1-.918-0.922h0a0.92,0.92,0,0,1,.918-0.923h6.883a0.92,0.92,0,0,1,.918.923h0A0.92,0.92,0,0,1,883.688,928.615Zm0,3.384h-6.883a0.92,0.92,0,0,1-.918-0.923h0a0.92,0.92,0,0,1,.918-0.923h6.883a0.92,0.92,0,0,1,.918.923h0A0.92,0.92,0,0,1,883.688,932Zm0,3.383h-6.883a0.92,0.92,0,0,1-.918-0.923h0a0.92,0.92,0,0,1,.918-0.922h6.883a0.92,0.92,0,0,1,.918.922h0A0.92,0.92,0,0,1,883.688,935.382Zm0,3.383h-6.883a0.92,0.92,0,0,1-.918-0.923h0a0.92,0.92,0,0,1,.918-0.922h6.883a0.92,0.92,0,0,1,.918.922h0A0.92,0.92,0,0,1,883.688,938.765Z" transform="translate(-873 -919)" />
</svg>
