          <svg width="23" height="23" viewBox="0 0 23 23" fill="none" xmlns="http://www.w3.org/2000/svg">
            <g>
              <path id="doorLock" class="door-lock nonActive"
                d="M20.0476 2H10.5238L2.90476 9.6V10.55H4.33333C7.19048 10.55 9.57143 13.3145 9.57143 16.725V19.1H21V2.95C21 2.69804 20.8997 2.45641 20.7211 2.27825C20.5424 2.10009 20.3002 2 20.0476 2V2ZM18.1429 14.35H15.2857V12.45H18.1429V14.35ZM19.0952 9.6H5.6L11.3143 3.9H19.0952V9.6ZM6.71429 15.3V14.825C6.71429 14.1951 6.46344 13.591 6.01692 13.1456C5.57041 12.7002 4.9648 12.45 4.33333 12.45C3.70187 12.45 3.09626 12.7002 2.64975 13.1456C2.20323 13.591 1.95238 14.1951 1.95238 14.825V15.3C1.69979 15.3 1.45755 15.4001 1.27895 15.5782C1.10034 15.7564 1 15.998 1 16.25V20.05C1 20.302 1.10034 20.5436 1.27895 20.7218C1.45755 20.8999 1.69979 21 1.95238 21H6.71429C6.96687 21 7.20911 20.8999 7.38772 20.7218C7.56633 20.5436 7.66667 20.302 7.66667 20.05V16.25C7.66667 15.998 7.56633 15.7564 7.38772 15.5782C7.20911 15.4001 6.96687 15.3 6.71429 15.3ZM5.95238 15.3H2.71429V14.825C2.71429 14.3967 2.88486 13.9859 3.18849 13.683C3.49212 13.3802 3.90394 13.21 4.33333 13.21C4.76273 13.21 5.17454 13.3802 5.47817 13.683C5.7818 13.9859 5.95238 14.3967 5.95238 14.825V15.3Z" />
            </g>
            <defs>
              <style>
                .door-lock {
                  fill: url(#turnedOn_gradient);
                  fill-rule: evenodd;
                  filter: url(#filter_doorLock);
                }

                                
                .nonActive {
                  fill: white;
                }
              </style>
              <filter id="filter_doorLock" x="-1" y="0" width="24" height="23" filterUnits="userSpaceOnUse"
                color-interpolation-filters="sRGB">
                <feFlood flood-opacity="0" result="BackgroundImageFix" />
                <feColorMatrix in="SourceAlpha" type="matrix" values="0 0 0 0 0 0 0 0 0 0 0 0 0 0 0 0 0 0 127 0" />
                <feOffset />
                <feGaussianBlur stdDeviation="1" />
                <feColorMatrix type="matrix" values="0 0 0 0 0 0 0 0 0 0 0 0 0 0 0 0 0 0 0.4 0" />
                <feBlend mode="normal" in2="BackgroundImageFix" result="effect1_dropShadow" />
                <feBlend mode="normal" in="SourceGraphic" in2="effect1_dropShadow" result="shape" />
              </filter>
            </defs>
          </svg>