<svg width="51" height="32" viewBox="0 0 51 32" fill="none" xmlns="http://www.w3.org/2000/svg">
<path d="M48.5949 17.0889L39.1092 15.5791L36.3583 11.632C35.6442 10.6111 34.4491 10 33.1713 10H18.9955C17.7102 10 16.5225 10.6111 15.8085 11.632L13.4784 14.9752L13 15.5C14 17 14.5147 16 13.5 16L13 15.5C12.4235 15.9314 12.849 16.1114 12.5 15.9314C12.5 16.4346 13 16 13 16L13.8618 15.8196C14.3654 15.8196 14.5 15.5 14 15.5L11.7572 15.9314L7.17973 17.017C5.89445 17.3261 5 18.419 5 19.6843V24.2928C5 25.3712 5.44348 26.3922 6.24019 27.1542C7.02943 27.902 8.11926 28.3333 9.2317 28.3333H11.8098C12.2533 30.4255 14.1925 32 16.5075 32C18.8226 32 20.7543 30.4255 21.2053 28.3333H33.8553C34.2987 30.4255 36.238 32 38.553 32C40.8681 32 42.7998 30.4255 43.2508 28.3333H47.5426C48.2717 28.3333 48.9331 27.9451 49.2563 27.3196L50.8047 24.3503C50.8348 24.2856 50.8648 24.2209 50.8798 24.149L50.9776 23.7392C50.9926 23.6745 51 23.6026 51 23.5307V19.7993C51 18.4549 49.9929 17.3118 48.5949 17.0889ZM16.5 30.1667C14.9141 30.1667 13.6213 28.9301 13.6213 27.4131C13.6213 25.8961 14.9141 24.6595 16.5 24.6595C18.086 24.6595 19.3788 25.8961 19.3788 27.4131C19.3788 28.9301 18.086 30.1667 16.5 30.1667ZM38.5455 30.1667C36.9595 30.1667 35.6667 28.9301 35.6667 27.4131C35.6667 25.8961 36.9595 24.6595 38.5455 24.6595C40.1315 24.6595 41.4243 25.8961 41.4243 27.4131C41.4169 28.9301 40.1239 30.1667 38.5455 30.1667ZM49.0835 23.4301L47.5351 26.5H43.2432C42.7998 24.4078 40.8605 22.8333 38.5455 22.8333C36.2305 22.8333 34.2987 24.4078 33.8478 26.5H21.1978C20.7543 24.4078 18.815 22.8333 16.5 22.8333C14.185 22.8333 12.2533 24.4078 11.8023 26.5H9.2317C8.62285 26.5 8.02908 26.2627 7.59312 25.8529C7.1572 25.4359 6.91666 24.8824 6.91666 24.2856V19.6771C6.91666 19.2529 7.21731 18.8935 7.64576 18.7856L13.8618 17.2974C14.0948 17.2399 14.2977 17.1033 14.4255 16.9163L17.402 12.6386C17.7553 12.1281 18.3566 11.819 18.9955 11.819H33.1713C33.8102 11.819 34.4115 12.1209 34.7648 12.6386L37.7413 16.9163C37.8841 17.1248 38.1171 17.2686 38.3802 17.3118L48.2792 18.8935C48.7452 18.9654 49.0835 19.3464 49.0835 19.7993V23.4301Z" fill="white"/>
<path d="M14.4784 1.42624C12.4497 -0.475412 9.15033 -0.475412 7.12157 1.42624C5.78823 2.67603 5.30457 4.47721 5.77516 6.13625L0.151633 11.4074C0.0549011 11.4981 0 11.6231 0 11.753V14.5123C0 14.7819 0.23268 15 0.520262 15H3.46405C3.60261 15 3.73333 14.9485 3.83268 14.8579L4.56732 14.1693C4.66405 14.0786 4.71895 13.9536 4.71895 13.8237V12.9317H5.67059C5.80915 12.9317 5.93987 12.8802 6.03921 12.7896L6.77386 12.101C6.87059 12.0103 6.92549 11.8853 6.92549 11.7554V10.8634H7.87712C8.01569 10.8634 8.1464 10.812 8.24575 10.7213L9.45359 9.58912C11.2235 10.0302 13.1451 9.57687 14.4784 8.32707C16.5072 6.42052 16.5072 3.32789 14.4784 1.42624ZM13.7438 7.63356C12.6196 8.68731 10.983 9.04509 9.47189 8.57213C9.28366 8.51331 9.07712 8.55987 8.93856 8.68976L7.66274 9.88564H6.40784C6.12026 9.88564 5.88758 10.1037 5.88758 10.3733V11.5496L5.45621 11.9539H4.20131C3.91372 11.9539 3.68104 12.172 3.68104 12.4416V13.6179L3.24967 14.0222H1.04052V11.9539L6.72941 6.62147C6.86797 6.49159 6.91765 6.29799 6.8549 6.12155C6.34771 4.70511 6.73203 3.17105 7.85621 2.1173C9.47974 0.595491 12.1203 0.595491 13.7412 2.1173C15.3647 3.63666 15.3647 6.11175 13.7438 7.63356H13.7438ZM13.0065 2.80591C12.1961 2.04623 10.8758 2.04623 10.0627 2.80591C9.25229 3.56559 9.25229 4.80314 10.0627 5.56527C10.8732 6.32495 12.1935 6.32495 13.0065 5.56527C13.8196 4.80314 13.8196 3.56559 13.0065 2.80591ZM12.2719 4.8742C11.8667 5.25404 11.2052 5.25404 10.8 4.8742C10.3948 4.49436 10.3948 3.87437 10.8 3.49453C11.2052 3.11469 11.8667 3.11469 12.2719 3.49453C12.6771 3.87437 12.6771 4.49436 12.2719 4.8742Z" fill="white"/>
</svg>
