<svg width="37" height="37" viewBox="0 0 37 37" fill="none" xmlns="http://www.w3.org/2000/svg">
<g clip-path="url(#clip0)">
<path d="M30.34 2.96007H16.337C15.2248 1.48007 13.4021 0.183594 11.3405 0.183594C7.95352 0.183594 5.20812 2.82983 5.20812 6.21681C5.20812 9.60453 7.95352 12.1642 11.3405 12.1642C13.9164 12.1642 16.1202 10.3601 17.0296 8.14007H19.0683L20.5461 6.66155L22.0231 8.14007H22.9444L24.4215 6.66155L25.8993 8.14007H26.8198L28.2976 6.66155L29.7754 8.14007H30.34V8.34801L30.2112 8.37835L33.1268 5.52047L30.34 2.96007ZM9.35582 7.85147C8.8847 7.85118 8.43299 7.66374 8.10006 7.3304C7.76714 6.99706 7.58027 6.54512 7.58056 6.07399C7.58086 5.60287 7.76829 5.15116 8.10163 4.81824C8.43498 4.48531 8.88692 4.29844 9.35804 4.29873C9.59132 4.29888 9.82228 4.34497 10.0377 4.43438C10.2532 4.52378 10.449 4.65475 10.6138 4.81981C10.7786 4.98486 10.9094 5.18077 10.9985 5.39634C11.0876 5.61192 11.1334 5.84294 11.1333 6.07621C11.1332 6.30949 11.0871 6.54045 10.9977 6.75592C10.9083 6.97138 10.7773 7.16712 10.6122 7.33197C10.4472 7.49682 10.2513 7.62754 10.0357 7.71668C9.82012 7.80582 9.5891 7.85162 9.35582 7.85147ZM31.82 22.2001H31.4108L26.8642 13.9676C26.6681 13.6116 26.1738 13.3201 25.7668 13.3201H11.9732C11.5662 13.3201 11.0719 13.6116 10.8758 13.9676L6.32848 22.2001H5.92C5.106 22.2001 4.44 22.8661 4.44 23.6801V31.0801C4.44 31.8941 5.106 32.5601 5.92 32.5601H7.4V34.7801C7.4 36.0011 8.399 37.0001 9.62 37.0001H10.36C11.581 37.0001 12.58 36.0011 12.58 34.7801V32.5601H25.16V34.7801C25.16 36.0011 26.159 37.0001 27.38 37.0001H28.12C29.341 37.0001 30.34 36.0011 30.34 34.7801V32.5601H31.82C32.634 32.5601 33.3 31.8941 33.3 31.0801V23.6801C33.3 22.8661 32.634 22.2001 31.82 22.2001ZM8.51 28.1201C8.01935 28.1201 7.5488 27.9252 7.20185 27.5782C6.85491 27.2313 6.66 26.7607 6.66 26.2701C6.66 25.7794 6.85491 25.3089 7.20185 24.9619C7.5488 24.615 8.01935 24.4201 8.51 24.4201C9.00065 24.4201 9.47121 24.615 9.81815 24.9619C10.1651 25.3089 10.36 25.7794 10.36 26.2701C10.36 26.7607 10.1651 27.2313 9.81815 27.5782C9.47121 27.9252 9.00065 28.1201 8.51 28.1201ZM9.99 22.2001L12.9892 16.2024C13.1713 15.8376 13.653 15.5401 14.06 15.5401H23.68C24.087 15.5401 24.5687 15.8376 24.7508 16.2024L27.75 22.2001H9.99ZM29.23 28.1201C28.7393 28.1201 28.2688 27.9252 27.9219 27.5782C27.5749 27.2313 27.38 26.7607 27.38 26.2701C27.38 25.7794 27.5749 25.3089 27.9219 24.9619C28.2688 24.615 28.7393 24.4201 29.23 24.4201C29.7207 24.4201 30.1912 24.615 30.5381 24.9619C30.8851 25.3089 31.08 25.7794 31.08 26.2701C31.08 26.7607 30.8851 27.2313 30.5381 27.5782C30.1912 27.9252 29.7207 28.1201 29.23 28.1201Z" fill="white"/>
</g>
<defs>
<clipPath id="clip0">
<rect width="37" height="37" fill="white"/>
</clipPath>
</defs>
</svg>
