<svg width="42" height="42" viewBox="0 0 42 42" fill="none" xmlns="http://www.w3.org/2000/svg">
<path d="M35.8431 17.2246L32.5619 11.5415C32.1793 10.8789 31.6256 10.3314 30.9588 9.95635C30.292 9.58128 29.5366 9.39244 28.7718 9.4096C28.0069 9.42676 27.2607 9.64929 26.6114 10.0539C25.9621 10.4585 25.4335 11.0303 25.0811 11.7093L21.9567 6.2977C21.5695 5.62632 21.0067 5.07317 20.3287 4.69773C19.6507 4.32229 18.8832 4.13875 18.1087 4.16686C17.3342 4.19497 16.582 4.43365 15.933 4.85726C15.284 5.28086 14.7627 5.87335 14.4252 6.57103C13.7178 5.7911 12.747 5.30037 11.6995 5.19329C10.652 5.0862 9.6019 5.37033 8.75131 5.99098C7.90073 6.61164 7.30976 7.52496 7.09213 8.55517C6.87451 9.58539 7.04561 10.6597 7.57251 11.5713L9.05809 14.1443C8.29366 14.1087 7.53375 14.2796 6.85814 14.6391C6.18254 14.9985 5.61616 15.5332 5.21848 16.187C4.8208 16.8408 4.60649 17.5896 4.59804 18.3548C4.58959 19.1201 4.78732 19.8734 5.17047 20.5359L11.4048 31.3341C13.2759 34.5749 16.3576 36.9396 19.9722 37.9081C23.5867 38.8766 27.4379 38.3696 30.6787 36.4986C33.9194 34.6276 36.2841 31.5458 37.2526 27.9313C38.2211 24.3167 37.7141 20.4655 35.8431 17.2248V17.2246ZM35.3509 27.4216C34.7295 29.741 33.4342 31.824 31.6288 33.4072C29.8235 34.9904 27.5892 36.0028 25.2086 36.3162C22.8279 36.6296 20.4078 36.23 18.2542 35.168C16.1006 34.1059 14.3104 32.4291 13.1098 30.3496L6.87541 19.5513C6.72459 19.2901 6.62671 19.0017 6.58734 18.7027C6.54797 18.4036 6.56789 18.0998 6.64596 17.8084C6.72403 17.517 6.85872 17.2439 7.04234 17.0046C7.22596 16.7653 7.45492 16.5645 7.71615 16.4137C8.24371 16.1091 8.87066 16.0266 9.45907 16.1843C10.0475 16.3419 10.5492 16.7269 10.8538 17.2545L13.8069 22.3696C13.8273 22.4044 13.8497 22.4379 13.8741 22.47C13.8817 22.4797 13.8894 22.4889 13.8971 22.4982C13.9154 22.5208 13.9345 22.5423 13.9544 22.5629C13.9626 22.5714 13.9708 22.5801 13.9793 22.5883C14.0068 22.6148 14.0358 22.6398 14.0661 22.6629C14.0692 22.6654 14.0727 22.6672 14.0756 22.6695C14.1034 22.6899 14.1323 22.7088 14.1621 22.7261C14.1727 22.7323 14.1836 22.7379 14.1944 22.7438C14.2187 22.7567 14.2434 22.7687 14.2686 22.7796C14.2791 22.7842 14.2896 22.7889 14.3002 22.7932C14.3351 22.807 14.3707 22.8188 14.4069 22.8286C14.4115 22.8298 14.416 22.8304 14.4205 22.8316C14.453 22.8397 14.4859 22.8462 14.5191 22.851C14.5306 22.8526 14.542 22.8537 14.5535 22.8551C14.5822 22.8582 14.611 22.86 14.6395 22.8606C14.6466 22.8606 14.6534 22.8619 14.6603 22.8619C14.6638 22.8619 14.6671 22.8613 14.6705 22.8613C14.7086 22.861 14.7466 22.8586 14.7844 22.8539C14.7873 22.8536 14.7904 22.8528 14.7936 22.8523C14.8285 22.8474 14.8631 22.8407 14.8972 22.8321C14.9082 22.8293 14.9191 22.826 14.9299 22.8229C14.9577 22.815 14.9852 22.8058 15.0124 22.7952C15.0229 22.7911 15.0336 22.7873 15.0439 22.7829C15.1723 22.7286 15.2877 22.6476 15.3824 22.5453C15.4771 22.443 15.5489 22.3217 15.5932 22.1895C15.6375 22.0573 15.6531 21.9173 15.6391 21.7786C15.6251 21.6399 15.5818 21.5057 15.512 21.3851L9.27761 10.5868C9.12441 10.3255 9.02442 10.0364 8.98338 9.73631C8.94235 9.43619 8.96108 9.13092 9.03851 8.83807C9.11593 8.54522 9.25052 8.27058 9.43452 8.02996C9.61852 7.78933 9.8483 7.58748 10.1106 7.43602C10.373 7.28456 10.6626 7.18649 10.963 7.14744C11.2634 7.1084 11.5686 7.12916 11.8609 7.20852C12.1532 7.28789 12.427 7.42429 12.6664 7.60989C12.9058 7.79548 13.1061 8.02659 13.2558 8.28991L18.8339 17.9516C18.8981 18.0644 18.9839 18.1635 19.0865 18.243C19.1891 18.3225 19.3065 18.381 19.4317 18.415C19.557 18.449 19.6878 18.4579 19.8165 18.4412C19.9453 18.4245 20.0694 18.3824 20.1819 18.3175C20.2943 18.2526 20.3928 18.1661 20.4716 18.063C20.5505 17.9598 20.6082 17.8421 20.6413 17.7166C20.6745 17.5911 20.6825 17.4603 20.665 17.3317C20.6474 17.203 20.6045 17.0792 20.5389 16.9672L16.2732 9.57895C16.1224 9.31772 16.0245 9.02934 15.9852 8.73028C15.9458 8.43122 15.9657 8.12733 16.0438 7.83597C16.2015 7.24753 16.5865 6.74584 17.1141 6.44126C17.6416 6.13667 18.2686 6.05415 18.857 6.21183C19.4455 6.36951 19.9472 6.75449 20.2518 7.28208L25.1731 15.8063L25.1735 15.8071L26.3536 17.8508C24.9011 18.9659 23.9035 20.5708 23.5463 22.3668C23.1891 24.1627 23.4968 26.0272 24.412 27.6132C24.4762 27.7261 24.5621 27.8251 24.6647 27.9046C24.7673 27.9842 24.8846 28.0426 25.0099 28.0767C25.1352 28.1107 25.2659 28.1196 25.3947 28.1028C25.5234 28.0861 25.6476 28.0441 25.76 27.9792C25.8724 27.9142 25.9709 27.8277 26.0497 27.7246C26.1286 27.6215 26.1863 27.5038 26.2195 27.3783C26.2526 27.2528 26.2607 27.1219 26.2431 26.9933C26.2255 26.8647 26.1826 26.7408 26.117 26.6288C25.7507 25.9944 25.513 25.2941 25.4174 24.5678C25.3218 23.8415 25.3702 23.1036 25.5598 22.396C25.7494 21.6884 26.0765 21.0251 26.5225 20.444C26.9684 19.8628 27.5245 19.3752 28.1589 19.0089C28.2147 18.9767 28.2671 18.939 28.3156 18.8966L28.3167 18.8957C28.3647 18.8536 28.4083 18.8069 28.4472 18.7563L28.4478 18.7555C28.4863 18.7053 28.5198 18.6515 28.5479 18.5948L28.5495 18.5916C28.5778 18.5341 28.6005 18.4741 28.6171 18.4122L28.6176 18.4113C28.6199 18.4022 28.6212 18.3932 28.6234 18.3844C28.6286 18.3622 28.634 18.3401 28.6378 18.3174C28.6394 18.3074 28.6399 18.2972 28.6414 18.2872C28.6444 18.2654 28.6473 18.2436 28.6488 18.2216C28.6493 18.2134 28.6491 18.2052 28.6493 18.197C28.6506 18.173 28.6509 18.1489 28.6504 18.1248C28.6504 18.1192 28.6495 18.1137 28.6493 18.1081C28.6482 18.0816 28.646 18.0551 28.6427 18.0288C28.6422 18.0244 28.6411 18.02 28.6404 18.0154C28.6367 17.9882 28.6317 17.9611 28.6257 17.9343C28.6244 17.9289 28.6224 17.9235 28.6211 17.9179C28.6149 17.8923 28.6077 17.867 28.5994 17.842C28.5958 17.8315 28.5912 17.8211 28.5873 17.8108C28.5799 17.7911 28.5728 17.7714 28.5641 17.7521C28.5507 17.7222 28.5357 17.6929 28.5192 17.6643L26.8784 14.8222C26.5807 14.2951 26.5032 13.6717 26.6627 13.0877C26.8222 12.5036 27.2059 12.0062 27.7302 11.7036C28.2545 11.4009 28.8771 11.3175 29.4626 11.4715C30.0481 11.6255 30.5492 12.0044 30.8568 12.5258L34.138 18.209C34.9393 19.5881 35.4591 21.1124 35.6673 22.6938C35.8755 24.2751 35.768 25.8821 35.3509 27.4216ZM14.1134 39.9363C14.0397 40.0425 13.9459 40.1333 13.8372 40.2033C13.7285 40.2733 13.607 40.3211 13.4798 40.3442C13.3526 40.3672 13.2221 40.365 13.0957 40.3376C12.9694 40.3102 12.8497 40.2582 12.7434 40.1845C10.3974 38.5606 8.44302 36.434 7.02257 33.9595C6.89409 33.7335 6.86021 33.4659 6.92832 33.215C6.99643 32.9642 7.16099 32.7504 7.38611 32.6204C7.61122 32.4905 7.87861 32.4548 8.12991 32.5213C8.38122 32.5877 8.59604 32.7508 8.72751 32.9751C10.0032 35.1977 11.7584 37.1079 13.8655 38.5665C13.9717 38.6402 14.0624 38.734 14.1323 38.8428C14.2023 38.9515 14.2501 39.0729 14.2731 39.2001C14.2962 39.3273 14.2939 39.4578 14.2665 39.5842C14.2391 39.7105 14.187 39.8302 14.1134 39.9364V39.9363ZM27.8907 5.08528C27.8908 4.82432 27.9946 4.57411 28.1792 4.38965C28.3638 4.20518 28.6141 4.10156 28.875 4.10156H28.876C30.5454 4.10541 32.1846 4.5468 33.6301 5.38173C35.0757 6.21667 36.2771 7.41596 37.1146 8.86003C37.1792 8.97199 37.2212 9.09558 37.238 9.22375C37.2549 9.35193 37.2464 9.48216 37.2129 9.60703C37.1794 9.7319 37.1217 9.84896 37.043 9.95152C36.9643 10.0541 36.8662 10.1401 36.7542 10.2048C36.6423 10.2694 36.5187 10.3114 36.3905 10.3282C36.2623 10.3451 36.1321 10.3366 36.0072 10.3031C35.8824 10.2696 35.7653 10.2119 35.6627 10.1332C35.5602 10.0545 35.4741 9.95637 35.4095 9.84441C34.7451 8.69896 33.792 7.74771 32.6453 7.08549C31.4985 6.42328 30.1982 6.07325 28.8741 6.07031C28.613 6.07005 28.3628 5.96611 28.1783 5.78136C27.9939 5.5966 27.8904 5.34616 27.8907 5.08512V5.08528Z" fill="white"/>
</svg>
