<svg width="42" height="42" viewBox="0 0 42 42" fill="none" xmlns="http://www.w3.org/2000/svg">
<path fill-rule="evenodd" clip-rule="evenodd" d="M38.9917 20.0708C39.114 20.1927 39.2109 20.3375 39.2771 20.497C39.3433 20.6564 39.3773 20.8274 39.3773 21C39.3773 21.1726 39.3433 21.3436 39.2771 21.503C39.2109 21.6625 39.114 21.8073 38.9917 21.9293L23.2417 37.6793C23.1196 37.8011 22.9747 37.8976 22.8152 37.9634C22.6558 38.0291 22.4849 38.0628 22.3125 38.0625L3.93747 38.0625C3.58938 38.0625 3.25553 37.9242 3.00939 37.6781C2.76325 37.4319 2.62497 37.0981 2.62497 36.75L2.62497 24.9375C2.62497 24.5894 2.76325 24.2556 3.00939 24.0094C3.25553 23.7633 3.58938 23.625 3.93747 23.625L14.4375 23.625L14.4375 18.375L3.93747 18.375C3.58938 18.375 3.25553 18.2367 3.00939 17.9906C2.76325 17.7444 2.62497 17.4106 2.62497 17.0625L2.62497 5.25C2.62497 4.9019 2.76325 4.56806 3.0094 4.32192C3.25554 4.07578 3.58938 3.9375 3.93747 3.9375L22.3125 3.9375C22.4849 3.93719 22.6558 3.97088 22.8152 4.03664C22.9747 4.1024 23.1196 4.19895 23.2417 4.32075L38.9917 20.0708ZM21.7691 6.5625L5.24997 6.5625L5.24997 15.75L15.75 15.75C16.0981 15.75 16.4319 15.8883 16.6781 16.1344C16.9242 16.3806 17.0625 16.7144 17.0625 17.0625L17.0625 24.9375C17.0625 25.2856 16.9242 25.6194 16.6781 25.8656C16.4319 26.1117 16.0981 26.25 15.75 26.25L5.24997 26.25L5.24997 35.4375L21.7691 35.4375L36.2066 21L21.7691 6.5625Z" fill="white"/>
<path fill-rule="evenodd" clip-rule="evenodd" d="M35.4375 34.125L26.25 34.125L31.5 28.875L35.4375 28.875C35.7856 28.875 36.1194 29.0133 36.3656 29.2594C36.6117 29.5056 36.75 29.8394 36.75 30.1875L36.75 32.8125C36.75 33.1606 36.6117 33.4944 36.3656 33.7406C36.1194 33.9867 35.7856 34.125 35.4375 34.125Z" fill="white"/>
</svg>
