<svg width="46" height="46" viewBox="0 0 46 46" fill="none" xmlns="http://www.w3.org/2000/svg">
<path fill-rule="evenodd" clip-rule="evenodd" d="M13.4167 36.4167L32.5834 36.4167C33.0917 36.4167 33.5792 36.2147 33.9387 35.8553C34.2981 35.4958 34.5 35.0083 34.5 34.5L34.5 11.5C34.5 10.9917 34.2981 10.5042 33.9387 10.1447C33.5792 9.78527 33.0917 9.58333 32.5834 9.58333L13.4167 9.58333C12.9084 9.58333 12.4209 9.78526 12.0614 10.1447C11.702 10.5042 11.5 10.9917 11.5 11.5L11.5 34.5C11.5 35.0083 11.702 35.4958 12.0614 35.8553C12.4209 36.2147 12.9084 36.4167 13.4167 36.4167ZM32.5834 40.25C34.1084 40.25 35.5709 39.6442 36.6492 38.5659C37.7276 37.4875 38.3334 36.025 38.3334 34.5L38.3334 11.5C38.3334 9.97501 37.7276 8.51247 36.6492 7.43414C35.5709 6.3558 34.1084 5.75 32.5834 5.75L13.4167 5.75C11.8917 5.75 10.4292 6.3558 9.35084 7.43413C8.27251 8.51247 7.66671 9.975 7.66671 11.5L7.66671 34.5C7.66671 36.025 8.27251 37.4875 9.35084 38.5659C10.4292 39.6442 11.8917 40.25 13.4167 40.25L32.5834 40.25Z" fill="white"/>
<path d="M30.6667 32.5833L15.3334 32.5833L15.3334 28.75L30.6667 28.75L30.6667 32.5833Z" fill="white"/>
<path d="M30.6667 24.9167L15.3334 24.9167L15.3334 21.0833L30.6667 21.0833L30.6667 24.9167Z" fill="white"/>
<path d="M30.6667 17.25L21.0834 17.25L21.0834 13.4167L30.6667 13.4167L30.6667 17.25Z" fill="white"/>
</svg>
