<svg width="42" height="42" viewBox="0 0 42 42" fill="none" xmlns="http://www.w3.org/2000/svg">
<g clip-path="url(#clip0)">
<path d="M36.75 -9.17939e-07L36.75 36.75L34.125 36.75L34.125 2.625L15.75 2.625L15.75 0L36.75 -9.17939e-07Z" fill="white"/>
<path d="M10.5 7.875L28.875 7.875L28.875 39.375L10.5 39.375L10.5 7.875ZM7.875 5.25L7.875 42L31.5 42L31.5 5.25L7.875 5.25Z" fill="white"/>
<path d="M15.75 34.125L15.75 36.75L23.625 36.75L23.625 34.125L26.25 34.125L26.25 23.625C26.25 25.3655 25.5586 27.0347 24.3279 28.2654C23.0972 29.4961 21.428 30.1875 19.6875 30.1875C17.947 30.1875 16.2778 29.4961 15.0471 28.2654C13.8164 27.0347 13.125 25.3655 13.125 23.625L13.125 34.125L15.75 34.125Z" fill="white"/>
<path d="M15.75 13.125L13.125 13.125L13.125 23.625C13.125 21.8845 13.8164 20.2153 15.0471 18.9846C16.2778 17.7539 17.947 17.0625 19.6875 17.0625C21.428 17.0625 23.0972 17.7539 24.3279 18.9846C25.5586 20.2153 26.25 21.8845 26.25 23.625L26.25 13.125L23.625 13.125L23.625 10.5L15.75 10.5L15.75 13.125Z" fill="white"/>
</g>
<defs>
<clipPath id="clip0">
<rect width="42" height="42" fill="white" transform="translate(0 42) rotate(-90)"/>
</clipPath>
</defs>
</svg>
