<svg width="46" height="30" viewBox="0 0 46 30" fill="none" xmlns="http://www.w3.org/2000/svg">
<path fill-rule="evenodd" clip-rule="evenodd" d="M42.7351 0.0467485C42.8024 0.0857562 42.8544 0.146429 42.8828 0.218856C42.9111 0.291282 42.9141 0.371181 42.8911 0.445499L41.653 4.46875H43.9375C44.0047 4.46872 44.0703 4.48836 44.1264 4.52523C44.1825 4.5621 44.2266 4.61459 44.2532 4.67623C44.2799 4.73787 44.2878 4.80595 44.2762 4.87207C44.2646 4.93819 44.2338 4.99946 44.1878 5.04831L38.6878 10.8921C38.6345 10.9487 38.5637 10.9855 38.4869 10.9967C38.41 11.0079 38.3316 10.9927 38.2645 10.9537C38.1973 10.9146 38.1454 10.8539 38.1171 10.7816C38.0889 10.7092 38.086 10.6294 38.1089 10.5552L39.3471 6.53125H37.0625C36.9954 6.53128 36.9297 6.51164 36.8736 6.47477C36.8175 6.4379 36.7734 6.3854 36.7468 6.32377C36.7202 6.26213 36.7122 6.19405 36.7238 6.12792C36.7355 6.0618 36.7662 6.00054 36.8123 5.95169L42.3123 0.107936C42.3654 0.0514229 42.4361 0.0145519 42.5129 0.00331815C42.5897 -0.00791564 42.668 0.00714843 42.7351 0.046061V0.0467485ZM37.858 5.84375H39.8125C39.8663 5.84374 39.9194 5.85635 39.9674 5.88058C40.0154 5.90481 40.0571 5.93997 40.0891 5.98324C40.121 6.0265 40.1424 6.07667 40.1514 6.1297C40.1605 6.18273 40.157 6.23714 40.1411 6.28856L39.2006 9.34312L43.1414 5.15625H41.1875C41.1337 5.15626 41.0807 5.14364 41.0326 5.11942C40.9846 5.09519 40.9429 5.06003 40.911 5.01676C40.879 4.97349 40.8576 4.92333 40.8486 4.8703C40.8395 4.81727 40.8431 4.76285 40.8589 4.71144L41.7994 1.65687L37.858 5.84375Z" fill="white"/>
<path d="M43.5949 15.0889L34.1092 13.5791L31.3583 9.63203C30.6442 8.61111 29.4491 8 28.1713 8H13.9955C12.7102 8 11.5225 8.61111 10.8085 9.63203L8.47845 12.9752L8 13.5C9 15 9.51469 14 8.5 14L8 13.5C7.42347 13.9314 7.849 14.1114 7.5 13.9314C7.5 14.4346 8 14 8 14L8.86178 13.8196C9.36537 13.8196 9.5 13.5 9 13.5L6.7572 13.9314L2.17973 15.017C0.89445 15.3261 0 16.419 0 17.6843V22.2928C0 23.3712 0.443482 24.3922 1.24019 25.1542C2.02943 25.902 3.11926 26.3333 4.2317 26.3333H6.80981C7.25326 28.4255 9.19252 30 11.5075 30C13.8226 30 15.7543 28.4255 16.2053 26.3333H28.8553C29.2987 28.4255 31.238 30 33.553 30C35.8681 30 37.7998 28.4255 38.2508 26.3333H42.5426C43.2717 26.3333 43.9331 25.9451 44.2563 25.3196L45.8047 22.3503C45.8348 22.2856 45.8648 22.2209 45.8798 22.149L45.9776 21.7392C45.9926 21.6745 46 21.6026 46 21.5307V17.7993C46 16.4549 44.9929 15.3118 43.5949 15.0889ZM11.5 28.1667C9.91407 28.1667 8.62125 26.9301 8.62125 25.4131C8.62125 23.8961 9.91407 22.6595 11.5 22.6595C13.086 22.6595 14.3788 23.8961 14.3788 25.4131C14.3788 26.9301 13.086 28.1667 11.5 28.1667ZM33.5455 28.1667C31.9595 28.1667 30.6667 26.9301 30.6667 25.4131C30.6667 23.8961 31.9595 22.6595 33.5455 22.6595C35.1315 22.6595 36.4243 23.8961 36.4243 25.4131C36.4169 26.9301 35.1239 28.1667 33.5455 28.1667ZM44.0835 21.4301L42.5351 24.5H38.2432C37.7998 22.4078 35.8605 20.8333 33.5455 20.8333C31.2305 20.8333 29.2987 22.4078 28.8478 24.5H16.1978C15.7543 22.4078 13.815 20.8333 11.5 20.8333C9.18497 20.8333 7.25326 22.4078 6.80228 24.5H4.2317C3.62285 24.5 3.02908 24.2627 2.59312 23.8529C2.1572 23.4359 1.91666 22.8824 1.91666 22.2856V17.6771C1.91666 17.2529 2.21731 16.8935 2.64576 16.7856L8.86178 15.2974C9.09478 15.2399 9.29772 15.1033 9.42551 14.9163L12.402 10.6386C12.7553 10.1281 13.3566 9.81895 13.9955 9.81895H28.1713C28.8102 9.81895 29.4115 10.1209 29.7648 10.6386L32.7413 14.9163C32.8841 15.1248 33.1171 15.2686 33.3802 15.3118L43.2792 16.8935C43.7452 16.9654 44.0835 17.3464 44.0835 17.7993V21.4301Z" fill="white"/>
</svg>
