<svg width="29" height="29" viewBox="0 0 29 29" fill="none" xmlns="http://www.w3.org/2000/svg">
	<path d="M7.73333 11.6H9.66667V9.66667H7.73333V11.6ZM19.3333 11.6H21.2667V9.66667H19.3333V11.6ZM19.5267 16.82C18.9414 17.6004 18.1825 18.2337 17.31 18.67C16.4375 19.1062 15.4755 19.3333 14.5 19.3333C13.5245 19.3333 12.5625 19.1062 11.69 18.67C10.8175 18.2337 10.0586 17.6004 9.47333 16.82L7.92667 17.98C11.2133 22.3629 17.7867 22.3629 21.0733 17.98L19.5267 16.82ZM1.93333 9.66667V4.83333H0V9.66667H1.93333ZM4.83333 1.93333H9.66667V0H4.83333V1.93333ZM1.93333 4.83333C1.93333 4.06421 2.23887 3.32658 2.78272 2.78272C3.32658 2.23887 4.06421 1.93333 4.83333 1.93333V0C3.55145 0 2.32208 0.509225 1.41565 1.41565C0.509225 2.32208 0 3.55145 0 4.83333H1.93333ZM0 19.3333V24.1667H1.93333V19.3333H0ZM4.83333 29H9.66667V27.0667H4.83333V29ZM0 24.1667C0 25.4485 0.509225 26.6779 1.41565 27.5843C2.32208 28.4908 3.55145 29 4.83333 29V27.0667C4.06421 27.0667 3.32658 26.7611 2.78272 26.2173C2.23887 25.6734 1.93333 24.9358 1.93333 24.1667H0ZM19.3333 1.93333H24.1667V0H19.3333V1.93333ZM27.0667 4.83333V9.66667H29V4.83333H27.0667ZM24.1667 1.93333C24.9358 1.93333 25.6734 2.23887 26.2173 2.78272C26.7611 3.32658 27.0667 4.06421 27.0667 4.83333H29C29 3.55145 28.4908 2.32208 27.5843 1.41565C26.6779 0.509225 25.4485 0 24.1667 0V1.93333ZM19.3333 29H24.1667V27.0667H19.3333V29ZM29 24.1667V19.3333H27.0667V24.1667H29ZM24.1667 29C25.4485 29 26.6779 28.4908 27.5843 27.5843C28.4908 26.6779 29 25.4485 29 24.1667H27.0667C27.0667 24.9358 26.7611 25.6734 26.2173 26.2173C25.6734 26.7611 24.9358 27.0667 24.1667 27.0667V29Z" fill="url(#paint0_linear)" />
	<defs>
		<linearGradient id="paint0_linear" x1="14.5" y1="0" x2="14.5" y2="29" gradientUnits="userSpaceOnUse">
			<stop stop-color="#FD6F67" />
			<stop offset="1" stop-color="#EE0C89" />
		</linearGradient>
	</defs>
</svg>
