<svg xmlns="http://www.w3.org/2000/svg"
  xmlns:xlink="http://www.w3.org/1999/xlink" width="30" height="27" viewBox="0 0 30 27">
  <defs>
    <style>
			.cls-1 {
			fill: #f4f4f4;
			fill-rule: evenodd;
			filter: url(#filter);
			}
    </style>
    <filter id="filter" x="1690" y="129" width="30" height="27" filterUnits="userSpaceOnUse">
      <feOffset result="offset" in="SourceAlpha" />
      <feGaussianBlur result="blur" stdDeviation="1.732" />
      <feFlood result="flood" flood-opacity="0.4" />
      <feComposite result="composite" operator="in" in2="blur" />
      <feBlend result="blend" in="SourceGraphic" />
    </filter>
  </defs>
  <path class="cls-1" d="M1715.53,142.332h-21.99a1.007,1.007,0,0,0-1,1.011v7.792a1.006,1.006,0,0,0,1,1.01h21.99a1.006,1.006,0,0,0,1-1.01v-7.792A1.007,1.007,0,0,0,1715.53,142.332ZM1700.4,144.6h-3.38a2.671,2.671,0,0,1-2.15,2.187v0.98a2.683,2.683,0,0,1,2.15,2.149h3.38v0.929h-4.32a2.161,2.161,0,0,0,.05-0.446,1.92,1.92,0,0,0-.06-0.483,1.759,1.759,0,0,0-1.2-1.2,1.714,1.714,0,0,0-.92-0.01v-2.866a1.735,1.735,0,0,0,.44.057,1.662,1.662,0,0,0,.48-0.068,1.759,1.759,0,0,0,1.21-1.233,2.153,2.153,0,0,0,.05-0.446,1.92,1.92,0,0,0-.06-0.483h4.33V144.6Zm4.75,0.539q-0.03,0-.06,0v1.633a1.678,1.678,0,0,1,.58.1,1.74,1.74,0,0,1,.49.283,1.675,1.675,0,0,1-1.07,2.959v0.446h-0.85v-0.447h-0.06a1.613,1.613,0,0,1-1.61-1.617v-0.018h0.85V148.5c0,0.037.01,0.073,0.01,0.109a0.759,0.759,0,0,0,.75.653c0.02,0,.04,0,0.06,0v-1.633a1.673,1.673,0,0,1,0-3.345v-0.409h0.85v0.41h0.06a1.613,1.613,0,0,1,1.61,1.616v0.093h-0.86a0.289,0.289,0,0,0,.01-0.093A0.761,0.761,0,0,0,1705.15,145.138Zm10.01,3.571a1.714,1.714,0,0,0-.92.01,1.759,1.759,0,0,0-1.2,1.2,1.923,1.923,0,0,0-.07.483,1.644,1.644,0,0,0,.06.446h-4.28v-0.929h3.34a2.683,2.683,0,0,1,2.15-2.149v-1.017a2.684,2.684,0,0,1-2.15-2.15h-3.34V143.67h4.28a1.65,1.65,0,0,0-.06.446,1.91,1.91,0,0,0,.07.483,1.759,1.759,0,0,0,1.2,1.2,1.662,1.662,0,0,0,.48.068,1.735,1.735,0,0,0,.44-0.057v2.9Zm-10.07.553c0.02,0,.04,0,0.06,0a0.745,0.745,0,0,0,.58-0.286,0.869,0.869,0,0,0,.18-0.531,0.832,0.832,0,0,0-.26-0.61h0a0.713,0.713,0,0,0-.5-0.207l-0.06,0v1.631Zm-1.48-3.837a0.819,0.819,0,0,0-.19.531,0.834,0.834,0,0,0,.26.611,0.713,0.713,0,0,0,.5.207l0.06,0v-1.631q-0.03,0-.06,0A0.712,0.712,0,0,0,1703.61,145.425Zm10.49-8.358-5.5-5.509a1,1,0,0,0-1.42,0l-9.72,9.733h2.85a1.859,1.859,0,0,1,.26-0.355l-0.29-.289,0.61-.6,0.29,0.29,0.03-.04a1.622,1.622,0,0,1,2.29,0c0.02,0.022.04,0.044,0.06,0.068l-0.61.606a0.316,0.316,0,0,0-.06-0.069,0.752,0.752,0,0,0-1.07,0,0.151,0.151,0,0,0-.04.04l0.35,0.354h6.03l1.94-1.937a2.68,2.68,0,0,1,0-3.039l-0.72-.719a2.669,2.669,0,0,1-3.03,0l-2.37,2.37-0.65-.657,3.03-3.037a1.564,1.564,0,0,0,.27.356,1.779,1.779,0,0,0,.39.293,1.75,1.75,0,0,0,1.69,0,1.779,1.779,0,0,0,.39-0.293,1.894,1.894,0,0,0,.27-0.357l2.05,2.053a1.72,1.72,0,0,0-.36.275,1.772,1.772,0,0,0-.29.39,1.752,1.752,0,0,0,0,1.691,1.772,1.772,0,0,0,.29.39,1.754,1.754,0,0,0,.36.275l-1.94,1.946h1.83l2.79-2.794A1.02,1.02,0,0,0,1714.1,137.067Z" transform="translate(-1690 -129)" />
</svg>