<svg width="20" height="20" viewBox="0 0 20 20" fill="none"
  xmlns="http://www.w3.org/2000/svg">
  <path d="M15.1838 4.08006C14.5887 4.28858 13.963 4.39619 13.3324 4.3985C12.1394 4.39489 10.9762 4.02526 9.99987 3.33949C9.02899 4.02257 7.87287 4.39327 6.68584 4.40221C6.04886 4.40072 5.4167 4.29182 4.81592 4.08006V11.1154C4.81592 11.6375 6.66733 14.6479 9.99987 16.6697C13.3065 14.6368 15.1838 11.6264 15.1838 11.1154C15.1579 9.60469 15.1838 5.56119 15.1838 4.08006Z" fill="white"/>
  <path d="M17.7148 1.28071C17.7164 1.07622 17.552 0.909126 17.3475 0.907506C17.2942 0.90709 17.2414 0.918198 17.1927 0.940045C16.2955 1.35138 15.3211 1.56721 14.3341 1.57323C12.7996 1.55434 11.3133 1.03419 10.1018 0.0920964C9.96202 -0.0306988 9.75281 -0.0306988 9.61303 0.0920964C8.40368 1.03812 6.91603 1.55874 5.38069 1.57323C4.39371 1.56721 3.41931 1.35138 2.52211 0.940045C2.33558 0.856176 2.11642 0.939443 2.03255 1.12593C2.0107 1.17457 1.99959 1.22734 2.00001 1.28071C2.00001 1.35846 2.02593 8.9937 2.00001 11.5227C2.00001 12.878 5.14001 17.2621 9.66857 19.9504C9.78313 20.0165 9.9243 20.0165 10.0389 19.9504C14.5748 17.2621 17.7296 12.8743 17.7148 11.519C17.6889 8.99 17.7148 1.35476 17.7148 1.28071ZM10.0463 17.451C9.9317 17.5171 9.79053 17.5171 9.67598 17.451C6.28789 15.444 3.93289 12.1485 3.93289 11.1154C3.9514 9.24179 3.93289 3.59127 3.93289 3.53203C3.93127 3.32754 4.09572 3.16045 4.30021 3.15883C4.35353 3.15841 4.40634 3.16952 4.45499 3.19137C5.10678 3.49111 5.81485 3.6489 6.53227 3.65422C7.64687 3.64839 8.72893 3.27773 9.61303 2.59891C9.75281 2.47612 9.96202 2.47612 10.1018 2.59891C10.9809 3.28097 12.0589 3.65681 13.1714 3.66903C13.8889 3.66371 14.5969 3.50592 15.2487 3.20618C15.4353 3.12231 15.6544 3.20558 15.7383 3.39206C15.7601 3.44071 15.7712 3.49347 15.7708 3.54684C15.7819 3.60238 15.7523 9.26401 15.7819 11.1154C15.7819 12.1485 13.4269 15.444 10.0463 17.451Z" fill="white"/>
</svg>
